<?xml version="1.0" standalone="no"?>
<!DOCTYPE svg PUBLIC "-//W3C//DTD SVG 1.1//EN" "http://www.w3.org/Graphics/SVG/1.1/DTD/svg11.dtd" >
<svg xmlns="http://www.w3.org/2000/svg" xmlns:xlink="http://www.w3.org/1999/xlink" version="1.1">
<metadata>
Created by FontForge 20150913 at Fri Mar 25 09:35:40 2016
 By Jimmy Wärting
Mangal (c) 2009 Microsoft Corporation. All rights reserved.
</metadata>
<defs>
<font id="Mangal-Bold" horiz-adv-x="1176" >
  <font-face 
    font-family="Mangal"
    font-weight="700"
    font-stretch="normal"
    units-per-em="2048"
    panose-1="2 4 5 3 5 2 3 3 2 2"
    ascent="1638"
    descent="-410"
    x-height="1098"
    cap-height="1518"
    bbox="-1392 -968 2492 2630"
    underline-thickness="120"
    underline-position="-193"
    unicode-range="U+000D-25CC"
  />
<missing-glyph horiz-adv-x="1024" 
d="M128 0v1320h768v-1320h-768zM256 128h512v1064h-512v-1064z" />
    <glyph glyph-name=".notdef" horiz-adv-x="1024" 
d="M128 0v1320h768v-1320h-768zM256 128h512v1064h-512v-1064z" />
    <glyph glyph-name="glyph52" unicode="&#x200b;" horiz-adv-x="0" 
 />
    <glyph glyph-name="uni000D" unicode="&#xd;" horiz-adv-x="1024" 
 />
    <glyph glyph-name="space" unicode=" " horiz-adv-x="1024" 
 />
    <glyph glyph-name="space" unicode="&#xa0;" horiz-adv-x="1024" 
 />
    <glyph glyph-name="exclam" unicode="!" horiz-adv-x="589" 
d="M438 0h-288v283h288v-283zM438 1137l-40 -789h-208l-40 789v347h288v-347z" />
    <glyph glyph-name="quotedbl" unicode="&#x22;" horiz-adv-x="802" 
d="M737 1211l-49 -311h-184l-54 310v273h287v-272zM352 1211l-49 -311h-184l-54 310v273h287v-272z" />
    <glyph glyph-name="numbersign" unicode="#" horiz-adv-x="1179" 
d="M1155 869h-196l-53 -258h171v-229h-218l-78 -382h-239l79 382h-210l-79 -382h-238l78 382h-149v229h196l53 258h-172v229h218l79 385h237l-78 -385h211l79 385h236l-78 -385h151v-229zM721 869h-211l-53 -258h209z" />
    <glyph glyph-name="percent" unicode="%" horiz-adv-x="1885" 
d="M515 1507q78 0 145 -28.5t115.5 -81.5t76 -130t27.5 -174q0 -96 -27 -172.5t-75 -130.5t-115 -82.5t-147 -28.5q-81 0 -147.5 28.5t-114 82t-74 130.5t-26.5 173q0 97 27 174t75 130.5t114.5 81.5t145.5 28zM515 884q119 0 119 209t-119 209q-118 0 -118 -209t118 -209z
M1467 1483l-810 -1483h-243l811 1483h242zM1369 806q79 0 146 -29t115 -83t75 -130.5t27 -171.5q0 -96 -27 -173t-75 -131t-115 -83t-146 -29q-81 0 -147.5 28.5t-114 82t-74 130.5t-26.5 175q0 97 26.5 173.5t74.5 130t114.5 82t146.5 28.5zM1369 181q119 0 119 211
q0 208 -119 208q-118 0 -118 -208q0 -211 118 -211z" />
    <glyph glyph-name="ampersand" unicode="&#x26;" horiz-adv-x="1414" 
d="M1320 131l-209 -176l-120 154q-169 -133 -409 -133q-106 0 -195.5 35.5t-154.5 97t-101.5 144t-36.5 175.5q0 146 90 253q37 45 90.5 88.5t123.5 86.5q-66 91 -97 162.5t-31 132.5q0 76 29.5 141t82 113t124.5 75t156 27q79 0 146.5 -26.5t117 -73t78 -109t28.5 -133.5
q0 -56 -15 -104.5t-46.5 -92.5t-79 -85t-111.5 -81q30 -37 52 -64t43 -53t44 -55t55 -69q9 39 14.5 84.5t7.5 99.5h279q-7 -130 -33.5 -236.5t-71.5 -189.5zM634 985q68 41 99.5 81.5t31.5 94.5q0 26 -9 47.5t-24.5 37t-36 24t-42.5 8.5q-49 0 -82.5 -29.5t-33.5 -79.5
q0 -30 20 -70t56 -87zM546 668q-44 -29 -77 -54t-54.5 -51.5t-32 -56t-10.5 -66.5q0 -44 16 -84t44 -71t67 -49.5t85 -18.5q151 0 252 88z" />
    <glyph glyph-name="quotesingle" unicode="'" horiz-adv-x="405" 
d="M346 1211l-48 -311h-184l-55 310v273h287v-272z" />
    <glyph glyph-name="parenleft" unicode="(" horiz-adv-x="706" 
d="M421 -409q-362 468 -362 958q0 489 362 958h225q-318 -512 -318 -958q0 -447 318 -958h-225z" />
    <glyph glyph-name="parenright" unicode=")" horiz-adv-x="706" 
d="M285 1507q362 -470 362 -958t-362 -958h-226q161 257 239.5 495t78.5 463q0 224 -78.5 462.5t-239.5 495.5h226z" />
    <glyph glyph-name="asterisk" unicode="*" horiz-adv-x="1076" 
d="M928 469h-192l145 -145l-108 -109l-144 144v-187h-185v187l-143 -144l-109 109l146 145h-191v181h191l-146 145l109 109l143 -143v188h185v-188l144 143l108 -109l-145 -145h192v-181z" />
    <glyph glyph-name="plus" unicode="+" horiz-adv-x="1238" 
d="M1127 608h-382v-382h-252v382h-382v248h382v382h252v-382h382v-248z" />
    <glyph glyph-name="comma" unicode="," horiz-adv-x="589" 
d="M438 44q0 -72 -18.5 -131t-54.5 -100.5t-90 -64.5t-125 -23v179q89 0 95 96h-95v283h288v-239z" />
    <glyph glyph-name="hyphen" unicode="-" horiz-adv-x="706" 
d="M661 418h-616v262h616v-262z" />
    <glyph glyph-name="period" unicode="." horiz-adv-x="589" 
d="M438 0h-287v283h287v-283z" />
    <glyph glyph-name="slash" unicode="/" horiz-adv-x="589" 
d="M626 1483l-429 -1483h-234l430 1483h233z" />
    <glyph glyph-name="zero" unicode="0" horiz-adv-x="1179" 
d="M588 1507q502 0 502 -767q0 -764 -502 -764q-500 0 -500 764q0 767 500 767zM588 205q55 0 96.5 27t70 89.5t43 165t14.5 253.5t-14.5 254t-43 166t-70 90.5t-96.5 27.5q-54 0 -95 -27t-69.5 -89.5t-43 -165.5t-14.5 -256q0 -152 14.5 -254.5t43 -164.5t69.5 -89t95 -27z
" />
    <glyph glyph-name="one" unicode="1" horiz-adv-x="1179" 
d="M827 0h-272v1069q-121 -44 -335 -44v229q336 0 384 253h223v-1507z" />
    <glyph glyph-name="two" unicode="2" horiz-adv-x="1179" 
d="M1097 0h-1016q0 183 86 313q40 60 115 133t185 162q98 79 165 139t108 112.5t58.5 103.5t17.5 112q0 96 -54 149.5t-154 53.5q-42 0 -80 -16.5t-67 -49.5t-48.5 -82.5t-23.5 -114.5h-279q9 112 48.5 203t104.5 155t153.5 99t195.5 35q115 0 205 -33.5t151 -92t93 -138
t32 -172.5q0 -85 -23 -157.5t-69 -137.5q-43 -60 -129.5 -143.5t-211.5 -188.5q-74 -63 -127.5 -111.5t-79.5 -78.5h644v-254z" />
    <glyph glyph-name="three" unicode="3" horiz-adv-x="1179" 
d="M1023 1101q0 -80 -34 -154.5t-104 -128.5q102 -52 155.5 -147.5t53.5 -215.5q0 -106 -39 -194t-107.5 -151.5t-161 -98.5t-199.5 -35q-108 0 -198 34.5t-156 97.5t-104.5 151.5t-44.5 197.5h281q0 -51 14.5 -97t43 -80.5t69.5 -54.5t95 -20q52 0 94.5 18.5t72.5 51t46 78
t16 99.5q0 112 -65 170.5t-192 58.5h-115v228h87q215 0 215 195q0 85 -44.5 129.5t-127.5 44.5q-172 0 -196 -221h-278q12 110 52.5 194t102.5 141t142.5 86t172.5 29q103 0 186.5 -30t143 -84t91.5 -128.5t32 -163.5z" />
    <glyph glyph-name="four" unicode="4" horiz-adv-x="1179" 
d="M1117 333h-188v-333h-272v333h-596v215l655 954h213v-923h188v-246zM657 579v445l-298 -445h298z" />
    <glyph glyph-name="five" unicode="5" horiz-adv-x="1179" 
d="M416 973q86 41 205 41q94 0 181 -35t153 -100t105.5 -156.5t39.5 -204.5q0 -115 -37 -214t-105.5 -172t-165 -114.5t-215.5 -41.5q-96 0 -181 29.5t-151.5 89t-110 149t-55.5 210.5h278q7 -63 27 -110t49 -78t66 -46t78 -15q55 0 100 23t77 63.5t50 94.5t18 116
q0 63 -18 113t-51 85t-78.5 54t-100.5 19q-129 0 -232 -115h-212l66 825h837v-253h-597z" />
    <glyph glyph-name="six" unicode="6" horiz-adv-x="1179" 
d="M616 1278q-94 0 -158 -95t-88 -275q118 84 262 84q96 0 180.5 -37t146.5 -103t98 -156.5t36 -197.5t-34.5 -202t-97.5 -166t-152.5 -112.5t-198.5 -41.5q-125 0 -222.5 47.5t-164.5 139.5t-102 226t-35 308q0 810 539 810q87 0 162.5 -27.5t135 -82t99.5 -136t55 -190.5
h-280q-24 207 -181 207zM600 764q-121 0 -242 -123q7 -212 72.5 -324t176.5 -112q48 0 86.5 22t65.5 60t41.5 89t14.5 110q0 60 -15 111t-43 88t-68 58t-89 21z" />
    <glyph glyph-name="seven" unicode="7" horiz-adv-x="1179" 
d="M1087 1306l-523 -1306h-299l520 1230h-694v253h996v-177z" />
    <glyph glyph-name="eight" unicode="8" horiz-adv-x="1179" 
d="M1040 1117q0 -197 -192 -335q247 -142 247 -367q0 -98 -37 -179t-103.5 -139t-160 -89.5t-206.5 -31.5q-112 0 -205 31.5t-159.5 89.5t-103.5 138.5t-37 179.5q0 114 60.5 205t185.5 162q-93 69 -142.5 153.5t-49.5 181.5q0 85 33 157t92 123.5t142 80.5t184 29
t184.5 -29t143 -81t92 -123.5t32.5 -156.5zM415 1117q0 -133 173 -217q175 84 175 217q0 77 -45.5 119t-129.5 42q-81 0 -127 -42t-46 -119zM817 415q0 38 -14 69.5t-42 59t-71.5 53.5t-101.5 53q-59 -28 -103 -55.5t-73 -55.5q-52 -52 -52 -124q0 -50 16.5 -89t46.5 -66
t72 -41t93 -14t93 14.5t72.5 41.5t47 66t16.5 88z" />
    <glyph glyph-name="nine" unicode="9" horiz-adv-x="1179" 
d="M564 205q95 0 156.5 94.5t86.5 276.5q-116 -85 -260 -85q-96 0 -180 37t-146.5 103t-98.5 156.5t-36 198.5q0 106 34.5 201t98 166t152.5 112.5t198 41.5q123 0 220.5 -47t165 -138.5t103 -226t35.5 -309.5q0 -810 -540 -810q-87 0 -163 27.5t-134.5 82t-98 136
t-54.5 190.5h280q22 -207 181 -207zM578 720q122 0 242 123q-3 105 -21.5 186.5t-51 136.5t-76.5 83.5t-98 28.5q-47 0 -85.5 -21.5t-66 -59t-42.5 -89t-15 -111.5t15 -111t43 -88t67.5 -57.5t88.5 -20.5z" />
    <glyph glyph-name="colon" unicode=":" horiz-adv-x="589" 
d="M438 0h-287v283h287v-283zM438 815h-287v283h287v-283z" />
    <glyph glyph-name="semicolon" unicode=";" horiz-adv-x="589" 
d="M439 44q0 -72 -18.5 -131t-54.5 -100.5t-90 -64.5t-125 -23v179q89 0 95 96h-95v283h288v-239zM439 815h-287v283h287v-283z" />
    <glyph glyph-name="less" unicode="&#x3c;" horiz-adv-x="1238" 
d="M1127 192l-1016 431v218l1016 432v-268l-662 -273l662 -273v-267z" />
    <glyph glyph-name="equal" unicode="=" horiz-adv-x="1238" 
d="M1127 820h-1016v249h1016v-249zM1127 396h-1016v248h1016v-248z" />
    <glyph glyph-name="greater" unicode="&#x3e;" horiz-adv-x="1238" 
d="M1127 623l-1016 -431v267l663 273l-663 273v268l1016 -432v-218z" />
    <glyph glyph-name="question" unicode="?" horiz-adv-x="1179" 
d="M91 1015q10 113 51 204t107 155t153.5 98.5t191.5 34.5q110 0 201 -31.5t156 -88t101 -134.5t36 -170q0 -106 -48 -193q-45 -88 -170 -191q-54 -45 -87 -79.5t-44 -59.5q-23 -49 -23 -217h-259q1 115 11.5 195t33.5 127q45 92 163 190q51 43 80.5 73.5t44.5 54t18.5 44
t3.5 44.5q0 45 -16 82.5t-44.5 65.5t-68 43.5t-87.5 15.5q-189 0 -229 -263h-276zM736 0h-287v283h287v-283z" />
    <glyph glyph-name="at" unicode="@" horiz-adv-x="2152" 
d="M1694 -294q-261 -115 -534 -115q-233 0 -419.5 61.5t-317.5 178t-201 283t-70 376.5q0 437 279 728t708 291q390 0 625 -223q236 -224 236 -563q0 -171 -47 -305.5t-130.5 -227.5t-196.5 -142.5t-245 -49.5q-72 0 -124 29.5t-80 79.5q-114 -109 -272 -109
q-85 0 -156.5 30.5t-123.5 86.5t-81.5 136.5t-29.5 180.5q0 269 165 476q169 211 374 211q170 0 273 -76l11 49h265l-159 -693q-11 -48 -17.5 -79t-6.5 -55q0 -39 36 -39q39 0 101 34t108.5 98.5t74 157.5t27.5 210q0 121 -46 224t-129.5 178t-199 117.5t-254.5 42.5
q-165 0 -299.5 -57.5t-240.5 -172.5q-214 -234 -214 -568q0 -162 52.5 -288t152.5 -213t244 -132.5t326 -45.5q222 0 418 89zM1271 805q-66 86 -204 86q-56 0 -107 -42t-91 -108t-63.5 -146.5t-23.5 -156.5q0 -212 158 -212q42 0 82.5 20t75.5 56t62 86.5t42 111.5z" />
    <glyph glyph-name="bracketleft" unicode="[" horiz-adv-x="589" 
d="M571 -388h-470v1871h470v-230h-199v-1410h199v-231z" />
    <glyph glyph-name="backslash" unicode="\" horiz-adv-x="589" 
d="M614 0h-233l-430 1483h234z" />
    <glyph glyph-name="bracketright" unicode="]" horiz-adv-x="589" 
d="M495 -388h-470v231h199v1410h-199v230h470v-1871z" />
    <glyph glyph-name="asciicircum" unicode="^" horiz-adv-x="995" 
d="M939 809h-283l-180 356l-181 -356h-281l366 674h192z" />
    <glyph glyph-name="underscore" unicode="_" horiz-adv-x="1170" 
d="M1179 -306h-1189v185h1189v-185z" />
    <glyph glyph-name="braceleft" unicode="{" horiz-adv-x="728" 
d="M685 -409h-99q-58 0 -113 10.5t-100.5 38.5t-77.5 78t-44 130q-4 24 -6 60.5t-3 79t-2.5 88t-2.5 87t-3.5 76t-5.5 54.5q-3 28 -15 52t-34.5 42.5t-56 29.5t-79.5 12v240q47 1 80.5 12t55.5 29.5t33.5 42t15.5 50.5q3 20 4.5 54.5t3 76.5t3 87.5t3 88.5t3.5 79.5t6 60.5
q6 44 23 84t41.5 72t55.5 54.5t66 30.5q61 16 149 16h99v-236h-76q-69 0 -79 -26q-18 -44 -18 -266q0 -89 -10 -157.5t-30 -120t-50 -89t-69 -63.5q39 -26 68.5 -62t49.5 -87.5t30.5 -120.5t10.5 -160q0 -224 18 -266q10 -26 79 -26h76v-236z" />
    <glyph glyph-name="bar" unicode="|" horiz-adv-x="560" 
d="M400 -409h-240v1892h240v-1892z" />
    <glyph glyph-name="braceright" unicode="}" horiz-adv-x="728" 
d="M43 1507h98q45 0 83.5 -3.5t71.5 -14.5t62 -31.5t56 -54.5q50 -66 62 -153q3 -24 5.5 -60.5t4 -79.5t2.5 -88.5t2.5 -87.5t3 -76.5t4.5 -54.5q3 -27 14.5 -50.5t34 -42t56.5 -29.5t82 -12v-240q-47 -1 -80.5 -12t-56 -29t-35 -42.5t-15.5 -52.5q-2 -20 -4 -54.5t-3 -75.5
t-2.5 -86.5t-3 -88.5t-4 -79.5t-5.5 -60.5q-6 -43 -23.5 -82.5t-42 -71.5t-56 -54.5t-65.5 -32.5q-31 -9 -68 -12.5t-80 -3.5h-98v236h75q65 0 79 26q19 47 19 266q0 91 10 160t30 120t50 87.5t69 62.5q-40 27 -70 63.5t-49.5 88t-29.5 120t-10 158.5q0 221 -19 265
q-12 27 -79 27h-75v236z" />
    <glyph glyph-name="asciitilde" unicode="~" horiz-adv-x="1238" 
d="M1128 1230q-125 -143 -309 -143q-119 0 -268 68q-68 30 -116.5 45.5t-80.5 15.5q-102 0 -291 -202v327q124 142 310 142q116 0 264 -68q136 -60 199 -60q52 0 124.5 50t167.5 150v-325z" />
    <glyph glyph-name="ellipsis" unicode="&#x2026;" horiz-adv-x="1199" 
d="M1085 0h-286v282h286v-282zM718 0h-286v282h286v-282zM351 0h-286v282h286v-282z" />
    <glyph glyph-name="endash" unicode="&#x2013;" horiz-adv-x="621" 
d="M653 435h-686v228h686v-228z" />
    <glyph glyph-name="emdash" unicode="&#x2014;" horiz-adv-x="1242" 
d="M1249 435h-1256v228h1256v-228z" />
    <glyph glyph-name="quoteleft" unicode="&#x2018;" horiz-adv-x="471" 
d="M369 949h-287v239q0 72 18.5 131t54.5 100.5t89.5 64.5t124.5 23v-179q-44 0 -67.5 -23t-27.5 -73h95v-283z" />
    <glyph glyph-name="quoteright" unicode="&#x2019;" horiz-adv-x="471" 
d="M370 1245q0 -72 -18.5 -130.5t-54.5 -100.5t-89.5 -65t-124.5 -23v179q87 0 94 96h-94v282h287v-238z" />
    <glyph glyph-name="divide" unicode="&#xf7;" horiz-adv-x="1238" 
d="M762 897h-286v283h286v-283zM1127 608h-1016v248h1016v-248zM762 283h-286v284h286v-284z" />
    <glyph glyph-name="minus" unicode="&#x2212;" horiz-adv-x="1238" 
d="M1127 608h-1016v248h1016v-248z" />
    <glyph glyph-name="multiply" unicode="&#xd7;" horiz-adv-x="1238" 
d="M1093 434l-177 -177l-298 298l-298 -298l-176 177l298 298l-298 297l176 177l298 -298l298 298l177 -177l-298 -297z" />
    <glyph glyph-name="glyph53" horiz-adv-x="1024" 
d="M491 2630l126 -126h-252zM491 -954v126h126z" />
    <glyph glyph-name="glyph54" horiz-adv-x="1228" 
d="M0 1085v235h1298v-235h-304v-136q0 -201 -189 -226l-271 -36q-53 -8 -83.5 -27t-30.5 -48q0 -14 13 -25.5t34 -20t47.5 -13.5t53.5 -5q38 0 77.5 6t75 21t65 40t49.5 63l200 -64q-161 -257 -470 -257q-128 0 -225 50q-140 69 -140 203q0 125 93 191q-31 33 -49.5 70.5
t-18.5 76.5v137h-225zM759 1009v76h-106zM460 1039v-41q0 -107 148 -107q21 0 51 2z" />
    <glyph glyph-name="glyph55" horiz-adv-x="1228" 
d="M1298 1085h-304v-136q0 -107 -56 -164q81 -70 81 -166q0 -146 -166 -216q-110 -46 -249 -46q-85 0 -158.5 17.5t-128 50.5t-86 80t-31.5 105q0 125 93 191q-31 33 -49.5 70.5t-18.5 76.5v137h-225v235h1298v-235zM759 1009v76h-106zM460 1039v-41q0 -107 148 -107
q21 0 51 2zM799 621q0 25 -15.5 48.5t-49.5 46.5q-51 -7 -106.5 -13.5t-101.5 -17.5t-76 -28t-30 -45q0 -64 184 -64q37 0 72.5 5t62.5 14.5t43.5 23t16.5 30.5z" />
    <glyph glyph-name="glyph56" 
d="M1188 861l-131 -128l-132 128l132 132zM1246 1085h-392v-191h-378q-20 0 -30 -8t-10 -19q0 -24 41 -24q19 0 48 2t69 6q42 5 73.5 7t55.5 2q54 0 99 -15.5t77.5 -43t50.5 -65.5t19 -83q0 -63 -26 -117.5t-72.5 -94t-111.5 -62t-142 -22.5q-83 0 -208 40t-295 119l73 185
l234 -101q50 -20 96 -30t90 -10q73 0 108.5 20.5t35.5 55.5q0 13 -9 22t-29 9q-9 0 -39 -3t-65.5 -7t-68.5 -7t-47 -3q-109 0 -181 54q-45 32 -67.5 74t-22.5 99q0 193 199 211h-421v235h1246v-235z" />
    <glyph glyph-name="glyph57" horiz-adv-x="1390" 
d="M762 936q0 87 50 149h-385q-63 -26 -93 -52.5t-30 -55.5q0 -31 25 -49t62 -18q23 0 120 52l93 -192q-93 -68 -184 -74q14 -31 42.5 -57t64 -45t74 -29.5t71.5 -10.5q46 0 91.5 11t86 31.5t74 49t56.5 64.5q-45 1 -85 20t-69.5 50.5t-46.5 72t-17 83.5zM1460 1085h-282
q62 -81 62 -199q0 -75 -21 -144.5t-58.5 -130t-90 -110t-115 -85t-134 -55t-147.5 -19.5q-58 0 -116 14t-111.5 40t-99.5 62.5t-80 82.5t-53.5 99.5t-18.5 122.5q-104 70 -104 201q0 37 6 65t23 56h-120v235h1460v-235zM1046 936q0 56 -56 56q-8 0 -17.5 -3.5t-17.5 -10.5
t-14 -17.5t-6 -24.5q0 -18 14.5 -37t40.5 -19t41 17.5t15 38.5z" />
    <glyph glyph-name="glyph58" 
d="M1246 1085h-392v-269h-394q-104 0 -104 -81q0 -40 48 -66q48 -24 115 -24q183 0 293 83l167 -156q-199 -157 -456 -157q-81 0 -154 25.5t-127.5 69t-87 102t-32.5 124.5q0 65 24 120.5t66 95.5t99 62.5t122 22.5h182v48h-615v235h1246v-235z" />
    <glyph glyph-name="glyph59" 
d="M1246 1085h-392v-82q146 -74 146 -252q0 -160 -149 -255q-124 -77 -279 -77q-90 0 -164.5 23t-127 65t-81.5 101t-29 131q0 70 30.5 127.5t87.5 98t139.5 62.5t187.5 22v36h-615v235h1246v-235zM763 736q0 39 -39 62t-105 23q-216 0 -216 -86q0 -45 44 -71
q46 -27 116 -27q39 0 75 6.5t64 19t44.5 31t16.5 42.5z" />
    <glyph glyph-name="glyph60" 
d="M1246 1085h-392v-196h-378q-40 0 -40 -22q0 -24 41 -24q19 0 48 2t69 6q42 5 73.5 7t55.5 2q54 0 99 -15.5t77.5 -43t50.5 -65.5t19 -83q0 -63 -26 -117.5t-72.5 -94t-111.5 -62t-142 -22.5q-83 0 -208 40t-295 119l68 190l239 -99q50 -20 96 -30t90 -10q144 0 144 69
q0 26 -38 26q-9 0 -39 -3t-65.5 -7t-68.5 -7t-47 -3q-109 0 -181 54q-90 64 -90 178q0 193 199 211h-421v235h1246v-235z" />
    <glyph glyph-name="glyph61" 
d="M1246 1085h-392v-267h-343q-79 0 -118.5 -19.5t-39.5 -77.5q0 -38 22 -61.5t54 -36.5t69 -18t67 -5q17 0 31 1t27 4v15q0 63 39 99.5t107 36.5q30 0 57 -8.5t47.5 -26t33 -43t12.5 -58.5q0 -54 -28.5 -98.5t-80.5 -76.5t-125 -50t-161 -18q-80 0 -153 27t-129 74
t-89.5 109.5t-33.5 133.5t27.5 130t76 101.5t114.5 66t142 23.5h136v43h-615v235h1246v-235z" />
    <glyph glyph-name="glyph62" horiz-adv-x="1602" 
d="M1672 1085h-763v-127q32 11 69.5 19.5t75.5 8.5q79 0 141.5 -17.5t106 -52t66.5 -86.5t23 -120q0 -50 -23.5 -95.5t-62 -82t-87 -60t-99.5 -27.5l-50 161q27 3 49.5 14t39.5 25.5t26.5 30.5t9.5 31q0 45 -36.5 70.5t-99.5 25.5q-47 0 -85 -15.5t-64 -41.5v-384h-254v162
q-26 -20 -47 -32t-53.5 -23.5t-62.5 -17.5t-64 -6q-71 0 -132 20.5t-106 58t-70.5 91.5t-25.5 120q0 57 25.5 105.5t70.5 84t105.5 55.5t131.5 20q51 0 108 -14.5t120 -56.5v156h-655v235h1672v-235zM634 731q-30 31 -60.5 50t-58.5 29t-50.5 13t-36.5 3q-24 0 -48.5 -9
t-45 -23t-33.5 -32.5t-13 -36.5q0 -24 12 -42.5t32.5 -31t46.5 -18.5t54 -6q23 0 51.5 6.5t57 19t53 32t39.5 46.5z" />
    <glyph glyph-name="glyph63" horiz-adv-x="1282" 
d="M1352 1085h-442v-870h-254v304q-98 -46 -191 -46q-72 0 -136 22t-111 59.5t-74.5 88.5t-27.5 109v333h-116v235h1352v-235zM656 1085h-286v-286q0 -72 97 -72q117 0 189 64v294z" />
    <glyph glyph-name="glyph79" horiz-adv-x="320" 
d="M390 1085h-260v-1085h-254v1085h-17v235h531v-235z" />
    <glyph glyph-name="uni0964" unicode="&#x964;" horiz-adv-x="854" 
d="M611 -98h-254v1464h254v-1464z" />
    <glyph glyph-name="uni0965" unicode="&#x965;" horiz-adv-x="1254" 
d="M987 -98h-254v1464h254v-1464zM619 -98h-254v1464h254v-1464z" />
    <glyph glyph-name="uni0966" unicode="&#x966;" horiz-adv-x="1068" 
d="M938 701q0 -80 -31 -151t-85 -124t-127 -84.5t-156 -31.5q-82 0 -154.5 31.5t-126.5 84.5t-85 124t-31 151q0 79 31 150t85 124.5t126 85t155 31.5t156 -31.5t127 -85.5t85 -125t31 -149zM683 702q0 29 -11 54.5t-30.5 45t-45.5 30.5t-56 11q-28 0 -54 -10.5t-45.5 -29.5
t-31.5 -44.5t-12 -56.5t11.5 -57.5t31.5 -45.5t45.5 -29.5t54.5 -10.5q30 0 56.5 11.5t45.5 31t30 45.5t11 55z" />
    <glyph glyph-name="uni0967" unicode="&#x967;" horiz-adv-x="1068" 
d="M822 999q0 -102 -87 -212q-6 -8 -42 -45.5t-102 -106.5q-64 -67 -64 -95q0 -26 89 -123q112 -121 112 -194q0 -119 -194 -280l-152 195q90 58 90 85q-2 14 -89 113q-57 63 -85 113t-28 91q0 42 20.5 89t65.5 107q-44 41 -73.5 74t-47 63t-24.5 60t-7 66q0 70 23.5 132
t65 108.5t98 73t122.5 26.5q69 0 125.5 -25.5t97.5 -71t63.5 -108t22.5 -135.5zM584 999q0 16 -4.5 33.5t-13.5 32t-21.5 23.5t-28.5 9q-15 0 -28 -8t-22.5 -21.5t-15.5 -31.5t-6 -37q0 -59 70 -119q36 30 53 59t17 60z" />
    <glyph glyph-name="uni0968" unicode="&#x968;" horiz-adv-x="1068" 
d="M942 883q0 -70 -23 -137.5t-63.5 -125t-96 -102.5t-121.5 -70l287 -340l-194 -164l-419 499q-51 18 -110 55.5t-124 94.5l198 167q92 -95 176 -95q50 0 93.5 17t75.5 46t50.5 69t18.5 86t-19 85.5t-51 69t-73.5 46t-87.5 16.5q-108 0 -238 -100l-160 184q220 155 398 155
q108 0 196.5 -33.5t152.5 -93.5t99 -144t35 -185z" />
    <glyph glyph-name="uni0969" unicode="&#x969;" horiz-adv-x="1068" 
d="M921 535q0 -165 -118 -255q-80 -60 -201 -77l111 -118l-195 -137l-437 487l197 140q107 -158 224 -158q165 0 165 118q0 63 -52 92.5t-136 29.5h-131v235q63 0 112.5 1t83 9t51.5 27t18 54q0 25 -9 46t-24 36t-35 23.5t-42 8.5q-77 0 -223 -98l-151 180q176 160 371 160
q81 0 148.5 -26.5t117 -73.5t77 -112t27.5 -142q0 -65 -23 -111t-70 -85q144 -94 144 -254z" />
    <glyph glyph-name="uni096A" unicode="&#x96a;" horiz-adv-x="1068" 
d="M959 1068q0 -65 -8.5 -126.5t-33.5 -121t-70.5 -117.5t-119.5 -115q71 -70 110 -144t39 -146t-28 -133.5t-76.5 -106.5t-114.5 -70t-142 -25t-141.5 25t-114 69.5t-76 106t-27.5 134.5q0 139 141 280q-73 58 -118 117.5t-70 121t-33.5 124.5t-8.5 127q0 132 103 290
l212 -143q-62 -85 -62 -139q0 -36 2 -72.5t19 -77t57 -87.5t117 -103q54 42 90.5 83t58.5 83t31.5 85.5t9.5 88.5q0 54 -62 139l213 143q103 -158 103 -290zM617 298q0 69 -102 151q-101 -81 -101 -151q0 -82 101 -82q102 0 102 82z" />
    <glyph glyph-name="uni096B" unicode="&#x96b;" horiz-adv-x="1068" 
d="M990 389q0 -217 -363 -446l-113 209q30 16 72 43t80.5 60t66 69t27.5 71q0 42 -11.5 84t-33.5 87q-38 -23 -68.5 -38.5t-61 -24.5t-65.5 -13t-83 -4q-74 0 -146 26.5t-129 79.5t-92 131t-35 182q0 129 74 237.5t226 214.5l79 -206q-46 -45 -74.5 -80t-44 -63.5t-21 -53.5
t-5.5 -51q0 -28 12.5 -59.5t35 -58.5t54 -45t69.5 -18q41 0 79.5 10t71.5 28q-74 92 -74 168q0 44 19 84.5t51 71t75 49t90 18.5q58 0 102.5 -20t74.5 -53t45 -75t15 -85q0 -57 -22.5 -111t-64.5 -103q27 -47 44 -82.5t26.5 -69.5t13.5 -72t4 -91zM781 919q0 25 -29 25
q-25 0 -25 -24q0 -21 26 -51q28 28 28 50z" />
    <glyph glyph-name="uni096C" unicode="&#x96c;" horiz-adv-x="1068" 
d="M968 39l-220 -90l-84 224q-35 -19 -76.5 -27.5t-91.5 -8.5q-85 0 -158.5 27t-128 75t-85.5 114.5t-31 145.5q0 68 26 123t84 106q-134 95 -134 245q0 72 29.5 138t80.5 117t118.5 81t142.5 30q169 0 374 -124l-131 -190q-75 35 -133 53.5t-98 18.5q-23 0 -45.5 -11.5
t-41 -30t-30 -41.5t-11.5 -46q0 -24 9.5 -42t26 -31t37.5 -19.5t44 -6.5h213v-235h-173q-58 0 -94.5 -37.5t-36.5 -98.5q0 -63 40 -94.5t104 -31.5q27 0 48 4.5t42 18.5l-33 81l222 90z" />
    <glyph glyph-name="uni096D" unicode="&#x96d;" horiz-adv-x="1068" 
d="M965 612q0 -142 -33.5 -255t-94 -192.5t-144.5 -122t-184 -42.5q-73 0 -134.5 14.5t-111.5 48t-88 88.5t-63.5 136t-38.5 191t-13 253v589h252v-566q0 -115 8 -197t21.5 -139t33 -91t42 -52t48 -24t51.5 -6q27 0 54.5 10t52.5 32.5t45.5 59t32.5 90.5q-13 -3 -26.5 -4
t-27.5 -1q-63 0 -114.5 24t-88 65.5t-56.5 97t-20 118.5q0 64 20.5 120.5t59 97.5t92.5 65t121 24q159 0 231.5 -108.5t72.5 -323.5zM712 737q0 32 -15 54.5t-41 22.5q-25 0 -38.5 -22t-13.5 -55q0 -34 12.5 -56t37.5 -22q26 0 42 23t16 55z" />
    <glyph glyph-name="uni096E" unicode="&#x96e;" horiz-adv-x="1068" 
d="M1003 1184l-603 -603q-18 -18 -38 -42t-33.5 -48t-19 -45.5t-5.5 -35.5q0 -33 19 -63.5t49 -53.5t67.5 -36.5t74.5 -13.5q98 0 177 149l227 -111q-155 -281 -402 -281q-98 0 -184 33t-150.5 90.5t-102.5 135t-38 166.5q0 164 147 313l630 629z" />
    <glyph glyph-name="uni096F" unicode="&#x96f;" horiz-adv-x="1068" 
d="M966 193q0 -183 -190 -288l-149 204q80 58 80 73q0 24 -79 81l-218 148q-94 69 -160.5 137.5t-109 136t-62.5 134.5t-20 132q0 149 100 262q110 126 287 126q74 0 140 -28t115.5 -76.5t78.5 -114t29 -139.5q0 -60 -20.5 -119t-56 -108.5t-84 -85t-105.5 -48.5
q19 -14 41 -28t47 -30q80 -50 135 -88.5t84 -64.5q117 -105 117 -216zM567 966q0 27 -10 51t-27.5 41t-40.5 27t-49 10q-27 0 -50 -10t-40 -27.5t-27 -41t-10 -50.5t10 -50t27 -40.5t40 -27.5t50 -10q26 0 49 10t40.5 27t27.5 40.5t10 50.5z" />
    <glyph glyph-name="uni0970" unicode="&#x970;" horiz-adv-x="640" 
d="M554 326q0 -44 -17 -83t-46 -69t-69 -47.5t-86 -17.5t-85.5 17t-69 46.5t-46.5 69t-17 84.5q0 44 17.5 83.5t47 69t69 46.5t84.5 17t85 -17.5t69.5 -47.5t46.5 -69t17 -82zM374 326q0 17 -11 28t-27 11t-27 -11t-11 -28t11 -28.5t27 -11.5t27 11.5t11 28.5z" />
    <glyph glyph-name="uni093D" unicode="&#x93d;" horiz-adv-x="982" 
d="M840 320q0 -74 -31.5 -138t-85.5 -110.5t-126.5 -73t-155.5 -26.5q-198 0 -405 169l107 193q176 -155 297 -155q37 0 70 9.5t57.5 26.5t38.5 40.5t14 51.5q0 72 -107 113l-248 100q-166 97 -166 280q0 71 26.5 128.5t74.5 98.5t114 63.5t145 22.5q192 0 335 -158
l-146 -140q-60 45 -107.5 68.5t-85.5 23.5q-28 0 -52.5 -6.5t-43 -19t-29 -32t-10.5 -45.5q0 -80 106 -124l252 -97q162 -89 162 -263z" />
    <glyph glyph-name="uni0950" unicode="&#x950;" horiz-adv-x="2030" 
d="M1670 1575q-28 -90 -74.5 -156t-106.5 -109t-132.5 -64t-153.5 -21q-79 0 -151 20t-132 62.5t-107 108.5t-76 159h221q35 -83 98.5 -117t146.5 -34q82 0 146 34t99 117h222zM1430 599l-26 -37q-60 -68 -152 -110t-208 -46q0 -88 -35.5 -162.5t-97.5 -128.5t-146.5 -84.5
t-182.5 -30.5q-331 0 -575 337l210 149q46 -66 91.5 -110.5t90.5 -71.5t90.5 -38.5t92.5 -11.5q43 0 81 11t65.5 31.5t43.5 51t16 69.5q0 42 -13 75t-37 56t-57.5 35t-73.5 12q-55 0 -164 -50v267q77 37 160 37q17 0 34 -1t37 -5q33 34 33 102q0 33 -12.5 60t-34 46
t-50.5 29.5t-62 10.5q-136 0 -229 -132l-215 133q151 252 445 252q85 0 161 -31.5t134 -86t92 -127t34 -154.5q0 -133 -72 -217q19 -16 33.5 -32.5t30.5 -38.5q64 -11 84 -11q109 0 165 115q27 66 57 135.5t57 135.5q90 161 278 161q81 0 144.5 -28.5t107 -81t66.5 -126
t23 -164.5q0 -83 -26 -153.5t-73 -122.5t-111.5 -81.5t-140.5 -29.5q-26 0 -43.5 1t-49.5 8v257q28 -11 48.5 -14.5t36.5 -3.5q51 0 79.5 41t28.5 104q0 28 -6.5 53.5t-18 44.5t-28 30t-37.5 11q-43 0 -79 -108q-13 -38 -25.5 -72t-22 -63.5t-46.5 -95.5zM1356 1637
l-156 -153l-158 153l158 158z" />
    <glyph glyph-name="glyph82" horiz-adv-x="1024" 
d="M92 0v1302h799v-1302h-799zM302 206h379v890h-379v-890z" />
    <glyph glyph-name="uni093C" unicode="&#x93c;" horiz-adv-x="0" 
d="M-864 -203l-156 -153l-158 153l158 158z" />
    <glyph glyph-name="uni094D" unicode="&#x94d;" horiz-adv-x="0" 
d="M-84 -361l-130 -173l-564 253l131 168z" />
    <glyph glyph-name="glyph83" horiz-adv-x="0" 
d="M74 417l-368 -351l-127 159l368 351z" />
    <glyph glyph-name="glyph84" horiz-adv-x="1024" 
d="M92 0v1302h799v-1302h-799zM302 206h379v890h-379v-890z" />
    <glyph glyph-name="glyph85" horiz-adv-x="1024" 
d="M92 0v1302h799v-1302h-799zM302 206h379v890h-379v-890z" />
    <glyph glyph-name="glyph86" horiz-adv-x="0" 
d="M-91 1841l-76 -76l-77 76l77 77zM-270 1820q9 -17 20.5 -35.5t25 -34.5t28.5 -26.5t30 -10.5q16 0 31 10.5t27.5 26.5t23.5 34.5t20 35.5h125q-28 -57 -47 -95t-30 -53q-63 -86 -150 -86q-96 0 -149 86q-11 15 -31 53t-47 95h123z" />
    <glyph glyph-name="glyph87" horiz-adv-x="0" 
d="M-46 1571l-115 -115l-116 115l116 115zM-407 1244l-86 173q-49 113 -49 207q0 136 89 228q88 92 227 92q18 0 47 -5.5t71 -18.5v-199q-59 41 -107 41q-61 0 -103 -42t-42 -105q0 -61 42 -151l71 -149z" />
    <glyph glyph-name="glyph88" horiz-adv-x="0" 
d="M12 340l-505 -385l-132 167l506 383z" />
    <glyph glyph-name="glyph89" horiz-adv-x="0" 
d="M-201 100l-505 -385l-132 167l506 383z" />
    <glyph glyph-name="glyph90" horiz-adv-x="0" 
d="M-149 -299l-123 -150l-312 193l-312 -193l-121 150l433 259z" />
    <glyph glyph-name="glyph91" horiz-adv-x="0" 
d="M-410 1250l-84 173q-51 112 -51 202q0 135 90 228q89 92 227 92q17 0 45.5 -5.5t70.5 -17.5v-200q-59 41 -104 41q-63 0 -105 -42t-42 -105q0 -61 42 -150q16 -32 36 -73t37 -78z" />
    <glyph glyph-name="glyph110" horiz-adv-x="0" 
d="M-362 1126q-81 42 -144 86t-108 90q-130 136 -130 281q0 144 94 231q95 87 244 87q27 0 56 -4.5t59 -12.5v-205q-69 34 -109 34q-138 0 -138 -136q0 -118 260 -262z" />
    <glyph glyph-name="uni0905" unicode="&#x905;" horiz-adv-x="1602" 
d="M1672 1085h-335v-1085h-253v560h-262q33 -42 49 -95t16 -104q0 -85 -32.5 -158t-89.5 -126t-134.5 -83.5t-167.5 -30.5q-77 0 -147.5 19t-132.5 58t-115 99t-94 141l206 100q123 -184 281 -184q34 0 66.5 13t58 34.5t41 50.5t15.5 62q0 51 -17 91t-48.5 67t-75.5 41
t-98 14q-19 0 -49 -3.5t-75 -11.5v248q32 -5 49.5 -7t35.5 -2q46 0 88 13.5t74 37.5t51 58t19 76q0 31 -11.5 57.5t-31 46.5t-44.5 31.5t-53 11.5q-49 0 -112 -18.5t-141 -56.5l-69 212q187 96 327 96q163 0 271 -100q116 -105 116 -265q0 -109 -65 -198h301v290h-163v235
h751v-235z" />
    <glyph glyph-name="uni0906" unicode="&#x906;" horiz-adv-x="2148" 
d="M2218 1085h-328v-1085h-253v1085h-289v-1085h-254v560h-261q33 -42 49 -95t16 -104q0 -85 -32.5 -158t-89.5 -126t-134.5 -83.5t-167.5 -30.5q-77 0 -147.5 19t-132.5 58t-115 99t-94 141l206 100q123 -184 281 -184q34 0 66.5 13t58 34.5t41 50.5t15.5 62q0 51 -17 91
t-48.5 67t-75.5 41t-98 14q-19 0 -49 -3.5t-75 -11.5v248q30 -5 50 -7t35 -2q46 0 88 13.5t74 37.5t51 58t19 76q0 31 -11.5 57.5t-31 46.5t-44.5 31.5t-53 11.5q-49 0 -112 -18.5t-141 -56.5l-69 212q187 96 327 96q163 0 271 -100q116 -105 116 -265q0 -109 -65 -198h300
v290h-162v235h1286v-235z" />
    <glyph glyph-name="uni0907" unicode="&#x907;" horiz-adv-x="1122" 
d="M1192 1085h-314v-324h-536q-20 0 -32.5 -15t-12.5 -37q0 -27 20 -43t51 -16q21 0 60.5 5t81 10.5t77.5 10.5t50 5q82 0 149.5 -23t116 -64t75 -98.5t26.5 -127.5q0 -74 -29.5 -140t-82.5 -117.5t-128.5 -85.5t-166.5 -44l175 -251l-220 -134l-254 405q-61 14 -131 59.5
t-137 135.5l187 171q30 -46 62 -76t66 -47q69 -33 127 -33q279 0 279 153q0 34 -27 56q-28 24 -69 24q-11 0 -30.5 -2.5t-43.5 -5.5t-50 -7.5t-50 -7.5l-44 -5.5t-31 -2.5q-81 0 -146.5 21t-111.5 60t-70.5 93.5t-24.5 121.5q0 64 20.5 116.5t58.5 90t90.5 58t117.5 20.5
h285v91h-625v235h1192v-235z" />
    <glyph glyph-name="uni0908" unicode="&#x908;" horiz-adv-x="1122" 
d="M1192 1085h-314v-324h-536q-20 0 -32.5 -15.5t-12.5 -36.5q0 -28 18.5 -43.5t52.5 -15.5q18 0 56 5t79.5 10.5t78.5 10.5t55 5q82 0 149.5 -24t116.5 -66t76 -99.5t27 -125.5q0 -73 -30 -138t-84 -116.5t-129 -86t-165 -45.5l174 -250l-220 -134l-254 405
q-63 14 -132.5 61t-135.5 134l187 171q30 -46 62 -76t66 -47q69 -33 127 -33q279 0 279 153q0 34 -27 56q-28 24 -69 24q-18 0 -52.5 -5t-72 -10.5t-72 -10.5t-52.5 -5q-82 0 -147.5 21.5t-111 60.5t-70 93.5t-24.5 120.5q0 63 21 115.5t58.5 90t90.5 58.5t117 21h285v91
h-625v235h442q-48 55 -73.5 107t-25.5 117q0 67 26.5 124.5t73 99.5t109.5 66t136 24q25 0 57.5 -5.5t72.5 -16.5v-240q-83 44 -124 44q-115 0 -115 -103q0 -27 17.5 -52.5t47.5 -53.5t69 -57t82 -54h397v-235z" />
    <glyph glyph-name="uni0909" unicode="&#x909;" horiz-adv-x="1174" 
d="M1244 1085h-392q10 -23 15 -57.5t5 -61.5q0 -52 -14.5 -88.5t-43.5 -68.5q39 -22 77 -56t68 -80t48.5 -104.5t18.5 -130.5q0 -105 -41.5 -192.5t-113.5 -150.5t-170 -97.5t-212 -34.5q-271 0 -472 225l198 177q123 -147 266 -147q63 0 116 14t91.5 40.5t60.5 64t22 84.5
q0 44 -15.5 80.5t-42 63t-62.5 41t-77 14.5q-77 0 -110 -6q-15 -2 -49.5 -14t-93.5 -36l-90 214q52 26 128 50.5t167 34.5q33 9 51 20t26.5 24.5t10.5 29t2 34.5q0 50 -30.5 82t-97.5 32h-488v235h1244v-235z" />
    <glyph glyph-name="uni090A" unicode="&#x90a;" horiz-adv-x="1496" 
d="M1566 1085h-710q8 -21 12 -55t4 -64q0 -84 -46 -140q38 18 81 28.5t87 10.5q78 0 142 -24t109.5 -71.5t71 -117.5t25.5 -162q0 -117 -46 -262h-241q21 68 37 137t16 125q0 43 -11 72t-26.5 45.5t-32 23.5t-28.5 7q-15 0 -30 -2q21 -42 34 -90.5t13 -107.5
q0 -105 -41.5 -192.5t-114 -150.5t-170.5 -97.5t-211 -34.5q-272 0 -473 225l199 177q123 -147 265 -147q63 0 116 14t92 40.5t60.5 64t21.5 84.5q0 44 -15.5 80.5t-42 63t-62.5 41t-77 14.5q-37 0 -65 -1.5t-45 -4.5q-14 -2 -48.5 -14t-94.5 -36l-90 214q54 26 129.5 50.5
t165.5 34.5q15 6 31.5 14t29.5 20t21.5 30t8.5 44q0 56 -32.5 85t-95.5 29h-489v235h1566v-235z" />
    <glyph glyph-name="uni090B" unicode="&#x90b;" horiz-adv-x="1816" 
d="M1886 1085h-927v-390q13 -4 34 -4q60 0 111 39q-5 16 -7 30.5t-2 30.5q0 39 13 71t36.5 55t56 35.5t71.5 12.5q35 0 66 -13t54.5 -36t37 -53.5t13.5 -64.5q0 -30 -10 -56.5t-27 -48.5l148 -329q-167 -69 -209 -105q-69 -56 -69 -139q0 -33 12.5 -63.5t34 -54t49.5 -37.5
t59 -14q122 0 253 142l80 -204q-149 -146 -336 -146q-86 0 -157 29.5t-121.5 82t-78.5 124t-28 154.5q0 49 13.5 96t38.5 90t59 79t76 63l-38 77q-104 -71 -187 -71q-25 0 -46 3v-470h-254v378l-453 -206l-102 232l486 221q-32 36 -57.5 60t-47.5 38t-42.5 20t-41.5 6
q-80 0 -207 -141l-100 226q174 154 301 154q140 0 264 -124v221h-705v235h1886v-235z" />
    <glyph glyph-name="uni090C" unicode="&#x90c;" horiz-adv-x="1496" 
d="M1566 1085h-508v-182q63 -8 119 -38.5t97.5 -76.5t65.5 -102t24 -115q0 -145 -93 -246q-17 -17 -159 -126q-63 -50 -63 -95q0 -25 8 -47t21.5 -38t31 -25.5t37.5 -9.5q60 0 120 111l193 -118q-127 -220 -342 -220q-66 0 -123.5 28t-100 75.5t-67 110t-24.5 130.5
q0 114 90 213l155 134q31 29 47.5 54t16.5 45q0 23 -10 42.5t-26.5 33t-37 21t-41.5 7.5q-130 0 -243 -198l-60 -107l-195 172q20 31 39 62.5t40 61.5q-21 14 -51 22t-66 8q-145 0 -145 -140q0 -146 315 -319l-106 -226q-98 40 -183 104t-148 139.5t-99.5 155t-36.5 150.5
q0 80 29 147.5t82.5 116.5t128 76.5t165.5 27.5q83 0 150.5 -19t119.5 -56q17 14 34.5 24t36.5 19v213h-804v235h1566v-235z" />
    <glyph glyph-name="uni090D" unicode="&#x90d;" horiz-adv-x="1228" 
d="M1298 1085h-297v-486q0 -113 -256 -190l-130 229q132 22 132 47v400h-326v-555l591 -423l-195 -156l-650 463v671h-167v235h1298v-235zM1139 1945q0 -220 -110 -343q-116 -128 -310 -128t-310 128q-112 124 -112 343h186q0 -146 61 -219q63 -74 174 -74q112 0 175 74
q61 73 61 219h185z" />
    <glyph glyph-name="uni090E" unicode="&#x90e;" horiz-adv-x="1228" 
d="M1298 1085h-297v-486q0 -113 -256 -190l-130 229q132 22 132 47v400h-326v-555l591 -423l-195 -156l-650 463v671h-167v235h775v23q0 71 -101 71h-118q-180 0 -252 51q-102 66 -163 319h249q24 -91 35 -112q15 -23 42 -23h102q123 0 208.5 -18t139 -54t77 -91t23.5 -120
v-23.5t-1 -22.5h282v-235z" />
    <glyph glyph-name="uni090F" unicode="&#x90f;" horiz-adv-x="1228" 
d="M1298 1085h-297v-486q0 -113 -256 -190l-130 229q132 22 132 47v400h-326v-555l591 -423l-195 -156l-650 463v671h-167v235h1298v-235z" />
    <glyph glyph-name="uni0910" unicode="&#x910;" horiz-adv-x="1228" 
d="M1298 1085h-297v-486q0 -113 -256 -190l-130 229q132 22 132 47v400h-326v-555l591 -423l-195 -156l-650 463v671h-167v235h634l-338 356l175 175l482 -531h345v-235z" />
    <glyph glyph-name="uni0911" unicode="&#x911;" horiz-adv-x="2148" 
d="M2218 1085h-328v-1085h-253v1085h-289v-1085h-254v560h-261q33 -42 49 -95t16 -104q0 -85 -32.5 -158t-89.5 -126t-134.5 -83.5t-167.5 -30.5q-77 0 -147.5 19t-132.5 58t-115 99t-94 141l206 100q123 -184 281 -184q34 0 66.5 13t58 34.5t41 50.5t15.5 62q0 51 -17 91
t-48.5 67t-75.5 41t-98 14q-19 0 -49 -3.5t-75 -11.5v248q30 -5 50 -7t35 -2q46 0 88 13.5t74 37.5t51 58t19 76q0 31 -11.5 57.5t-31 46.5t-44.5 31.5t-53 11.5q-49 0 -112 -18.5t-141 -56.5l-69 212q187 96 327 96q163 0 271 -100q116 -105 116 -265q0 -109 -65 -198h300
v290h-162v235h1286v-235zM1989 1945q0 -220 -110 -343q-116 -128 -310 -128t-310 128q-112 124 -112 343h186q0 -146 61 -219q63 -74 174 -74q112 0 175 74q61 73 61 219h185z" />
    <glyph glyph-name="uni0912" unicode="&#x912;" horiz-adv-x="2148" 
d="M2218 1085h-328v-1085h-253v1085h-289v-1085h-254v560h-261q33 -42 49 -95t16 -104q0 -85 -32.5 -158t-89.5 -126t-134.5 -83.5t-167.5 -30.5q-77 0 -147.5 19t-132.5 58t-115 99t-94 141l206 100q123 -184 281 -184q34 0 66.5 13t58 34.5t41 50.5t15.5 62q0 51 -17 91
t-48.5 67t-75.5 41t-98 14q-19 0 -49 -3.5t-75 -11.5v248q30 -5 50 -7t35 -2q46 0 88 13.5t74 37.5t51 58t19 76q0 31 -11.5 57.5t-31 46.5t-44.5 31.5t-53 11.5q-49 0 -112 -18.5t-141 -56.5l-69 212q187 96 327 96q163 0 271 -100q116 -105 116 -265q0 -109 -65 -198h300
v290h-162v235h1286v-235zM1923 1411q0 -42 -10 -90t-28 -105h-211q19 61 27.5 103.5t8.5 68.5q0 102 -123 102q-91 0 -153.5 6t-104.5 15.5t-67.5 22t-43.5 24.5q-24 16 -46.5 40t-42.5 57.5t-37.5 77.5t-31.5 102h218q5 -20 14 -44.5t27.5 -47t50.5 -39.5t83 -22
q49 -5 96 -5.5t88.5 -2t75.5 -5.5t57 -14q153 -66 153 -244z" />
    <glyph glyph-name="uni0913" unicode="&#x913;" horiz-adv-x="2148" 
d="M2218 1085h-328v-1085h-253v1085h-289v-1085h-254v560h-261q33 -42 49 -95t16 -104q0 -85 -32.5 -158t-89.5 -126t-134.5 -83.5t-167.5 -30.5q-77 0 -147.5 19t-132.5 58t-115 99t-94 141l206 100q123 -184 281 -184q34 0 66.5 13t58 34.5t41 50.5t15.5 62q0 51 -17 91
t-48.5 67t-75.5 41t-98 14q-19 0 -49 -3.5t-75 -11.5v248q30 -5 50 -7t35 -2q46 0 88 13.5t74 37.5t51 58t19 76q0 31 -11.5 57.5t-31 46.5t-44.5 31.5t-53 11.5q-49 0 -112 -18.5t-141 -56.5l-69 212q187 96 327 96q163 0 271 -100q116 -105 116 -265q0 -109 -65 -198h300
v290h-162v235h1286v-235zM1966 1315l-140 -120l-550 477l163 163z" />
    <glyph glyph-name="uni0914" unicode="&#x914;" horiz-adv-x="2148" 
d="M2218 1085h-328v-1085h-253v1085h-289v-1085h-254v560h-261q33 -42 49 -95t16 -104q0 -85 -32.5 -158t-89.5 -126t-134.5 -83.5t-167.5 -30.5q-77 0 -147.5 19t-132.5 58t-115 99t-94 141l206 100q123 -184 281 -184q34 0 66.5 13t58 34.5t41 50.5t15.5 62q0 51 -17 91
t-48.5 67t-75.5 41t-98 14q-19 0 -49 -3.5t-75 -11.5v248q30 -5 50 -7t35 -2q46 0 88 13.5t74 37.5t51 58t19 76q0 31 -11.5 57.5t-31 46.5t-44.5 31.5t-53 11.5q-49 0 -112 -18.5t-141 -56.5l-69 212q187 96 327 96q163 0 271 -100q116 -105 116 -265q0 -109 -65 -198h300
v290h-162v235h1286v-235zM1972 1315l-192 -80l-286 632l209 85zM1743 1312l-130 -130l-550 477l163 163z" />
    <glyph glyph-name="uni0960" unicode="&#x960;" horiz-adv-x="1816" 
d="M1886 1085h-927v-378q48 -14 76 -14q43 0 63 12q-4 17 -4 38q0 37 13.5 70t37 57.5t55.5 38.5t69 14q71 0 118 -51q49 -50 49 -115q0 -38 -6.5 -62.5t-29.5 -48.5l105 -219l-165 -78q-42 -20 -41 -59q0 -13 5.5 -24.5t14 -20t19.5 -13.5t22 -5q39 0 108 90l93 -206
q-33 -38 -74.5 -59.5t-87.5 -25.5q-5 -14 -5 -38q0 -20 12 -32t30 -12q55 0 158 85l84 -195q-125 -102 -241 -102q-50 0 -96.5 20t-82.5 55t-57.5 81.5t-21.5 100.5q0 23 3.5 45.5t11.5 42.5q-26 18 -45.5 42t-33 52t-20.5 58t-7 59q0 66 28.5 120.5t77.5 88.5l-10 21
q-39 -22 -81 -31.5t-92 -9.5q-12 0 -25 1t-27 3v-481h-254v383l-453 -206l-102 231l484 221q-28 27 -51.5 45.5t-44.5 30t-41.5 16.5t-41.5 5q-18 0 -38 -3.5t-43.5 -20t-52 -49.5t-63.5 -91l-114 259q147 162 302 162q102 0 200 -75q18 -16 29.5 -27t29.5 -29v233h-705v235
h1886v-235z" />
    <glyph glyph-name="uni0961" unicode="&#x961;" horiz-adv-x="1496" 
d="M1566 1085h-508v-127q69 -8 125 -34.5t96 -68.5t61.5 -99t21.5 -127q0 -54 -23 -107t-68 -101q-14 -14 -51 -47t-98 -84t-61 -73q0 -17 5.5 -32.5t15.5 -28t23 -20t28 -7.5q24 0 111 63l121 -183q-88 -51 -136 -79.5t-58 -36.5q-32 -24 -49 -48.5t-17 -47.5q0 -82 80 -82
q82 0 123 90l169 -120q-24 -55 -56.5 -92.5t-70.5 -61t-81 -34t-88 -10.5q-68 0 -126.5 22.5t-102 63t-68.5 96t-25 121.5q0 60 16.5 108t54.5 89q-60 44 -88.5 106t-28.5 146q0 49 21 96t64 91l146 124q60 51 60 79q0 13 -8.5 28t-21.5 27.5t-28 20.5t-27 8
q-107 0 -318 -323l-190 190l68 101q-42 32 -97 32q-61 0 -102 -43q-40 -43 -40 -109q0 -94 65 -181.5t207 -165.5l-107 -230q-222 121 -322.5 269t-100.5 321q0 75 29 145t77 124t110.5 86.5t128.5 32.5q111 0 192 -41q33 -17 59.5 -32.5t54.5 -36.5l71 57v176h-804v235
h1566v-235z" />
    <glyph glyph-name="glyph111" horiz-adv-x="1816" 
d="M1886 1085h-927v-390q13 -4 34 -4q60 0 111 39q-5 16 -7 30.5t-2 30.5q0 39 13 71t36.5 55t56 35.5t71.5 12.5q35 0 66 -13t54.5 -36t37 -53.5t13.5 -64.5q0 -30 -10 -56.5t-27 -48.5l148 -329q-167 -69 -209 -105q-69 -56 -69 -139q0 -33 12.5 -63.5t34 -54t49.5 -37.5
t59 -14q122 0 253 142l80 -204q-149 -146 -336 -146q-86 0 -157 29.5t-121.5 82t-78.5 124t-28 154.5q0 49 13.5 96t38.5 90t59 79t76 63l-38 77q-104 -71 -187 -71q-25 0 -46 3v-470h-254v378l-453 -206l-102 232l486 221q-32 36 -57.5 60t-47.5 38t-42.5 20t-41.5 6
q-80 0 -207 -141l-100 226q174 154 301 154q140 0 264 -124v221h-705v235h1886v-235zM935 1126q-81 42 -144 86t-108 90q-130 136 -130 281q0 144 94 231q95 87 244 87q27 0 56 -4.5t59 -12.5v-205q-69 34 -109 34q-138 0 -138 -136q0 -118 260 -262z" />
    <glyph glyph-name="glyph112" horiz-adv-x="1816" 
d="M1886 1085h-927v-378q48 -14 76 -14q43 0 63 12q-4 17 -4 38q0 37 13.5 70t37 57.5t55.5 38.5t69 14q71 0 118 -51q49 -50 49 -115q0 -38 -6.5 -62.5t-29.5 -48.5l105 -219l-165 -78q-42 -20 -41 -59q0 -13 5.5 -24.5t14 -20t19.5 -13.5t22 -5q39 0 108 90l93 -206
q-33 -38 -74.5 -59.5t-87.5 -25.5q-5 -14 -5 -38q0 -20 12 -32t30 -12q55 0 158 85l84 -195q-125 -102 -241 -102q-50 0 -96.5 20t-82.5 55t-57.5 81.5t-21.5 100.5q0 23 3.5 45.5t11.5 42.5q-26 18 -45.5 42t-33 52t-20.5 58t-7 59q0 66 28.5 120.5t77.5 88.5l-10 21
q-39 -22 -81 -31.5t-92 -9.5q-12 0 -25 1t-27 3v-481h-254v383l-453 -206l-102 231l484 221q-28 27 -51.5 45.5t-44.5 30t-41.5 16.5t-41.5 5q-18 0 -38 -3.5t-43.5 -20t-52 -49.5t-63.5 -91l-114 259q147 162 302 162q102 0 200 -75q18 -16 29.5 -27t29.5 -29v233h-705v235
h1886v-235zM935 1126q-81 42 -144 86t-108 90q-130 136 -130 281q0 144 94 231q95 87 244 87q27 0 56 -4.5t59 -12.5v-205q-69 34 -109 34q-138 0 -138 -136q0 -118 260 -262z" />
    <glyph glyph-name="glyph113" horiz-adv-x="1602" 
d="M1672 1085h-335v-1085h-253v560h-262q33 -42 49 -95t16 -104q0 -85 -32.5 -158t-89.5 -126t-134.5 -83.5t-167.5 -30.5q-77 0 -147.5 19t-132.5 58t-115 99t-94 141l206 100q123 -184 281 -184q34 0 66.5 13t58 34.5t41 50.5t15.5 62q0 51 -17 91t-48.5 67t-75.5 41
t-98 14q-19 0 -49 -3.5t-75 -11.5v248q32 -5 49.5 -7t35.5 -2q46 0 88 13.5t74 37.5t51 58t19 76q0 31 -11.5 57.5t-31 46.5t-44.5 31.5t-53 11.5q-49 0 -112 -18.5t-141 -56.5l-69 212q187 96 327 96q163 0 271 -100q116 -105 116 -265q0 -109 -65 -198h301v290h-163v235
h751v-235zM624 -286l-156 -153l-158 153l158 158z" />
    <glyph glyph-name="glyph114" horiz-adv-x="2148" 
d="M2218 1085h-328v-1085h-253v1085h-289v-1085h-254v560h-261q33 -42 49 -95t16 -104q0 -85 -32.5 -158t-89.5 -126t-134.5 -83.5t-167.5 -30.5q-77 0 -147.5 19t-132.5 58t-115 99t-94 141l206 100q123 -184 281 -184q34 0 66.5 13t58 34.5t41 50.5t15.5 62q0 51 -17 91
t-48.5 67t-75.5 41t-98 14q-19 0 -49 -3.5t-75 -11.5v248q30 -5 50 -7t35 -2q46 0 88 13.5t74 37.5t51 58t19 76q0 31 -11.5 57.5t-31 46.5t-44.5 31.5t-53 11.5q-49 0 -112 -18.5t-141 -56.5l-69 212q187 96 327 96q163 0 271 -100q116 -105 116 -265q0 -109 -65 -198h300
v290h-162v235h1286v-235zM624 -286l-156 -153l-158 153l158 158z" />
    <glyph glyph-name="glyph115" horiz-adv-x="1122" 
d="M1192 1085h-314v-324h-536q-20 0 -32.5 -15t-12.5 -37q0 -27 20 -43t51 -16q21 0 60.5 5t81 10.5t77.5 10.5t50 5q82 0 149.5 -23t116 -64t75 -98.5t26.5 -127.5q0 -74 -29.5 -140t-82.5 -117.5t-128.5 -85.5t-166.5 -44l175 -251l-220 -134l-254 405q-61 14 -131 59.5
t-137 135.5l187 171q30 -46 62 -76t66 -47q69 -33 127 -33q279 0 279 153q0 34 -27 56q-28 24 -69 24q-11 0 -30.5 -2.5t-43.5 -5.5t-50 -7.5t-50 -7.5l-44 -5.5t-31 -2.5q-81 0 -146.5 21t-111.5 60t-70.5 93.5t-24.5 121.5q0 64 20.5 116.5t58.5 90t90.5 58t117.5 20.5
h285v91h-625v235h1192v-235zM324 -286l-156 -153l-158 153l158 158z" />
    <glyph glyph-name="glyph116" horiz-adv-x="1122" 
d="M1192 1085h-314v-324h-536q-20 0 -32.5 -15.5t-12.5 -36.5q0 -28 18.5 -43.5t52.5 -15.5q18 0 56 5t79.5 10.5t78.5 10.5t55 5q82 0 149.5 -24t116.5 -66t76 -99.5t27 -125.5q0 -73 -30 -138t-84 -116.5t-129 -86t-165 -45.5l174 -250l-220 -134l-254 405
q-63 14 -132.5 61t-135.5 134l187 171q30 -46 62 -76t66 -47q69 -33 127 -33q279 0 279 153q0 34 -27 56q-28 24 -69 24q-18 0 -52.5 -5t-72 -10.5t-72 -10.5t-52.5 -5q-82 0 -147.5 21.5t-111 60.5t-70 93.5t-24.5 120.5q0 63 21 115.5t58.5 90t90.5 58.5t117 21h285v91
h-625v235h442q-48 55 -73.5 107t-25.5 117q0 67 26.5 124.5t73 99.5t109.5 66t136 24q25 0 57.5 -5.5t72.5 -16.5v-240q-83 44 -124 44q-115 0 -115 -103q0 -27 17.5 -52.5t47.5 -53.5t69 -57t82 -54h397v-235zM324 -286l-156 -153l-158 153l158 158z" />
    <glyph glyph-name="glyph117" horiz-adv-x="1174" 
d="M1244 1085h-392q10 -23 15 -57.5t5 -61.5q0 -52 -14.5 -88.5t-43.5 -68.5q39 -22 77 -56t68 -80t48.5 -104.5t18.5 -130.5q0 -105 -41.5 -192.5t-113.5 -150.5t-170 -97.5t-212 -34.5q-271 0 -472 225l198 177q123 -147 266 -147q63 0 116 14t91.5 40.5t60.5 64t22 84.5
q0 44 -15.5 80.5t-42 63t-62.5 41t-77 14.5q-77 0 -110 -6q-15 -2 -49.5 -14t-93.5 -36l-90 214q52 26 128 50.5t167 34.5q33 9 51 20t26.5 24.5t10.5 29t2 34.5q0 50 -30.5 82t-97.5 32h-488v235h1244v-235zM636 -286l-156 -153l-158 153l158 158z" />
    <glyph glyph-name="glyph118" horiz-adv-x="1496" 
d="M1566 1085h-710q8 -21 12 -55t4 -64q0 -84 -46 -140q38 18 81 28.5t87 10.5q78 0 142 -24t109.5 -71.5t71 -117.5t25.5 -162q0 -117 -46 -262h-241q21 68 37 137t16 125q0 43 -11 72t-26.5 45.5t-32 23.5t-28.5 7q-15 0 -30 -2q21 -42 34 -90.5t13 -107.5
q0 -105 -41.5 -192.5t-114 -150.5t-170.5 -97.5t-211 -34.5q-272 0 -473 225l199 177q123 -147 265 -147q63 0 116 14t92 40.5t60.5 64t21.5 84.5q0 44 -15.5 80.5t-42 63t-62.5 41t-77 14.5q-37 0 -65 -1.5t-45 -4.5q-14 -2 -48.5 -14t-94.5 -36l-90 214q54 26 129.5 50.5
t165.5 34.5q15 6 31.5 14t29.5 20t21.5 30t8.5 44q0 56 -32.5 85t-95.5 29h-489v235h1566v-235zM636 -286l-156 -153l-158 153l158 158z" />
    <glyph glyph-name="glyph119" horiz-adv-x="1228" 
d="M1298 1085h-297v-486q0 -113 -256 -190l-130 229q132 22 132 47v400h-326v-555l591 -423l-195 -156l-650 463v671h-167v235h1298v-235zM1139 1945q0 -220 -110 -343q-116 -128 -310 -128t-310 128q-112 124 -112 343h186q0 -146 61 -219q63 -74 174 -74q112 0 175 74
q61 73 61 219h185zM436 -246l-156 -153l-158 153l158 158z" />
    <glyph glyph-name="glyph120" horiz-adv-x="1228" 
d="M1298 1085h-297v-486q0 -113 -256 -190l-130 229q132 22 132 47v400h-326v-555l591 -423l-195 -156l-650 463v671h-167v235h775v23q0 71 -101 71h-118q-180 0 -252 51q-102 66 -163 319h249q24 -91 35 -112q15 -23 42 -23h102q123 0 208.5 -18t139 -54t77 -91t23.5 -120
v-23.5t-1 -22.5h282v-235zM436 -246l-156 -153l-158 153l158 158z" />
    <glyph glyph-name="glyph121" horiz-adv-x="1228" 
d="M1298 1085h-297v-486q0 -113 -256 -190l-130 229q132 22 132 47v400h-326v-555l591 -423l-195 -156l-650 463v671h-167v235h1298v-235zM436 -246l-156 -153l-158 153l158 158z" />
    <glyph glyph-name="glyph122" horiz-adv-x="1228" 
d="M1298 1085h-297v-486q0 -113 -256 -190l-130 229q132 22 132 47v400h-326v-555l591 -423l-195 -156l-650 463v671h-167v235h634l-338 356l175 175l482 -531h345v-235zM436 -246l-156 -153l-158 153l158 158z" />
    <glyph glyph-name="glyph123" horiz-adv-x="2148" 
d="M2218 1085h-328v-1085h-253v1085h-289v-1085h-254v560h-261q33 -42 49 -95t16 -104q0 -85 -32.5 -158t-89.5 -126t-134.5 -83.5t-167.5 -30.5q-77 0 -147.5 19t-132.5 58t-115 99t-94 141l206 100q123 -184 281 -184q34 0 66.5 13t58 34.5t41 50.5t15.5 62q0 51 -17 91
t-48.5 67t-75.5 41t-98 14q-19 0 -49 -3.5t-75 -11.5v248q30 -5 50 -7t35 -2q46 0 88 13.5t74 37.5t51 58t19 76q0 31 -11.5 57.5t-31 46.5t-44.5 31.5t-53 11.5q-49 0 -112 -18.5t-141 -56.5l-69 212q187 96 327 96q163 0 271 -100q116 -105 116 -265q0 -109 -65 -198h300
v290h-162v235h1286v-235zM1989 1945q0 -220 -110 -343q-116 -128 -310 -128t-310 128q-112 124 -112 343h186q0 -146 61 -219q63 -74 174 -74q112 0 175 74q61 73 61 219h185zM624 -286l-156 -153l-158 153l158 158z" />
    <glyph glyph-name="glyph124" horiz-adv-x="2148" 
d="M2218 1085h-328v-1085h-253v1085h-289v-1085h-254v560h-261q33 -42 49 -95t16 -104q0 -85 -32.5 -158t-89.5 -126t-134.5 -83.5t-167.5 -30.5q-77 0 -147.5 19t-132.5 58t-115 99t-94 141l206 100q123 -184 281 -184q34 0 66.5 13t58 34.5t41 50.5t15.5 62q0 51 -17 91
t-48.5 67t-75.5 41t-98 14q-19 0 -49 -3.5t-75 -11.5v248q30 -5 50 -7t35 -2q46 0 88 13.5t74 37.5t51 58t19 76q0 31 -11.5 57.5t-31 46.5t-44.5 31.5t-53 11.5q-49 0 -112 -18.5t-141 -56.5l-69 212q187 96 327 96q163 0 271 -100q116 -105 116 -265q0 -109 -65 -198h300
v290h-162v235h1286v-235zM1923 1411q0 -42 -10 -90t-28 -105h-211q19 61 27.5 103.5t8.5 68.5q0 102 -123 102q-91 0 -153.5 6t-104.5 15.5t-67.5 22t-43.5 24.5q-24 16 -46.5 40t-42.5 57.5t-37.5 77.5t-31.5 102h218q5 -20 14 -44.5t27.5 -47t50.5 -39.5t83 -22
q49 -5 96 -5.5t88.5 -2t75.5 -5.5t57 -14q153 -66 153 -244zM624 -286l-156 -153l-158 153l158 158z" />
    <glyph glyph-name="glyph125" horiz-adv-x="2148" 
d="M2218 1085h-328v-1085h-253v1085h-289v-1085h-254v560h-261q33 -42 49 -95t16 -104q0 -85 -32.5 -158t-89.5 -126t-134.5 -83.5t-167.5 -30.5q-77 0 -147.5 19t-132.5 58t-115 99t-94 141l206 100q123 -184 281 -184q34 0 66.5 13t58 34.5t41 50.5t15.5 62q0 51 -17 91
t-48.5 67t-75.5 41t-98 14q-19 0 -49 -3.5t-75 -11.5v248q30 -5 50 -7t35 -2q46 0 88 13.5t74 37.5t51 58t19 76q0 31 -11.5 57.5t-31 46.5t-44.5 31.5t-53 11.5q-49 0 -112 -18.5t-141 -56.5l-69 212q187 96 327 96q163 0 271 -100q116 -105 116 -265q0 -109 -65 -198h300
v290h-162v235h1286v-235zM1966 1315l-140 -120l-550 477l163 163zM624 -286l-156 -153l-158 153l158 158z" />
    <glyph glyph-name="glyph126" horiz-adv-x="2148" 
d="M2218 1085h-328v-1085h-253v1085h-289v-1085h-254v560h-261q33 -42 49 -95t16 -104q0 -85 -32.5 -158t-89.5 -126t-134.5 -83.5t-167.5 -30.5q-77 0 -147.5 19t-132.5 58t-115 99t-94 141l206 100q123 -184 281 -184q34 0 66.5 13t58 34.5t41 50.5t15.5 62q0 51 -17 91
t-48.5 67t-75.5 41t-98 14q-19 0 -49 -3.5t-75 -11.5v248q30 -5 50 -7t35 -2q46 0 88 13.5t74 37.5t51 58t19 76q0 31 -11.5 57.5t-31 46.5t-44.5 31.5t-53 11.5q-49 0 -112 -18.5t-141 -56.5l-69 212q187 96 327 96q163 0 271 -100q116 -105 116 -265q0 -109 -65 -198h300
v290h-162v235h1286v-235zM1972 1315l-192 -80l-286 632l209 85zM1743 1312l-130 -130l-550 477l163 163zM624 -286l-156 -153l-158 153l158 158z" />
    <glyph glyph-name="glyph127" horiz-adv-x="1024" 
d="M92 0v1302h799v-1302h-799zM302 206h379v890h-379v-890z" />
    <glyph glyph-name="glyph162" horiz-adv-x="1024" 
d="M92 0v1302h799v-1302h-799zM302 206h379v890h-379v-890z" />
    <glyph glyph-name="uni0915" unicode="&#x915;" horiz-adv-x="1602" 
d="M1672 1320v-235h-763v-274q50 32 98.5 46t106.5 14q78 0 141 -26t107.5 -73t68 -113.5t23.5 -148.5q0 -52 -15.5 -107.5t-42 -110.5t-61.5 -106t-74 -93l-157 195q20 21 40 50.5t35.5 60.5t25.5 61t10 53q0 35 -11.5 59t-29 39t-36.5 21.5t-34 6.5q-28 0 -52.5 -8.5
t-47.5 -24t-46.5 -37t-48.5 -46.5v-523h-254v353q-48 -26 -109 -47.5t-123 -21.5q-102 0 -172.5 32t-113.5 81.5t-62 109.5t-19 117q0 74 28 135.5t78 106t120 69.5t154 25q70 0 124.5 -14.5t94.5 -31.5v171h-655v235h1672zM655 658q-17 9 -39.5 20.5t-50 21.5t-60 17
t-69.5 7q-129 0 -129 -89q0 -57 32 -85.5t84 -28.5q28 0 59.5 11.5t62.5 28t59.5 36t50.5 36.5v25z" />
    <glyph glyph-name="uni0916" unicode="&#x916;" horiz-adv-x="1708" 
d="M1778 1085h-330v-1085h-253v107q-166 -107 -367 -107q-316 0 -466 159q-187 179 -311 455l203 170l67 -131q22 21 31 44t9 49v339h-361v235h1778v-235zM827 233q94 5 177 35t149 87q-54 -16 -109 -16q-74 0 -138 24.5t-111 68t-74 104t-27 132.5q0 70 24 130.5
t66.5 105.5t100.5 71t126 26q21 0 53 -7t75 -20v-232q-82 34 -105 34q-51 0 -80.5 -29.5t-29.5 -80.5q0 -44 35 -74q36 -29 87 -29q38 0 75.5 10t72.5 29v483h-579v-303q0 -128 -24 -186q-18 -46 -55.5 -85.5t-88.5 -69.5q46 -60 92 -100t92.5 -64t95 -34t100.5 -10z" />
    <glyph glyph-name="uni0917" unicode="&#x917;" horiz-adv-x="1428" 
d="M1498 1085h-310v-1085h-254v1085h-222v-458q0 -187 -77.5 -281t-249.5 -94q-64 0 -116.5 21.5t-89.5 61t-57.5 95t-20.5 124.5q0 58 23 108t63 87t94 58.5t116 21.5q17 0 31.5 -1t29.5 -3v260h-458v235h1498v-235zM386 495q35 0 53.5 22.5t18.5 84.5q-27 9 -60 9
q-26 0 -45 -17t-19 -40q0 -26 16 -42.5t36 -16.5z" />
    <glyph glyph-name="uni0918" unicode="&#x918;" horiz-adv-x="1388" 
d="M1458 1085h-303v-1085h-254v240q-143 -74 -302 -74q-97 0 -178.5 27t-141 75.5t-93 115t-33.5 145.5q0 53 20 104.5t59 93.5q-114 67 -114 222q0 30 7 69t22 67h-147v235h1458v-235zM901 1085h-473q-13 -12 -23 -27.5t-17.5 -32t-11.5 -33t-4 -30.5q0 -93 148 -93h189
v-222h-189q-23 0 -43 -8.5t-35 -24t-24 -37t-9 -48.5q0 -29 15.5 -52.5t42 -40t60.5 -25.5t72 -9q143 0 302 107v576z" />
    <glyph glyph-name="uni0919" unicode="&#x919;" 
d="M1246 1085h-305v-324h-527q-54 0 -54 -51q0 -12 6 -23t15 -19.5t19 -13.5t18 -5q24 0 54 5t60.5 11.5t60 11.5t52.5 5q75 0 140 -23.5t113 -65t76 -97t28 -119.5q0 -87 -38 -160.5t-104 -127.5t-155 -84t-191 -30q-298 0 -487 221l183 166q131 -155 304 -155
q45 0 87.5 10t75.5 29.5t53.5 47.5t20.5 63q0 17 -8.5 32.5t-22 27.5t-30 19.5t-32.5 7.5q-21 0 -47 -5t-53 -10.5t-53 -10.5t-47 -5q-79 0 -140.5 20.5t-103.5 59t-64 93.5t-22 124q0 61 21 112.5t59 89.5t90 59.5t114 21.5h275v92h-687v235h1246v-235zM1253 627l-156 -153
l-158 153l158 158z" />
    <glyph glyph-name="uni091A" unicode="&#x91a;" horiz-adv-x="1442" 
d="M1512 1085h-309v-1085h-254v251q-63 -37 -127.5 -54t-133.5 -17q-90 0 -167.5 25.5t-133.5 71t-88 107.5t-32 135q0 93 56 184h-223v235h700v-235h-181q-107 -93 -107 -167q0 -131 180 -131q25 0 59.5 8.5t70 23t69 33.5t58.5 40v575h-949v235h1512v-235z" />
    <glyph glyph-name="uni091B" unicode="&#x91b;" horiz-adv-x="1602" 
d="M1672 1085h-532v-54q47 -18 81 -45.5t56 -72t33 -109t12 -155.5q181 -67 181 -237q0 -138 -123 -301l-143 124q67 117 67 164q0 7 -5 17t-15 17q-32 -101 -90 -182.5t-135 -139t-171.5 -89t-199.5 -31.5q-108 0 -198 24.5t-154.5 70t-100.5 110t-36 144.5q0 67 38 127
q-31 21 -56 49.5t-42.5 61t-27 68.5t-9.5 74q0 61 27 115t73 94.5t105.5 64t125.5 23.5q36 0 73 -6.5t73 -18.5v-252q-94 53 -146 53q-35 0 -60 -19.5t-27 -54.5q4 -25 20 -43t44 -26q32 17 70 31t86 25l61 -200q-85 -29 -134 -64.5t-49 -77.5q0 -32 19 -57t51.5 -42
t74.5 -26t88 -9q153 0 259 82q92 70 127 178q-74 15 -133.5 44.5t-101.5 70.5t-65 92.5t-23 110.5q0 84 52 148q40 52 94 74v55h-886v235h1672v-235zM1102 767q0 19 -7 35t-18.5 28t-26 19t-29.5 7q-23 0 -44 -13.5t-21 -34.5q0 -20 11.5 -38t31.5 -33.5t46 -27t56 -17.5
q1 17 1 33v42z" />
    <glyph glyph-name="uni091C" unicode="&#x91c;" horiz-adv-x="1602" 
d="M1672 1085h-321v-1085h-254v604h-152q33 -78 33 -178q0 -83 -30 -150.5t-84.5 -114.5t-131 -72.5t-170.5 -25.5q-352 0 -523 535l227 72q31 -103 66.5 -176.5t74.5 -120t81 -68t86 -21.5q37 0 68 10t53.5 29.5t35.5 47t13 62.5q0 53 -25.5 100.5t-64.5 70.5h-210v236h653
v245h-1097v235h1672v-235z" />
    <glyph glyph-name="uni091D" unicode="&#x91d;" horiz-adv-x="1704" 
d="M1774 1085h-330v-1085h-254v432h-196q5 -17 7.5 -35t2.5 -37q0 -76 -32 -142t-87.5 -116.5t-130 -82.5t-158.5 -40l151 -227l-221 -135l-233 389q-68 17 -136.5 67.5t-120.5 130.5l171 154q117 -141 301 -141q49 0 93 9.5t77.5 27.5t53.5 44.5t20 61.5q0 19 -9.5 35
t-24 27t-32.5 17t-35 6q-16 0 -50 -4.5t-73 -10.5t-76 -10.5t-60 -4.5q-74 0 -135 22t-105 62t-68 95t-24 121q0 280 307 280h257v90h-624v235h1774v-235zM1190 668v417h-312v-324h-536q-20 0 -31.5 -15t-11.5 -35q0 -32 21.5 -47t52.5 -15q18 0 52 5t70.5 10.5t70.5 10.5
t52 5q34 0 66 -2.5t63 -9.5h443z" />
    <glyph glyph-name="uni091E" unicode="&#x91e;" horiz-adv-x="1442" 
d="M1512 1085h-309v-1085h-254v506h-126q-9 -72 -44.5 -133.5t-91 -106t-126 -70t-149.5 -25.5q-198 0 -339 190l187 132q82 -94 152 -94q34 0 65 13t54 35.5t37 54t14 68.5q0 38 -12 67t-33.5 49t-51.5 30t-65 10q-89 0 -166 -77l-101 223l115 61q75 36 152 36
q67 0 128 -16.5t111.5 -46.5t88 -72t57.5 -93h144v344h-949v235h1512v-235z" />
    <glyph glyph-name="uni091F" unicode="&#x91f;" 
d="M1246 1085h-394v-366h-209q-303 0 -303 -211q0 -57 21 -104t58 -80t87 -51.5t109 -18.5q138 0 308 154l178 -177q-218 -224 -493 -224q-106 0 -200.5 38.5t-166 104.5t-113.5 153.5t-42 185.5q0 114 36 201.5t102.5 147.5t160 90.5t213.5 30.5v126h-598v235h1246v-235z
" />
    <glyph glyph-name="uni0920" unicode="&#x920;" horiz-adv-x="1282" 
d="M1352 1085h-491v-180q76 -27 138.5 -71.5t106.5 -100.5t68 -122t24 -137q0 -101 -44 -187.5t-119 -150.5t-175 -100t-213 -36q-210 0 -369 124q-179 137 -179 351q0 90 39.5 171.5t108.5 144.5t161.5 102.5t198.5 47.5v144h-607v235h1352v-235zM942 472q0 49 -23.5 93.5
t-64 77.5t-93.5 52.5t-111 19.5t-111 -19t-93.5 -51.5t-65 -77t-24.5 -95.5q0 -52 24 -96.5t64.5 -77t93.5 -51t112 -18.5t112 19t93 52t63.5 77t23.5 95z" />
    <glyph glyph-name="uni0921" unicode="&#x921;" horiz-adv-x="1122" 
d="M1192 1085h-251v-324h-536q-22 0 -36.5 -15t-14.5 -38q0 -27 23 -40q29 -18 65 -18q20 0 42.5 3.5t48.5 8.5q68 17 115 17q76 0 140.5 -22t112 -61.5t74.5 -95.5t27 -123q0 -89 -35.5 -162.5t-100 -126t-154.5 -81.5t-199 -29q-290 0 -486 216l173 156q125 -138 313 -138
q50 0 95 10t79.5 28.5t55 46t20.5 63.5q0 19 -9 35.5t-24 29t-34 19.5t-39 7q-21 0 -46 -4.5t-50 -10.5t-49 -10.5t-45 -4.5q-348 0 -348 285q0 61 22 113.5t60.5 90t90 59t111.5 21.5h284v95h-687v235h1192v-235z" />
    <glyph glyph-name="uni0922" unicode="&#x922;" 
d="M1246 1085h-398v-378h-227q-296 0 -296 -224q0 -105 53.5 -164.5t157.5 -79.5q-10 23 -16 50.5t-6 53.5q0 124 84 202q77 76 198 76q63 0 113.5 -21.5t86.5 -60t55.5 -90t19.5 -111.5q0 -78 -31 -141t-91 -106.5t-147 -67t-199 -23.5q-120 0 -218 36t-168 102
t-108.5 158.5t-38.5 205.5q0 99 35.5 180.5t99 139.5t151.5 90t193 32h45v141h-594v235h1246v-235zM856 330q0 31 -18.5 53.5t-43.5 22.5q-26 0 -44.5 -22.5t-18.5 -53.5q0 -30 17.5 -53t45.5 -23q26 0 44 23t18 53z" />
    <glyph glyph-name="uni0923" unicode="&#x923;" horiz-adv-x="1640" 
d="M1710 1085h-325v-1085h-253v1085h-223v-408q0 -86 -29 -155.5t-82 -118.5t-127.5 -75.5t-165.5 -26.5q-79 0 -149.5 30.5t-124 82t-85 119.5t-31.5 144v408h-115v235h1710v-235zM655 1085h-286v-408q0 -26 13.5 -48t34 -38.5t45 -26t47.5 -9.5q55 0 102 35q44 35 44 87
v408z" />
    <glyph glyph-name="uni0924" unicode="&#x924;" horiz-adv-x="1362" 
d="M1432 1085h-283v-1085h-254v591h-418q-70 0 -108 -38.5t-38 -104.5q0 -102 84 -199q10 -11 64 -61.5t155 -139.5l-197 -168q-360 324 -360 557q0 88 26 160t74.5 123t118 79t156.5 28h443v258h-895v235h1432v-235z" />
    <glyph glyph-name="uni0925" unicode="&#x925;" horiz-adv-x="1442" 
d="M1512 1085h-324v-1085h-254v296q-69 -32 -143.5 -49t-135.5 -17q-82 0 -170 30t-169 84.5t-148.5 130t-106.5 166.5l100 150q70 -34 98 -34q70 0 125.5 33.5t89.5 90.5q-48 -21 -107 -21q-69 0 -122 21t-89 57t-54.5 84.5t-18.5 103.5q0 58 24 109t65.5 88t98 58.5
t121.5 21.5q79 0 144 -27.5t111 -77t71 -118.5t25 -151q0 -78 -23 -153t-64 -138.5t-99.5 -111t-128.5 -69.5q24 -18 53.5 -34t60.5 -29t60.5 -20.5t52.5 -7.5q69 0 143 28t136 72v519h-156v235h734v-235zM361 1060q26 0 61 17t61 57q-19 23 -41.5 36.5t-47.5 13.5
q-78 0 -78 -64q0 -30 15.5 -45t29.5 -15z" />
    <glyph glyph-name="uni0926" unicode="&#x926;" 
d="M1246 1085h-385v-379h-247q-90 0 -150 -11.5t-96 -38.5t-51 -72.5t-15 -113.5q0 -41 14 -75.5t38 -60t56.5 -40t69.5 -14.5q29 0 64 10t65.5 25.5t51 34t20.5 36.5q-3 23 -27 109l249 58l175 -668l-247 -64l-80 298q-50 -42 -117.5 -61t-156.5 -19q-95 0 -174.5 33.5
t-137 92t-90 138.5t-32.5 174q0 111 35 199.5t101.5 150.5t164.5 95t224 33h39v130h-607v235h1246v-235z" />
    <glyph glyph-name="uni0927" unicode="&#x927;" horiz-adv-x="1442" 
d="M699 705q-40 -8 -89 -21.5t-91.5 -32.5t-71 -43.5t-28.5 -54.5q0 -58 60 -85.5t172 -27.5q44 0 86.5 9.5t80 24t67.5 31.5t48 32v548h-168v235h747v-235h-325v-1085h-254v253q-53 -23 -128 -43t-166 -20q-49 0 -104 5.5t-108 19t-101 37.5t-84.5 61.5t-58 90t-21.5 123.5
q0 42 14 87t40 87q-186 109 -186 335q0 88 26 159.5t73.5 122.5t114 84t147.5 33q60 0 106.5 -19.5t83.5 -54.5t60 -83.5t23 -105.5q0 -59 -22 -103t-57.5 -73.5t-80 -44.5t-90.5 -15q-66 0 -120 24q18 -34 49 -59.5t70 -36.5q38 17 90.5 34.5t121.5 35.5zM409 1144
q16 0 29 9t13 26q0 20 -13.5 35.5t-40.5 15.5q-42 0 -74 -23q16 -26 36.5 -44.5t49.5 -18.5z" />
    <glyph glyph-name="uni0928" unicode="&#x928;" horiz-adv-x="1388" 
d="M1458 1085h-305v-1085h-254v588h-306q8 -20 13.5 -46.5t5.5 -54.5q0 -326 -284 -326q-68 0 -123.5 24.5t-95.5 68t-61.5 102.5t-21.5 128q0 339 371 339h502v262h-899v235h1458v-235zM267 477q0 -83 61 -83q50 0 50 93q0 33 -10.5 59t-30.5 42q-40 -15 -55 -40t-15 -71z
" />
    <glyph glyph-name="uni092A" unicode="&#x92a;" horiz-adv-x="1228" 
d="M1298 1085h-291v-1085h-254v407q-90 -39 -194 -39q-176 0 -301 105q-142 114 -142 288v324h-116v235h1298v-235zM753 1085h-383v-283q0 -92 63 -143q59 -44 144 -44q95 0 176 64v406z" />
    <glyph glyph-name="uni092B" unicode="&#x92b;" horiz-adv-x="1602" 
d="M1672 1085h-763v-163q32 13 61.5 17.5t64.5 4.5q91 0 168 -28.5t133 -80.5t87.5 -125.5t31.5 -163.5q0 -56 -13.5 -113.5t-42.5 -113.5t-74.5 -109.5t-110.5 -101.5l-140 194q125 113 125 244q0 77 -44.5 119.5t-119.5 42.5q-86 0 -126 -57v-651h-254v389
q-91 -44 -193 -44q-74 0 -137.5 33.5t-110.5 89.5t-74 129.5t-27 154.5v333h-113v235h1672v-235zM655 1085h-288v-339q0 -35 8 -65.5t22.5 -53t35.5 -36t48 -13.5q51 0 95 24t79 66v417z" />
    <glyph glyph-name="uni092C" unicode="&#x92c;" horiz-adv-x="1228" 
d="M1298 1085h-291v-1085h-254v251q-64 -38 -132 -57t-137 -19q-84 0 -158.5 32t-131 87t-89 129t-32.5 158q0 87 35 159t96.5 124t144.5 80.5t178 28.5q71 0 127 -13t99 -30v155h-753v235h1298v-235zM753 688q-23 11 -50.5 22t-56.5 20t-58 14.5t-55 5.5h-17.5t-17.5 -1
q55 -61 107 -120t112 -126l36 29v156zM322 630q-5 -13 -8 -28t-3 -29q0 -36 15 -67t41 -54t60.5 -36t72.5 -13h11.5t11.5 1z" />
    <glyph glyph-name="uni092D" unicode="&#x92d;" horiz-adv-x="1496" 
d="M1566 1085h-327v-1085h-254v506h-281v-89q0 -72 -23.5 -129t-67.5 -96t-107.5 -60t-143.5 -21q-63 0 -118 24t-95.5 65t-64 97t-23.5 120q0 324 353 324h30v88q-17 -5 -37 -7.5t-43 -2.5q-64 0 -116 20.5t-89 57.5t-57 88.5t-20 112.5q0 71 23 128.5t64 98.5t96.5 63.5
t121.5 22.5q84 0 144 -22.5t98.5 -73.5t56.5 -134t18 -204v-236h281v344h-201v235h782v-235zM444 506h-34q-37 0 -61.5 -5.5t-39.5 -17.5t-21.5 -30.5t-6.5 -43.5q0 -19 5.5 -36t14.5 -30t22 -21t28 -8q93 0 93 123v69zM355 1034q29 0 48 6t41 20q0 108 -64 118
q-38 0 -59.5 -17.5t-21.5 -53.5q0 -73 56 -73z" />
    <glyph glyph-name="uni092E" unicode="&#x92e;" horiz-adv-x="1496" 
d="M1566 1085h-314v-1085h-254v506h-368q-1 -89 -22 -154t-60 -107.5t-94.5 -63t-125.5 -20.5q-63 0 -112.5 23.5t-84 64t-52.5 95t-18 115.5q0 49 18.5 99t56.5 90.5t97.5 66.5t142.5 26v344h-376v235h1566v-235zM998 741v344h-368v-344h368zM376 506q-53 0 -72 -16.5
t-19 -47.5q0 -22 8.5 -38.5t31.5 -16.5q16 0 26 10.5t15.5 23.5t7.5 32t2 40v13z" />
    <glyph glyph-name="uni092F" unicode="&#x92f;" horiz-adv-x="1388" 
d="M1458 1085h-303v-1085h-254v296q-63 -29 -133 -45.5t-141 -16.5q-313 0 -557 402l105 153q77 -29 116 -29q75 0 117.5 39t42.5 112q0 24 -9.5 54t-24.5 56.5t-33 45t-34 18.5h-350v235h1458v-235zM901 1085h-232q21 -36 30.5 -83.5t9.5 -92.5q0 -59 -20 -117
t-56.5 -106.5t-87.5 -84t-112 -49.5q21 -17 46.5 -29.5t51.5 -21t51 -12.5t47 -4q142 0 272 94v506z" />
    <glyph glyph-name="uni0930" unicode="&#x930;" horiz-adv-x="960" 
d="M1030 1085h-366v-244q0 -93 -9.5 -159.5t-28.5 -112.5t-48 -73.5t-68 -43.5l350 -411l-194 -163l-648 757l195 162l124 -146q73 1 73 145v289h-410v235h1030v-235z" />
    <glyph glyph-name="uni0932" unicode="&#x932;" horiz-adv-x="1496" 
d="M1566 1085h-313v-1085h-254v487l-334 -184l-126 204l133 77q-25 37 -61 54t-84 17q-140 0 -140 -137q0 -145 290 -462l-227 -100q-78 85 -133 149t-85 109q-53 78 -82 155.5t-29 141.5q0 185 120 293q111 102 286 102q54 0 106 -15.5t98 -42.5t83.5 -64.5t62.5 -81.5
l122 66v317h-999v235h1566v-235z" />
    <glyph glyph-name="uni0933" unicode="&#x933;" horiz-adv-x="1602" 
d="M1672 1085h-469v-185q58 -11 112 -50t94.5 -96t65 -127.5t24.5 -144.5q0 -107 -33 -195.5t-93.5 -152.5t-146 -99t-189.5 -35q-175 0 -295 109q-32 -33 -58.5 -54t-57.5 -33.5t-69 -17t-92 -4.5q-96 0 -171 31.5t-126.5 91t-79 143.5t-27.5 189q0 92 34 175t93.5 145.5
t140.5 99t175 36.5q186 0 309 -102q32 29 66.5 49t69.5 30v197h-949v235h1672v-235zM1240 482q0 40 -11.5 73t-32.5 55.5t-49.5 35t-62.5 12.5q-86 0 -144 -125l-19 -57t-17.5 -53.5t-17.5 -53.5t-19 -58q14 -12 31.5 -22t40.5 -17q54 -19 104 -19q94 0 145.5 61.5
t51.5 167.5zM696 597q-76 61 -192 61q-41 0 -74.5 -16t-58 -43.5t-38 -64.5t-13.5 -79q0 -97 38 -149.5t107 -52.5q66 0 111.5 51.5t78.5 157.5l14 46t13 46z" />
    <glyph glyph-name="uni0935" unicode="&#x935;" horiz-adv-x="1228" 
d="M1298 1085h-291v-1085h-254v236q-66 -35 -133 -48t-136 -13q-84 0 -157.5 32t-128 87t-85.5 129t-31 158q0 87 33.5 159t93 124t141 80.5t177.5 28.5q71 0 127 -13t99 -30v155h-753v235h1298v-235zM753 688q-23 11 -50.5 22t-56.5 20t-58 14.5t-55 5.5q-49 0 -84 -9
t-58.5 -24t-37.5 -34.5t-21.5 -39t-9.5 -38t-2 -32.5q0 -36 14 -67t38 -54t57 -36t71 -13q46 0 86.5 12t73 28.5t56 35t37.5 31.5v178z" />
    <glyph glyph-name="uni0936" unicode="&#x936;" horiz-adv-x="1494" 
d="M841 895q0 -81 -15.5 -156.5t-49 -140t-86 -115t-126.5 -81.5l279 -306l-187 -172l-601 654l187 174l138 -151q38 2 72 18.5t62 46t48 69.5t29 88q-43 -31 -96 -48t-110 -17q-76 0 -132.5 22t-94.5 60.5t-57 89t-19 107.5q0 68 27 125.5t73.5 99.5t109 65.5t134.5 23.5
q97 0 174 -32.5t130.5 -92.5t82 -144t28.5 -187zM1564 1085h-297v-1085h-254v1085h-110v235h661v-235zM404 989q14 0 29 3t30 11t30 23t30 38q-22 22 -46.5 35t-50.5 13q-44 0 -71.5 -20t-27.5 -55q0 -21 23.5 -34.5t53.5 -13.5z" />
    <glyph glyph-name="uni0937" unicode="&#x937;" horiz-adv-x="1228" 
d="M1298 1085h-291v-1085h-254v406q-83 -38 -194 -38q-176 0 -301 105q-142 114 -142 288v324h-116v235h1298v-235zM753 825v260h-207zM370 929v-127q0 -73 60 -132q61 -58 133 -58q34 0 62 7z" />
    <glyph glyph-name="uni0938" unicode="&#x938;" horiz-adv-x="1496" 
d="M1566 1085h-313v-1085h-254v506h-404q-17 -30 -41.5 -56t-53.5 -41l311 -368l-194 -163l-599 707l195 164l120 -145q77 9 77 247v234h-410v235h1566v-235zM999 741v344h-335v-234q0 -31 -0.5 -59t-2.5 -51h338z" />
    <glyph glyph-name="uni0939" unicode="&#x939;" horiz-adv-x="1122" 
d="M1192 1085h-341v-324h-463q-30 0 -52 -21.5t-22 -50.5q0 -35 20 -57q45 22 101 35.5t122 13.5q100 0 175 -29t124 -77t73.5 -110t24.5 -127q0 -50 -19.5 -97.5t-47 -88t-57 -72t-48.5 -50.5l-178 166l48 48q16 16 34.5 36.5t18.5 45.5q0 16 -6 35t-22.5 36t-46.5 28.5
t-78 11.5q-42 0 -81 -12t-68.5 -35t-47.5 -56t-18 -74q0 -49 17 -89.5t46.5 -75t68.5 -62.5t82 -52t88 -45t87 -39l-114 -202q-89 25 -181.5 72t-168.5 116.5t-124.5 163.5t-48.5 214q0 44 16 100.5t54 113.5q-43 44 -68 98.5t-25 115.5t22 116t61 96.5t93 66t118 24.5h237
v93h-597v235h1192v-235z" />
    <glyph glyph-name="glyph163" horiz-adv-x="1618" 
d="M1298 1085h-452v235h452v-235zM1234 653h-793q-47 -36 -76.5 -61.5t-46.5 -47t-23 -42.5t-6 -47q0 -15 4.5 -34t16 -34.5t27 -27.5t48.5 -12q43 0 65.5 24t24.5 69l-35 103l237 86l231 -634l-240 -86l-100 278q-80 -84 -211 -84q-67 0 -125 28.5t-101 77t-68 112.5
t-25 134q0 91 42 167.5t138 148.5q-27 19 -48.5 46.5t-36.5 60t-23.5 68.5t-8.5 72q0 69 27 129.5t73.5 105.5t108.5 70.5t131 25.5q74 0 134 -25t102 -69.5t65 -105t23 -131.5q0 -70 -33 -130h502v-235zM521 1018q0 17 -7 33t-18.5 28.5t-25.5 20t-29 7.5q-41 0 -64.5 -25
t-23.5 -64q0 -43 22.5 -74t65.5 -51q41 23 60.5 54.5t19.5 70.5zM1690 1085h-260v-1085h-254v1085h-17v235h531v-235z" />
    <glyph glyph-name="glyph167" horiz-adv-x="1640" 
d="M1352 1085h-1352v235h1352v-235zM1293 693h-375q10 -29 13.5 -59t3.5 -65q0 -74 -25.5 -130.5t-63.5 -98.5t-82 -71t-82 -46l107 -114l-166 -167l-461 470l172 166l158 -160q31 3 65.5 12.5t63 29t47 50.5t18.5 76q0 30 -9.5 59t-41.5 48h-192v236h850v-236zM1710 1085
h-260v-1085h-254v1085h-17v235h531v-235z" />
    <glyph glyph-name="uni0958" unicode="&#x958;" horiz-adv-x="1602" 
d="M1672 1320v-235h-763v-274q50 32 98.5 46t106.5 14q78 0 141 -26t107.5 -73t68 -113.5t23.5 -148.5q0 -52 -15.5 -107.5t-42 -110.5t-61.5 -106t-74 -93l-157 195q20 21 40 50.5t35.5 60.5t25.5 61t10 53q0 35 -11.5 59t-29 39t-36.5 21.5t-34 6.5q-28 0 -52.5 -8.5
t-47.5 -24t-46.5 -37t-48.5 -46.5v-523h-254v353q-48 -26 -109 -47.5t-123 -21.5q-102 0 -172.5 32t-113.5 81.5t-62 109.5t-19 117q0 74 28 135.5t78 106t120 69.5t154 25q70 0 124.5 -14.5t94.5 -31.5v171h-655v235h1672zM655 658q-17 9 -39.5 20.5t-50 21.5t-60 17
t-69.5 7q-129 0 -129 -89q0 -57 32 -85.5t84 -28.5q28 0 59.5 11.5t62.5 28t59.5 36t50.5 36.5v25zM554 -55l-156 -153l-158 153l158 158z" />
    <glyph glyph-name="uni0959" unicode="&#x959;" horiz-adv-x="1708" 
d="M1778 1085h-330v-1085h-253v107q-166 -107 -367 -107q-316 0 -466 159q-187 179 -311 455l203 170l67 -131q22 21 31 44t9 49v339h-361v235h1778v-235zM827 233q94 5 177 35t149 87q-54 -16 -109 -16q-74 0 -138 24.5t-111 68t-74 104t-27 132.5q0 70 24 130.5
t66.5 105.5t100.5 71t126 26q21 0 53 -7t75 -20v-232q-82 34 -105 34q-51 0 -80.5 -29.5t-29.5 -80.5q0 -44 35 -74q36 -29 87 -29q38 0 75.5 10t72.5 29v483h-579v-303q0 -128 -24 -186q-18 -46 -55.5 -85.5t-88.5 -69.5q46 -60 92 -100t92.5 -64t95 -34t100.5 -10z
M336 -143l-156 -153l-158 153l158 158z" />
    <glyph glyph-name="uni095A" unicode="&#x95a;" horiz-adv-x="1428" 
d="M1498 1085h-310v-1085h-254v1085h-222v-458q0 -187 -77.5 -281t-249.5 -94q-64 0 -116.5 21.5t-89.5 61t-57.5 95t-20.5 124.5q0 58 23 108t63 87t94 58.5t116 21.5q17 0 31.5 -1t29.5 -3v260h-458v235h1498v-235zM386 495q35 0 53.5 22.5t18.5 84.5q-27 9 -60 9
q-26 0 -45 -17t-19 -40q0 -26 16 -42.5t36 -16.5zM806 -179l-156 -153l-158 153l158 158z" />
    <glyph glyph-name="glyph168" horiz-adv-x="1388" 
d="M1458 1085h-303v-1085h-254v240q-143 -74 -302 -74q-97 0 -178.5 27t-141 75.5t-93 115t-33.5 145.5q0 53 20 104.5t59 93.5q-114 67 -114 222q0 30 7 69t22 67h-147v235h1458v-235zM901 1085h-473q-13 -12 -23 -27.5t-17.5 -32t-11.5 -33t-4 -30.5q0 -93 148 -93h189
v-222h-189q-23 0 -43 -8.5t-35 -24t-24 -37t-9 -48.5q0 -29 15.5 -52.5t42 -40t60.5 -25.5t72 -9q143 0 302 107v576zM743 -156l-156 -153l-158 153l158 158z" />
    <glyph glyph-name="glyph169" 
d="M1246 1085h-305v-324h-527q-54 0 -54 -51q0 -12 6 -23t15 -19.5t19 -13.5t18 -5q24 0 54 5t60.5 11.5t60 11.5t52.5 5q75 0 140 -23.5t113 -65t76 -97t28 -119.5q0 -87 -38 -160.5t-104 -127.5t-155 -84t-191 -30q-298 0 -487 221l183 166q131 -155 304 -155
q45 0 87.5 10t75.5 29.5t53.5 47.5t20.5 63q0 17 -8.5 32.5t-22 27.5t-30 19.5t-32.5 7.5q-21 0 -47 -5t-53 -10.5t-53 -10.5t-47 -5q-79 0 -140.5 20.5t-103.5 59t-64 93.5t-22 124q0 61 21 112.5t59 89.5t90 59.5t114 21.5h275v92h-687v235h1246v-235zM1253 627l-156 -153
l-158 153l158 158zM671 -270l-156 -153l-158 153l158 158z" />
    <glyph glyph-name="glyph170" horiz-adv-x="1442" 
d="M1512 1085h-309v-1085h-254v251q-63 -37 -127.5 -54t-133.5 -17q-90 0 -167.5 25.5t-133.5 71t-88 107.5t-32 135q0 93 56 184h-223v235h700v-235h-181q-107 -93 -107 -167q0 -131 180 -131q25 0 59.5 8.5t70 23t69 33.5t58.5 40v575h-949v235h1512v-235zM840 -176
l-156 -153l-158 153l158 158z" />
    <glyph glyph-name="glyph172" horiz-adv-x="1602" 
d="M1672 1085h-532v-54q47 -18 81 -45.5t56 -72t33 -109t12 -155.5q181 -67 181 -237q0 -138 -123 -301l-143 124q67 117 67 164q0 7 -5 17t-15 17q-32 -101 -90 -182.5t-135 -139t-171.5 -89t-199.5 -31.5q-108 0 -198 24.5t-154.5 70t-100.5 110t-36 144.5q0 67 38 127
q-31 21 -56 49.5t-42.5 61t-27 68.5t-9.5 74q0 61 27 115t73 94.5t105.5 64t125.5 23.5q36 0 73 -6.5t73 -18.5v-252q-94 53 -146 53q-35 0 -60 -19.5t-27 -54.5q4 -25 20 -43t44 -26q32 17 70 31t86 25l61 -200q-85 -29 -134 -64.5t-49 -77.5q0 -32 19 -57t51.5 -42
t74.5 -26t88 -9q153 0 259 82q92 70 127 178q-74 15 -133.5 44.5t-101.5 70.5t-65 92.5t-23 110.5q0 84 52 148q40 52 94 74v55h-886v235h1672v-235zM1102 767q0 19 -7 35t-18.5 28t-26 19t-29.5 7q-23 0 -44 -13.5t-21 -34.5q0 -20 11.5 -38t31.5 -33.5t46 -27t56 -17.5
q1 17 1 33v42zM842 -270l-156 -153l-158 153l158 158z" />
    <glyph glyph-name="uni095B" unicode="&#x95b;" horiz-adv-x="1602" 
d="M1672 1085h-321v-1085h-254v604h-152q33 -78 33 -178q0 -83 -30 -150.5t-84.5 -114.5t-131 -72.5t-170.5 -25.5q-352 0 -523 535l227 72q31 -103 66.5 -176.5t74.5 -120t81 -68t86 -21.5q37 0 68 10t53.5 29.5t35.5 47t13 62.5q0 53 -25.5 100.5t-64.5 70.5h-210v236h653
v245h-1097v235h1672v-235zM725 -240l-156 -153l-158 153l158 158z" />
    <glyph glyph-name="glyph173" horiz-adv-x="1704" 
d="M1774 1085h-330v-1085h-254v432h-196q5 -17 7.5 -35t2.5 -37q0 -76 -32 -142t-87.5 -116.5t-130 -82.5t-158.5 -40l151 -227l-221 -135l-233 389q-68 17 -136.5 67.5t-120.5 130.5l171 154q117 -141 301 -141q49 0 93 9.5t77.5 27.5t53.5 44.5t20 61.5q0 19 -9.5 35
t-24 27t-32.5 17t-35 6q-16 0 -50 -4.5t-73 -10.5t-76 -10.5t-60 -4.5q-74 0 -135 22t-105 62t-68 95t-24 121q0 280 307 280h257v90h-624v235h1774v-235zM1190 668v417h-312v-324h-536q-20 0 -31.5 -15t-11.5 -35q0 -32 21.5 -47t52.5 -15q18 0 52 5t70.5 10.5t70.5 10.5
t52 5q34 0 66 -2.5t63 -9.5h443zM277 -309l-156 -153l-158 153l158 158z" />
    <glyph glyph-name="glyph174" horiz-adv-x="1442" 
d="M1512 1085h-309v-1085h-254v506h-126q-9 -72 -44.5 -133.5t-91 -106t-126 -70t-149.5 -25.5q-198 0 -339 190l187 132q82 -94 152 -94q34 0 65 13t54 35.5t37 54t14 68.5q0 38 -12 67t-33.5 49t-51.5 30t-65 10q-89 0 -166 -77l-101 223l115 61q75 36 152 36
q67 0 128 -16.5t111.5 -46.5t88 -72t57.5 -93h144v344h-949v235h1512v-235zM602 -153l-156 -153l-158 153l158 158z" />
    <glyph glyph-name="glyph175" 
d="M1246 1085h-394v-366h-209q-303 0 -303 -211q0 -57 21 -104t58 -80t87 -51.5t109 -18.5q138 0 308 154l178 -177q-218 -224 -493 -224q-106 0 -200.5 38.5t-166 104.5t-113.5 153.5t-42 185.5q0 114 36 201.5t102.5 147.5t160 90.5t213.5 30.5v126h-598v235h1246v-235z
M762 -243l-156 -153l-158 153l158 158z" />
    <glyph glyph-name="glyph178" horiz-adv-x="1282" 
d="M1352 1085h-491v-180q76 -27 138.5 -71.5t106.5 -100.5t68 -122t24 -137q0 -101 -44 -187.5t-119 -150.5t-175 -100t-213 -36q-210 0 -369 124q-179 137 -179 351q0 90 39.5 171.5t108.5 144.5t161.5 102.5t198.5 47.5v144h-607v235h1352v-235zM942 472q0 49 -23.5 93.5
t-64 77.5t-93.5 52.5t-111 19.5t-111 -19t-93.5 -51.5t-65 -77t-24.5 -95.5q0 -52 24 -96.5t64.5 -77t93.5 -51t112 -18.5t112 19t93 52t63.5 77t23.5 95zM805 -243l-156 -153l-158 153l158 158z" />
    <glyph glyph-name="uni095C" unicode="&#x95c;" horiz-adv-x="1122" 
d="M1192 1085h-251v-324h-536q-22 0 -36.5 -15t-14.5 -38q0 -27 23 -40q29 -18 65 -18q20 0 42.5 3.5t48.5 8.5q68 17 115 17q76 0 140.5 -22t112 -61.5t74.5 -95.5t27 -123q0 -89 -35.5 -162.5t-100 -126t-154.5 -81.5t-199 -29q-290 0 -486 216l173 156q125 -138 313 -138
q50 0 95 10t79.5 28.5t55 46t20.5 63.5q0 19 -9 35.5t-24 29t-34 19.5t-39 7q-21 0 -46 -4.5t-50 -10.5t-49 -10.5t-45 -4.5q-348 0 -348 285q0 61 22 113.5t60.5 90t90 59t111.5 21.5h284v95h-687v235h1192v-235zM668 -263l-156 -153l-158 153l158 158z" />
    <glyph glyph-name="uni095D" unicode="&#x95d;" 
d="M1246 1085h-398v-378h-227q-296 0 -296 -224q0 -105 53.5 -164.5t157.5 -79.5q-10 23 -16 50.5t-6 53.5q0 124 84 202q77 76 198 76q63 0 113.5 -21.5t86.5 -60t55.5 -90t19.5 -111.5q0 -78 -31 -141t-91 -106.5t-147 -67t-199 -23.5q-120 0 -218 36t-168 102
t-108.5 158.5t-38.5 205.5q0 99 35.5 180.5t99 139.5t151.5 90t193 32h45v141h-594v235h1246v-235zM856 330q0 31 -18.5 53.5t-43.5 22.5q-26 0 -44.5 -22.5t-18.5 -53.5q0 -30 17.5 -53t45.5 -23q26 0 44 23t18 53zM755 -263l-156 -153l-158 153l158 158z" />
    <glyph glyph-name="glyph179" horiz-adv-x="1640" 
d="M1710 1085h-325v-1085h-253v1085h-223v-408q0 -86 -29 -155.5t-82 -118.5t-127.5 -75.5t-165.5 -26.5q-79 0 -149.5 30.5t-124 82t-85 119.5t-31.5 144v408h-115v235h1710v-235zM655 1085h-286v-408q0 -26 13.5 -48t34 -38.5t45 -26t47.5 -9.5q55 0 102 35q44 35 44 87
v408zM819 -153l-156 -153l-158 153l158 158z" />
    <glyph glyph-name="glyph180" horiz-adv-x="1362" 
d="M1432 1085h-283v-1085h-254v591h-418q-70 0 -108 -38.5t-38 -104.5q0 -102 84 -199q10 -11 64 -61.5t155 -139.5l-197 -168q-360 324 -360 557q0 88 26 160t74.5 123t118 79t156.5 28h443v258h-895v235h1432v-235zM368 -368l-156 -153l-158 153l158 158z" />
    <glyph glyph-name="glyph181" horiz-adv-x="1442" 
d="M1512 1085h-324v-1085h-254v296q-69 -32 -143.5 -49t-135.5 -17q-82 0 -170 30t-169 84.5t-148.5 130t-106.5 166.5l100 150q70 -34 98 -34q70 0 125.5 33.5t89.5 90.5q-48 -21 -107 -21q-69 0 -122 21t-89 57t-54.5 84.5t-18.5 103.5q0 58 24 109t65.5 88t98 58.5
t121.5 21.5q79 0 144 -27.5t111 -77t71 -118.5t25 -151q0 -78 -23 -153t-64 -138.5t-99.5 -111t-128.5 -69.5q24 -18 53.5 -34t60.5 -29t60.5 -20.5t52.5 -7.5q69 0 143 28t136 72v519h-156v235h734v-235zM361 1060q26 0 61 17t61 57q-19 23 -41.5 36.5t-47.5 13.5
q-78 0 -78 -64q0 -30 15.5 -45t29.5 -15zM396 -100l-156 -153l-158 153l158 158z" />
    <glyph glyph-name="glyph182" 
d="M1246 1085h-385v-379h-247q-90 0 -150 -11.5t-96 -38.5t-51 -72.5t-15 -113.5q0 -41 14 -75.5t38 -60t56.5 -40t69.5 -14.5q29 0 64 10t65.5 25.5t51 34t20.5 36.5q-3 23 -27 109l249 58l175 -668l-247 -64l-80 298q-50 -42 -117.5 -61t-156.5 -19q-95 0 -174.5 33.5
t-137 92t-90 138.5t-32.5 174q0 111 35 199.5t101.5 150.5t164.5 95t224 33h39v130h-607v235h1246v-235zM619 -263l-156 -153l-158 153l158 158z" />
    <glyph glyph-name="glyph184" horiz-adv-x="1442" 
d="M699 705q-40 -8 -89 -21.5t-91.5 -32.5t-71 -43.5t-28.5 -54.5q0 -58 60 -85.5t172 -27.5q44 0 86.5 9.5t80 24t67.5 31.5t48 32v548h-168v235h747v-235h-325v-1085h-254v253q-53 -23 -128 -43t-166 -20q-49 0 -104 5.5t-108 19t-101 37.5t-84.5 61.5t-58 90t-21.5 123.5
q0 42 14 87t40 87q-186 109 -186 335q0 88 26 159.5t73.5 122.5t114 84t147.5 33q60 0 106.5 -19.5t83.5 -54.5t60 -83.5t23 -105.5q0 -59 -22 -103t-57.5 -73.5t-80 -44.5t-90.5 -15q-66 0 -120 24q18 -34 49 -59.5t70 -36.5q38 17 90.5 34.5t121.5 35.5zM409 1144
q16 0 29 9t13 26q0 20 -13.5 35.5t-40.5 15.5q-42 0 -74 -23q16 -26 36.5 -44.5t49.5 -18.5zM780 -117l-156 -153l-158 153l158 158z" />
    <glyph glyph-name="uni0929" unicode="&#x929;" horiz-adv-x="1388" 
d="M1458 1085h-305v-1085h-254v588h-306q8 -20 13.5 -46.5t5.5 -54.5q0 -326 -284 -326q-68 0 -123.5 24.5t-95.5 68t-61.5 102.5t-21.5 128q0 339 371 339h502v262h-899v235h1458v-235zM267 477q0 -83 61 -83q50 0 50 93q0 33 -10.5 59t-30.5 42q-40 -15 -55 -40t-15 -71z
M779 -162l-156 -153l-158 153l158 158z" />
    <glyph glyph-name="glyph186" horiz-adv-x="1228" 
d="M1298 1085h-291v-1085h-254v407q-90 -39 -194 -39q-176 0 -301 105q-142 114 -142 288v324h-116v235h1298v-235zM753 1085h-383v-283q0 -92 63 -143q59 -44 144 -44q95 0 176 64v406zM621 38l-156 -153l-158 153l158 158z" />
    <glyph glyph-name="uni095E" unicode="&#x95e;" horiz-adv-x="1602" 
d="M1672 1085h-763v-163q32 13 61.5 17.5t64.5 4.5q91 0 168 -28.5t133 -80.5t87.5 -125.5t31.5 -163.5q0 -56 -13.5 -113.5t-42.5 -113.5t-74.5 -109.5t-110.5 -101.5l-140 194q125 113 125 244q0 77 -44.5 119.5t-119.5 42.5q-86 0 -126 -57v-651h-254v389
q-91 -44 -193 -44q-74 0 -137.5 33.5t-110.5 89.5t-74 129.5t-27 154.5v333h-113v235h1672v-235zM655 1085h-288v-339q0 -35 8 -65.5t22.5 -53t35.5 -36t48 -13.5q51 0 95 24t79 66v417zM422 -24l-156 -153l-158 153l158 158z" />
    <glyph glyph-name="glyph187" horiz-adv-x="1228" 
d="M1298 1085h-291v-1085h-254v251q-64 -38 -132 -57t-137 -19q-84 0 -158.5 32t-131 87t-89 129t-32.5 158q0 87 35 159t96.5 124t144.5 80.5t178 28.5q71 0 127 -13t99 -30v155h-753v235h1298v-235zM753 688q-23 11 -50.5 22t-56.5 20t-58 14.5t-55 5.5h-17.5t-17.5 -1
q55 -61 107 -120t112 -126l36 29v156zM322 630q-5 -13 -8 -28t-3 -29q0 -36 15 -67t41 -54t60.5 -36t72.5 -13h11.5t11.5 1zM585 -123l-156 -153l-158 153l158 158z" />
    <glyph glyph-name="glyph188" horiz-adv-x="1496" 
d="M1566 1085h-327v-1085h-254v506h-281v-89q0 -72 -23.5 -129t-67.5 -96t-107.5 -60t-143.5 -21q-63 0 -118 24t-95.5 65t-64 97t-23.5 120q0 324 353 324h30v88q-17 -5 -37 -7.5t-43 -2.5q-64 0 -116 20.5t-89 57.5t-57 88.5t-20 112.5q0 71 23 128.5t64 98.5t96.5 63.5
t121.5 22.5q84 0 144 -22.5t98.5 -73.5t56.5 -134t18 -204v-236h281v344h-201v235h782v-235zM444 506h-34q-37 0 -61.5 -5.5t-39.5 -17.5t-21.5 -30.5t-6.5 -43.5q0 -19 5.5 -36t14.5 -30t22 -21t28 -8q93 0 93 123v69zM355 1034q29 0 48 6t41 20q0 108 -64 118
q-38 0 -59.5 -17.5t-21.5 -53.5q0 -73 56 -73zM882 -198l-156 -153l-158 153l158 158z" />
    <glyph glyph-name="glyph191" horiz-adv-x="1496" 
d="M1566 1085h-314v-1085h-254v506h-368q-1 -89 -22 -154t-60 -107.5t-94.5 -63t-125.5 -20.5q-63 0 -112.5 23.5t-84 64t-52.5 95t-18 115.5q0 49 18.5 99t56.5 90.5t97.5 66.5t142.5 26v344h-376v235h1566v-235zM998 741v344h-368v-344h368zM376 506q-53 0 -72 -16.5
t-19 -47.5q0 -22 8.5 -38.5t31.5 -16.5q16 0 26 10.5t15.5 23.5t7.5 32t2 40v13zM883 -189l-156 -153l-158 153l158 158z" />
    <glyph glyph-name="uni095F" unicode="&#x95f;" horiz-adv-x="1388" 
d="M1458 1085h-303v-1085h-254v296q-63 -29 -133 -45.5t-141 -16.5q-313 0 -557 402l105 153q77 -29 116 -29q75 0 117.5 39t42.5 112q0 24 -9.5 54t-24.5 56.5t-33 45t-34 18.5h-350v235h1458v-235zM901 1085h-232q21 -36 30.5 -83.5t9.5 -92.5q0 -59 -20 -117
t-56.5 -106.5t-87.5 -84t-112 -49.5q21 -17 46.5 -29.5t51.5 -21t51 -12.5t47 -4q142 0 272 94v506zM463 -53l-156 -153l-158 153l158 158z" />
    <glyph glyph-name="uni0931" unicode="&#x931;" horiz-adv-x="960" 
d="M1030 1085h-366v-244q0 -93 -9.5 -159.5t-28.5 -112.5t-48 -73.5t-68 -43.5l350 -411l-194 -163l-648 757l195 162l124 -146q73 1 73 145v289h-410v235h1030v-235zM336 -93l-156 -153l-158 153l158 158z" />
    <glyph glyph-name="glyph193" horiz-adv-x="1496" 
d="M1566 1085h-313v-1085h-254v487l-334 -184l-126 204l133 77q-25 37 -61 54t-84 17q-140 0 -140 -137q0 -145 290 -462l-227 -100q-78 85 -133 149t-85 109q-53 78 -82 155.5t-29 141.5q0 185 120 293q111 102 286 102q54 0 106 -15.5t98 -42.5t83.5 -64.5t62.5 -81.5
l122 66v317h-999v235h1566v-235zM344 -203l-156 -153l-158 153l158 158z" />
    <glyph glyph-name="uni0934" unicode="&#x934;" horiz-adv-x="1602" 
d="M1672 1085h-469v-185q58 -11 112 -50t94.5 -96t65 -127.5t24.5 -144.5q0 -107 -33 -195.5t-93.5 -152.5t-146 -99t-189.5 -35q-175 0 -295 109q-32 -33 -58.5 -54t-57.5 -33.5t-69 -17t-92 -4.5q-96 0 -171 31.5t-126.5 91t-79 143.5t-27.5 189q0 92 34 175t93.5 145.5
t140.5 99t175 36.5q186 0 309 -102q32 29 66.5 49t69.5 30v197h-949v235h1672v-235zM1240 482q0 40 -11.5 73t-32.5 55.5t-49.5 35t-62.5 12.5q-86 0 -144 -125l-19 -57t-17.5 -53.5t-17.5 -53.5t-19 -58q14 -12 31.5 -22t40.5 -17q54 -19 104 -19q94 0 145.5 61.5
t51.5 167.5zM696 597q-76 61 -192 61q-41 0 -74.5 -16t-58 -43.5t-38 -64.5t-13.5 -79q0 -97 38 -149.5t107 -52.5q66 0 111.5 51.5t78.5 157.5l14 46t13 46zM911 -270l-156 -153l-158 153l158 158z" />
    <glyph glyph-name="glyph194" horiz-adv-x="1228" 
d="M1298 1085h-291v-1085h-254v236q-66 -35 -133 -48t-136 -13q-84 0 -157.5 32t-128 87t-85.5 129t-31 158q0 87 33.5 159t93 124t141 80.5t177.5 28.5q71 0 127 -13t99 -30v155h-753v235h1298v-235zM753 688q-23 11 -50.5 22t-56.5 20t-58 14.5t-55 5.5q-49 0 -84 -9
t-58.5 -24t-37.5 -34.5t-21.5 -39t-9.5 -38t-2 -32.5q0 -36 14 -67t38 -54t57 -36t71 -13q46 0 86.5 12t73 28.5t56 35t37.5 31.5v178zM635 -165l-156 -153l-158 153l158 158z" />
    <glyph glyph-name="glyph195" horiz-adv-x="1494" 
d="M841 895q0 -81 -15.5 -156.5t-49 -140t-86 -115t-126.5 -81.5l279 -306l-187 -172l-601 654l187 174l138 -151q38 2 72 18.5t62 46t48 69.5t29 88q-43 -31 -96 -48t-110 -17q-76 0 -132.5 22t-94.5 60.5t-57 89t-19 107.5q0 68 27 125.5t73.5 99.5t109 65.5t134.5 23.5
q97 0 174 -32.5t130.5 -92.5t82 -144t28.5 -187zM1564 1085h-297v-1085h-254v1085h-110v235h661v-235zM404 989q14 0 29 3t30 11t30 23t30 38q-22 22 -46.5 35t-50.5 13q-44 0 -71.5 -20t-27.5 -55q0 -21 23.5 -34.5t53.5 -13.5zM341 -103l-156 -153l-158 153l158 158z" />
    <glyph glyph-name="glyph196" horiz-adv-x="1228" 
d="M1298 1085h-291v-1085h-254v406q-83 -38 -194 -38q-176 0 -301 105q-142 114 -142 288v324h-116v235h1298v-235zM753 825v260h-207zM370 929v-127q0 -73 60 -132q61 -58 133 -58q34 0 62 7zM601 18l-156 -153l-158 153l158 158z" />
    <glyph glyph-name="glyph197" horiz-adv-x="1496" 
d="M1566 1085h-313v-1085h-254v506h-404q-17 -30 -41.5 -56t-53.5 -41l311 -368l-194 -163l-599 707l195 164l120 -145q77 9 77 247v234h-410v235h1566v-235zM999 741v344h-335v-234q0 -31 -0.5 -59t-2.5 -51h338zM354 -167l-156 -153l-158 153l158 158z" />
    <glyph glyph-name="glyph198" horiz-adv-x="1122" 
d="M1192 1085h-341v-324h-463q-30 0 -52 -21.5t-22 -50.5q0 -35 20 -57q45 22 101 35.5t122 13.5q100 0 175 -29t124 -77t73.5 -110t24.5 -127q0 -50 -19.5 -97.5t-47 -88t-57 -72t-48.5 -50.5l-178 166l48 48q16 16 34.5 36.5t18.5 45.5q0 16 -6 35t-22.5 36t-46.5 28.5
t-78 11.5q-42 0 -81 -12t-68.5 -35t-47.5 -56t-18 -74q0 -49 17 -89.5t46.5 -75t68.5 -62.5t82 -52t88 -45t87 -39l-114 -202q-89 25 -181.5 72t-168.5 116.5t-124.5 163.5t-48.5 214q0 44 16 100.5t54 113.5q-43 44 -68 98.5t-25 115.5t22 116t61 96.5t93 66t118 24.5h237
v93h-597v235h1192v-235zM256 -423l-156 -153l-158 153l158 158z" />
    <glyph glyph-name="glyph199" horiz-adv-x="1024" 
d="M92 0v1302h799v-1302h-799zM302 206h379v890h-379v-890z" />
    <glyph glyph-name="glyph200" horiz-adv-x="1024" 
d="M92 0v1302h799v-1302h-799zM302 206h379v890h-379v-890z" />
    <glyph glyph-name="glyph201" horiz-adv-x="1282" 
d="M1352 1320v-235h-442v-274q50 32 98.5 46t106.5 14q91 0 192 -51l-48 -279q-19 21 -41.5 39t-44 31t-40 20.5t-28.5 7.5q-28 0 -52.5 -8.5t-47.5 -24t-46.5 -37t-48.5 -46.5v-523h-254v353q-48 -26 -109 -47.5t-124 -21.5q-102 0 -172.5 32t-113.5 81.5t-62 109.5
t-19 117q0 74 28 135.5t78.5 106t120 69.5t153.5 25q71 0 125.5 -14.5t94.5 -31.5v171h-656v235h1352zM656 658q-17 9 -39.5 20.5t-50 21.5t-60.5 17t-70 7q-129 0 -129 -89q0 -57 32 -85.5t84 -28.5q28 0 59.5 11.5t63 28t60 36t50.5 36.5v25z" />
    <glyph glyph-name="glyph202" horiz-adv-x="1388" 
d="M1393 517q-22 -27 -54 -55t-74 -51t-93.5 -37.5t-112.5 -14.5q-84 0 -151 21t-114.5 61.5t-73 101t-25.5 138.5q0 66 24.5 124t67.5 101.5t100.5 69t123.5 25.5q22 0 54 -7t75 -20v-232q-83 34 -106 34q-50 0 -79 -29.5t-29 -80.5q0 -23 11 -38.5t28.5 -25.5t40.5 -14.5
t47 -4.5q62 0 116.5 20t99 49t76.5 63t48 61v-259zM1393 187q-111 -95 -248.5 -141t-308.5 -46q-100 0 -186 25t-160 68t-136.5 102t-114.5 127.5t-95 142.5t-77 149l196 191l74 -134q14 16 19.5 33.5t5.5 41.5v339h-362v235h1458v-235h-842v-303q0 -69 -6 -116.5
t-23.5 -82.5t-48 -62.5t-79.5 -58.5q36 -51 73.5 -93t81.5 -72t98 -47t124 -17q89 0 160.5 13t136 40.5t127 70.5t133.5 104v-274z" />
    <glyph glyph-name="glyph203" horiz-adv-x="960" 
d="M1030 1085h-319v-458q0 -187 -77.5 -281t-248.5 -94q-64 0 -116.5 21.5t-89.5 61t-57.5 95t-20.5 124.5q0 58 23 108t63 87t94 58.5t116 21.5q16 0 30.5 -1t30.5 -3v260h-458v235h1030v-235zM385 495q35 0 54 24.5t19 82.5q-30 9 -61 9q-26 0 -45 -17t-19 -40
q0 -26 15.5 -42.5t36.5 -16.5z" />
    <glyph glyph-name="glyph204" horiz-adv-x="1068" 
d="M1098 395q-205 -229 -499 -229q-98 0 -179.5 27.5t-141 76t-92.5 115t-33 144.5q0 54 19.5 104.5t59.5 93.5q-114 67 -114 222q0 30 7 69t21 67h-146v235h1138v-235h-710q-13 -12 -23 -27.5t-17.5 -32t-11.5 -33t-4 -30.5q0 -93 148 -93h189v-222h-189q-47 0 -79.5 -32.5
t-32.5 -85.5q0 -29 15.5 -52.5t42 -40t61 -25.5t72.5 -9q50 0 101 11t110 41t129 84t159 141v-284z" />
    <glyph glyph-name="glyph205" 
d="M1246 1085h-305v-324h-527q-54 0 -54 -51q0 -12 6 -23t15 -19.5t19 -13.5t18 -5q24 0 54 5t60.5 11.5t60 11.5t52.5 5q75 0 140 -23.5t113 -65t76 -97t28 -119.5q0 -87 -38 -160.5t-104 -127.5t-155 -84t-191 -30q-298 0 -487 221l183 166q131 -155 304 -155
q45 0 87.5 10t75.5 29.5t53.5 47.5t20.5 63q0 17 -8.5 32.5t-22 27.5t-30 19.5t-32.5 7.5q-21 0 -47 -5t-53 -10.5t-53 -10.5t-47 -5q-79 0 -140.5 20.5t-103.5 59t-64 93.5t-22 124q0 61 21 112.5t59 89.5t90 59.5t114 21.5h275v92h-687v235h1246v-235zM1253 627l-156 -153
l-158 153l158 158zM1066 -404l-130 -173l-564 253l131 168z" />
    <glyph glyph-name="glyph206" horiz-adv-x="1122" 
d="M1192 1085h-1192v235h1192v-235zM1148 408q-50 -53 -106 -95t-115.5 -71.5t-120 -45.5t-117.5 -16q-92 0 -169 25.5t-133 71t-87.5 107.5t-31.5 135q0 46 13.5 91.5t42.5 92.5h-224v235h700v-235h-180q-53 -46 -80.5 -88t-27.5 -79q0 -131 181 -131q42 0 90.5 14.5
t104.5 51t120.5 99.5t139.5 160v-322z" />
    <glyph glyph-name="glyph207" horiz-adv-x="1388" 
d="M1458 1085h-1458v235h1458v-235zM1338 691q0 -286 -176 -488q-185 -212 -474 -212q-104 0 -193.5 25.5t-155 72t-102.5 110.5t-37 141q0 67 38 127q-32 21 -57 50t-42 62t-26.5 69t-9.5 72q0 144 107 227q91 70 224 70q28 0 64.5 -9t81.5 -29v-262q-99 76 -138 76
q-95 0 -95 -73q0 -29 15 -46.5t42 -23.5q19 14 44 28.5t60 33.5l97 -183q-82 -50 -121 -88t-39 -77q0 -32 19 -57t51.5 -42t74.5 -26t88 -9q61 0 120.5 22t111 61t91.5 92t63 115q-11 -1 -24 -1.5t-24 -0.5q-60 0 -109.5 19t-84.5 53.5t-54.5 83t-19.5 107.5q0 56 20.5 103
t57.5 81t88 53t111 19q313 0 313 -346zM1099 775q0 25 -17.5 41t-49.5 16q-26 0 -46 -16t-20 -41q0 -22 17 -39q21 -19 49 -19q26 0 46.5 16t20.5 42z" />
    <glyph glyph-name="glyph208" horiz-adv-x="1282" 
d="M1352 1085h-1352v235h1352v-235zM1295 604h-349q33 -78 33 -178q0 -363 -425 -363q-343 0 -514 535l226 72q123 -386 300 -386q178 0 178 149q0 54 -25.5 101t-64.5 70h-210v236h851v-236z" />
    <glyph glyph-name="glyph209" horiz-adv-x="1388" 
d="M1393 432h-398q5 -17 7.5 -35t2.5 -37q0 -76 -32 -142t-87 -116t-129.5 -82t-158.5 -40l173 -250l-220 -136l-255 411q-69 17 -137.5 68t-122.5 131l171 154q118 -141 302 -141q49 0 93.5 9.5t78 28t53 45t19.5 60.5q0 19 -9 34.5t-23.5 27t-32.5 17.5t-36 6
q-16 0 -50 -4.5t-72.5 -10.5t-76 -10.5t-61.5 -4.5q-72 0 -133 21.5t-105.5 61t-69 95t-24.5 122.5q0 280 307 280h258v90h-625v235h1458v-235h-579v-324h-536q-20 0 -32 -15t-12 -35q0 -32 22 -47t53 -15q18 0 51 5t70 10.5t71 10.5t52 5q34 0 66.5 -2.5t63.5 -9.5h645
v-236z" />
    <glyph glyph-name="glyph210" horiz-adv-x="1122" 
d="M1192 1086h-1192v235h1192v-235zM1148 506h-324q-9 -72 -44.5 -133t-91 -106t-126.5 -70.5t-149 -25.5q-200 0 -339 190l186 132q84 -94 153 -94q34 0 64.5 12.5t53.5 35t37 54t14 69.5q0 75 -45 115.5t-117 40.5q-35 0 -71.5 -18.5t-78.5 -57.5l-134 201q46 36 81.5 59
t67.5 36t64 18t71 5q132 0 232 -58q56 -30 94.5 -73.5t59.5 -96.5h342v-235z" />
    <glyph glyph-name="glyph211" 
d="M1246 1085h-394v-366h-209q-303 0 -303 -211q0 -57 21 -104t58 -80t87 -51.5t109 -18.5q138 0 308 154l178 -177q-218 -224 -493 -224q-106 0 -200.5 38.5t-166 104.5t-113.5 153.5t-42 185.5q0 114 36 201.5t102.5 147.5t160 90.5t213.5 30.5v126h-598v235h1246v-235z
M1126 -404l-130 -173l-564 253l131 168z" />
    <glyph glyph-name="glyph212" horiz-adv-x="1282" 
d="M1352 1085h-491v-180q76 -27 138.5 -71.5t106.5 -100.5t68 -122t24 -137q0 -101 -44 -187.5t-119 -150.5t-175 -100t-213 -36q-210 0 -369 124q-179 137 -179 351q0 90 39.5 171.5t108.5 144.5t161.5 102.5t198.5 47.5v144h-607v235h1352v-235zM942 472q0 49 -23.5 93.5
t-64 77.5t-93.5 52.5t-111 19.5t-111 -19t-93.5 -51.5t-65 -77t-24.5 -95.5q0 -52 24 -96.5t64.5 -77t93.5 -51t112 -18.5t112 19t93 52t63.5 77t23.5 95zM1166 -404l-130 -173l-564 253l131 168z" />
    <glyph glyph-name="glyph213" horiz-adv-x="1122" 
d="M1192 1085h-251v-324h-536q-22 0 -36.5 -15t-14.5 -38q0 -27 23 -40q29 -18 65 -18q20 0 42.5 3.5t48.5 8.5q68 17 115 17q76 0 140.5 -22t112 -61.5t74.5 -95.5t27 -123q0 -89 -35.5 -162.5t-100 -126t-154.5 -81.5t-199 -29q-290 0 -486 216l173 156q125 -138 313 -138
q50 0 95 10t79.5 28.5t55 46t20.5 63.5q0 19 -9 35.5t-24 29t-34 19.5t-39 7q-21 0 -46 -4.5t-50 -10.5t-49 -10.5t-45 -4.5q-348 0 -348 285q0 61 22 113.5t60.5 90t90 59t111.5 21.5h284v95h-687v235h1192v-235zM1036 -404l-130 -173l-564 253l131 168z" />
    <glyph glyph-name="glyph214" 
d="M1246 1085h-398v-378h-227q-296 0 -296 -224q0 -105 53.5 -164.5t157.5 -79.5q-10 23 -16 50.5t-6 53.5q0 124 84 202q77 76 198 76q63 0 113.5 -21.5t86.5 -60t55.5 -90t19.5 -111.5q0 -78 -31 -141t-91 -106.5t-147 -67t-199 -23.5q-120 0 -218 36t-168 102
t-108.5 158.5t-38.5 205.5q0 99 35.5 180.5t99 139.5t151.5 90t193 32h45v141h-594v235h1246v-235zM856 330q0 31 -18.5 53.5t-43.5 22.5q-26 0 -44.5 -22.5t-18.5 -53.5q0 -30 17.5 -53t45.5 -23q26 0 44 23t18 53zM1136 -404l-130 -173l-564 253l131 168z" />
    <glyph glyph-name="glyph215" horiz-adv-x="1068" 
d="M1138 1085h-229v-408q0 -87 -29 -156.5t-82 -118t-127 -75t-165 -26.5q-79 0 -149.5 30.5t-124 82t-85 119.5t-31.5 144v408h-116v235h1138v-235zM656 1085h-286v-408q0 -25 13 -47.5t33 -39t45 -26t48 -9.5q55 0 103 35q44 35 44 87v408z" />
    <glyph glyph-name="glyph216" horiz-adv-x="900" 
d="M970 1085h-970v235h970v-235zM943 591h-484q-69 0 -108 -38t-39 -105q0 -102 84 -199q10 -11 64.5 -61.5t154.5 -139.5l-197 -168q-360 324 -360 557q0 88 26 160t74.5 123t118 79t157.5 28h509v-236z" />
    <glyph glyph-name="glyph217" horiz-adv-x="1122" 
d="M1135 476q-18 -38 -55 -71.5t-77 -61t-85.5 -48.5t-92 -35.5t-92 -22t-84.5 -7.5q-82 0 -170.5 30t-169.5 84.5t-148 130t-107 166.5l100 150q48 -34 99 -34q70 0 125.5 33.5t89.5 90.5q-48 -21 -108 -21q-69 0 -121.5 21t-88.5 57t-54.5 84.5t-18.5 103.5q0 58 24 109
t65.5 88t97.5 58.5t121 21.5q80 0 146.5 -27.5t114.5 -77t74.5 -118.5t26.5 -151q0 -78 -24.5 -153t-67.5 -138.5t-103 -111t-130 -69.5q24 -18 47 -34t54 -29t67 -20.5t59 -7.5q58 0 144.5 25t166.5 79t175 152v-246zM1192 1085h-375v235h375v-235zM361 1060q26 0 61 17
t61 57q-19 23 -41.5 36.5t-47.5 13.5q-78 0 -78 -64q0 -30 15.5 -45t29.5 -15z" />
    <glyph glyph-name="glyph218" 
d="M1246 1085h-385v-379h-247q-90 0 -150 -11.5t-96 -38.5t-51 -72.5t-15 -113.5q0 -41 14 -75.5t38 -60t56.5 -40t69.5 -14.5q29 0 64 10t65.5 25.5t51 34t20.5 36.5q-3 23 -27 109l249 58l175 -668l-247 -64l-80 298q-50 -42 -117.5 -61t-156.5 -19q-95 0 -174.5 33.5
t-137 92t-90 138.5t-32.5 174q0 111 35 199.5t101.5 150.5t164.5 95t224 33h39v130h-607v235h1246v-235zM1289 -520l-130 -173l-564 253l131 168z" />
    <glyph glyph-name="glyph219" horiz-adv-x="1122" 
d="M1192 1085h-406v235h406v-235zM1145 380q-26 -25 -68.5 -57.5t-102.5 -62t-140 -50t-181 -20.5q-50 0 -104.5 5.5t-107.5 19t-101 37.5t-84.5 61.5t-58 90t-21.5 123.5q0 42 14 87t40 87q-186 109 -186 335q0 87 27 160.5t76.5 126.5t117.5 82.5t151 29.5q48 0 95 -19.5
t84 -54.5t60 -83.5t23 -105.5q0 -59 -22 -103t-57.5 -73.5t-80.5 -44.5t-91 -15q-33 0 -63 5.5t-56 18.5q18 -34 49 -59.5t70 -36.5q38 17 90 34.5t122 35.5l74 -229q-40 -8 -89 -21.5t-91.5 -32.5t-71.5 -43.5t-29 -54.5q0 -58 60.5 -85.5t172.5 -27.5q55 0 107.5 14.5
t101 37t91 50.5t77.5 55t61.5 50t41.5 37v-304zM429 1144q16 0 29 9t13 23q0 27 -13.5 40.5t-40.5 13.5q-42 0 -74 -23q16 -26 36.5 -44.5t49.5 -18.5z" />
    <glyph glyph-name="glyph220" horiz-adv-x="1068" 
d="M1138 1085h-1138v235h1138v-235zM1098 588h-504q8 -20 13.5 -46.5t5.5 -54.5q0 -326 -284 -326q-68 0 -123 24.5t-95 68t-61.5 102.5t-21.5 128q0 339 370 339h700v-235zM269 477q0 -83 60 -83q51 0 51 93q0 29 -10 57t-32 44q-37 -13 -53 -41t-16 -70z" />
    <glyph glyph-name="glyph221" horiz-adv-x="908" 
d="M936 554q-63 -83 -157.5 -134.5t-219.5 -51.5q-80 0 -159 27.5t-142 79t-102.5 124t-39.5 162.5v324h-116v235h978v-235h-609v-283q0 -43 16.5 -77.5t44.5 -59t65.5 -37.5t80.5 -13q194 0 360 231v-292z" />
    <glyph glyph-name="glyph222" horiz-adv-x="1282" 
d="M1295 646q-133 0 -227.5 -19t-157.5 -61v-566h-254v410q-105 -66 -225 -66q-68 0 -125.5 27t-99.5 76.5t-66 119t-24 154.5v364h-116v235h1352v-235h-442v-262q136 59 385 59v-236zM656 1085h-286v-364q0 -30 9 -53.5t23 -40.5t31 -26t34 -9q77 0 189 100v393z" />
    <glyph glyph-name="glyph223" horiz-adv-x="908" 
d="M978 1085h-978v235h978v-235zM936 411q-57 -62 -118.5 -106.5t-122.5 -73.5t-119 -42.5t-107 -13.5q-84 0 -159 32t-131.5 87t-89 129t-32.5 158q0 87 35.5 159t97 124t144.5 80.5t178 28.5q47 0 96.5 -9.5t93.5 -23.5t78 -29.5t51 -27.5v-219q-20 10 -56 25t-81.5 28.5
t-97.5 23t-106 9.5h-10l219 -248q26 19 53.5 38.5t57.5 46t61.5 64t64.5 91.5v-331zM305 633q-9 -26 -9 -60q0 -36 15 -67t41 -54t60 -36t72 -13h11.5t11.5 1z" />
    <glyph glyph-name="glyph224" 
d="M1204 506h-478v-89q0 -72 -23.5 -129t-67.5 -96t-107.5 -60t-143.5 -21q-63 0 -118.5 24t-96 65t-64 97t-23.5 120q0 324 353 324h37v88q-23 -5 -43 -7.5t-43 -2.5q-64 0 -116.5 20.5t-89.5 57.5t-57 88.5t-20 112.5q0 71 23 128.5t64 98.5t97 63.5t122 22.5
q84 0 144 -22.5t98.5 -73.5t56.5 -134t18 -204v-236h478v-235zM1246 1085h-433v235h433v-235zM472 506h-34q-37 0 -61.5 -5.5t-39.5 -17.5t-21.5 -30.5t-6.5 -43.5q0 -19 5.5 -36t14.5 -30t22 -21t28 -8q93 0 93 123v69zM384 1034q29 0 48 6t40 20q-4 118 -63 118
q-38 0 -59.5 -17.5t-21.5 -53.5q0 -73 56 -73z" />
    <glyph glyph-name="glyph225" 
d="M1246 1085h-617v-344h567v-235h-567q-1 -89 -22 -154t-60 -107.5t-94.5 -63t-125.5 -20.5q-63 0 -112 23.5t-83.5 64t-52.5 95t-18 115.5q0 49 18 99t56.5 90.5t97.5 66.5t142 26v344h-375v235h1246v-235zM375 506q-36 0 -55.5 -17t-19.5 -41q0 -26 9 -39.5t25 -13.5
q13 0 21 9t12.5 22t6 31.5t1.5 36.5v12z" />
    <glyph glyph-name="glyph226" horiz-adv-x="1068" 
d="M1098 421q-109 -101 -226.5 -144t-245.5 -43q-312 0 -556 402l105 153q39 -15 67.5 -22t48.5 -7q75 0 117.5 39.5t42.5 111.5q0 20 -10.5 50t-26 57.5t-33 47t-32.5 19.5h-349v235h1138v-235h-469q20 -36 29.5 -83.5t9.5 -92.5q0 -59 -20 -117t-56.5 -107t-87.5 -84
t-112 -49q45 -34 98.5 -50.5t97.5 -16.5q65 0 131 17.5t128 49t116 76t95 99.5v-306z" />
    <glyph glyph-name="glyph227" horiz-adv-x="640" 
d="M710 1085h-710v235h710v-235zM734 547q-65 -62 -114.5 -100t-84.5 -55q-40 -20 -86.5 -29.5t-88.5 -9.5q-226 0 -376 316l192 89q73 -162 178 -162q74 0 185 113z" />
    <glyph glyph-name="glyph228" 
d="M1246 1085h-1246v235h1246v-235zM1198 602l-537 -297l-121 202l132 77q-25 37 -61 54t-84 17q-140 0 -140 -137q0 -74 72.5 -188.5t218.5 -273.5l-227 -100q-78 85 -133.5 149t-84.5 109q-52 78 -81.5 155t-29.5 142q0 185 120 293q111 102 285 102q54 0 106.5 -15.5
t98.5 -42.5t83.5 -64.5t61.5 -81.5l321 173v-273z" />
    <glyph glyph-name="glyph229" horiz-adv-x="1390" 
d="M1460 1085h-1460v235h1460v-235zM1353 587q0 -86 -32 -162.5t-88 -133.5t-131.5 -90t-162.5 -33q-161 0 -276 108q-22 -21 -50 -40t-58 -33q-38 -18 -77.5 -26.5t-79.5 -8.5q-71 0 -134 33t-110 88.5t-74 126.5t-27 148q0 178 118 295q118 121 289 121q79 0 146 -24.5
t124 -76.5q23 21 54 39.5t64.5 32t67.5 21.5t64 8q84 0 153 -30.5t117.5 -83.5t75.5 -125t27 -154zM1095 587q0 140 -132 140q-44 0 -93 -81q-12 -24 -21.5 -43.5t-24.5 -50t-36 -76.5q58 -55 157 -55q30 0 57.5 12t48 34t32.5 52.5t12 67.5zM536 504q46 90 81 165
q-71 58 -162 58q-31 0 -57 -12t-45.5 -33.5t-30.5 -51.5t-11 -66q0 -29 7 -55t20.5 -45.5t32.5 -31t43 -11.5q66 0 122 83z" />
    <glyph glyph-name="glyph230" horiz-adv-x="908" 
d="M936 413q-83 -114 -198 -175t-272 -61q-83 0 -155.5 33.5t-127.5 89.5t-86.5 129.5t-31.5 154.5q0 82 32 154t91.5 125.5t143 84t185.5 30.5q37 0 70.5 -2.5t67.5 -9t71.5 -16.5t84.5 -25v-247q-45 21 -82.5 35t-73 22.5t-72.5 12t-80 3.5q-46 0 -82 -14t-61 -37.5
t-38.5 -54.5t-13.5 -64q0 -36 13.5 -67.5t37 -55t55 -36.5t66.5 -13q58 0 120.5 20.5t122.5 59.5t114.5 95.5t98.5 128.5v-300zM978 1085h-978v235h978v-235z" />
    <glyph glyph-name="glyph231" horiz-adv-x="960" 
d="M832 895q0 -81 -16.5 -156.5t-51 -140t-87.5 -115t-127 -81.5l278 -306l-186 -172l-602 654l187 174l138 -151q38 2 72.5 18.5t62 46t47.5 69.5t29 88q-43 -31 -95.5 -48t-110.5 -17q-76 0 -132.5 22t-94.5 60.5t-57 89t-19 107.5q0 68 27 125.5t73.5 99.5t109.5 65.5
t134 23.5q97 0 175 -32.5t132.5 -92.5t84 -144t29.5 -187zM389 989q14 0 29 3t30 11t30 23t30 38q-22 22 -46.5 35t-50.5 13q-44 0 -71 -20t-27 -55q0 -21 23 -34.5t53 -13.5z" />
    <glyph glyph-name="glyph232" horiz-adv-x="908" 
d="M936 584q-63 -103 -165 -159.5t-227 -56.5q-80 0 -159.5 27.5t-142.5 78.5t-102 124t-39 163v324h-101v235h978v-235h-424l240 -364q44 31 72 59t70 86v-282zM354 966v-164q0 -36 16 -70.5t43 -61t62 -42.5t73 -16q14 0 26.5 1t24.5 3z" />
    <glyph glyph-name="glyph233" 
d="M1198 506h-603q-16 -30 -40.5 -56t-54.5 -41l311 -368l-194 -163l-598 707l195 164l120 -145q76 9 76 247v234h-410v235h1246v-235h-582v-234q0 -31 -0.5 -59t-2.5 -51h537v-235z" />
    <glyph glyph-name="glyph234" horiz-adv-x="1122" 
d="M1192 1085h-382v-328h-463q-15 0 -25.5 -11t-10.5 -28q0 -25 16 -38.5t48 -13.5h552v-233h-395q-66 0 -109 -12.5t-68 -35.5t-35 -55t-10 -71q0 -70 36.5 -118.5t97 -78.5t139 -43.5t161.5 -13.5l-38 -229q-145 0 -262.5 33.5t-200 95.5t-127 151.5t-44.5 202.5
q0 79 23.5 134t72.5 107q-21 15 -38.5 39.5t-30 55.5t-19.5 67t-7 74q0 56 17.5 103t49.5 81t78 53t102 19h236v93h-556v235h1192v-235z" />
    <glyph glyph-name="glyph235" horiz-adv-x="1228" 
d="M1298 1085h-452v235h452v-235zM1234 653h-793q-47 -36 -76.5 -61.5t-46.5 -47t-23 -42.5t-6 -47q0 -15 4.5 -34t16 -34.5t27 -27.5t48.5 -12q43 0 65.5 24t24.5 69l-35 103l237 86l231 -634l-240 -86l-100 278q-80 -84 -211 -84q-67 0 -125 28.5t-101 77t-68 112.5
t-25 134q0 91 42 167.5t138 148.5q-27 19 -48.5 46.5t-36.5 60t-23.5 68.5t-8.5 72q0 69 27 129.5t73.5 105.5t108.5 70.5t131 25.5q74 0 134 -25t102 -69.5t65 -105t23 -131.5q0 -70 -33 -130h502v-235zM521 1018q0 17 -7 33t-18.5 28.5t-25.5 20t-29 7.5q-41 0 -64.5 -25
t-23.5 -64q0 -43 22.5 -74t65.5 -51q41 23 60.5 54.5t19.5 70.5z" />
    <glyph glyph-name="glyph236" horiz-adv-x="1282" 
d="M1352 1085h-1352v235h1352v-235zM1293 693h-375q10 -29 13.5 -59t3.5 -65q0 -74 -25.5 -130.5t-63.5 -98.5t-82 -71t-82 -46l107 -114l-166 -167l-461 470l172 166l158 -160q31 3 65.5 12.5t63 29t47 50.5t18.5 76q0 30 -9.5 59t-41.5 48h-192v236h850v-236z" />
    <glyph glyph-name="glyph237" horiz-adv-x="1282" 
d="M1352 1320v-235h-442v-274q50 32 98.5 46t106.5 14q91 0 192 -51l-48 -279q-19 21 -41.5 39t-44 31t-40 20.5t-28.5 7.5q-28 0 -52.5 -8.5t-47.5 -24t-46.5 -37t-48.5 -46.5v-523h-254v353q-48 -26 -109 -47.5t-124 -21.5q-102 0 -172.5 32t-113.5 81.5t-62 109.5
t-19 117q0 74 28 135.5t78.5 106t120 69.5t153.5 25q71 0 125.5 -14.5t94.5 -31.5v171h-656v235h1352zM656 658q-17 9 -39.5 20.5t-50 21.5t-60.5 17t-70 7q-129 0 -129 -89q0 -57 32 -85.5t84 -28.5q28 0 59.5 11.5t63 28t60 36t50.5 36.5v25zM542 -76l-156 -153l-158 153
l158 158z" />
    <glyph glyph-name="glyph238" horiz-adv-x="1388" 
d="M1393 517q-22 -27 -54 -55t-74 -51t-93.5 -37.5t-112.5 -14.5q-84 0 -151 21t-114.5 61.5t-73 101t-25.5 138.5q0 66 24.5 124t67.5 101.5t100.5 69t123.5 25.5q22 0 54 -7t75 -20v-232q-83 34 -106 34q-50 0 -79 -29.5t-29 -80.5q0 -23 11 -38.5t28.5 -25.5t40.5 -14.5
t47 -4.5q62 0 116.5 20t99 49t76.5 63t48 61v-259zM1393 187q-111 -95 -248.5 -141t-308.5 -46q-100 0 -186 25t-160 68t-136.5 102t-114.5 127.5t-95 142.5t-77 149l196 191l74 -134q14 16 19.5 33.5t5.5 41.5v339h-362v235h1458v-235h-842v-303q0 -69 -6 -116.5
t-23.5 -82.5t-48 -62.5t-79.5 -58.5q36 -51 73.5 -93t81.5 -72t98 -47t124 -17q89 0 160.5 13t136 40.5t127 70.5t133.5 104v-274zM316 -143l-156 -153l-158 153l158 158z" />
    <glyph glyph-name="glyph239" horiz-adv-x="960" 
d="M1030 1085h-319v-458q0 -187 -77.5 -281t-248.5 -94q-64 0 -116.5 21.5t-89.5 61t-57.5 95t-20.5 124.5q0 58 23 108t63 87t94 58.5t116 21.5q16 0 30.5 -1t30.5 -3v260h-458v235h1030v-235zM385 495q35 0 54 24.5t19 82.5q-30 9 -61 9q-26 0 -45 -17t-19 -40
q0 -26 15.5 -42.5t36.5 -16.5zM730 -119l-156 -153l-158 153l158 158z" />
    <glyph glyph-name="glyph240" horiz-adv-x="1068" 
d="M1098 395q-205 -229 -499 -229q-98 0 -179.5 27.5t-141 76t-92.5 115t-33 144.5q0 54 19.5 104.5t59.5 93.5q-114 67 -114 222q0 30 7 69t21 67h-146v235h1138v-235h-710q-13 -12 -23 -27.5t-17.5 -32t-11.5 -33t-4 -30.5q0 -93 148 -93h189v-222h-189q-47 0 -79.5 -32.5
t-32.5 -85.5q0 -29 15.5 -52.5t42 -40t61 -25.5t72.5 -9q50 0 101 11t110 41t129 84t159 141v-284zM734 -147l-156 -153l-158 153l158 158z" />
    <glyph glyph-name="glyph241" 
d="M1246 1085h-305v-324h-527q-54 0 -54 -51q0 -12 6 -23t15 -19.5t19 -13.5t18 -5q24 0 54 5t60.5 11.5t60 11.5t52.5 5q75 0 140 -23.5t113 -65t76 -97t28 -119.5q0 -87 -38 -160.5t-104 -127.5t-155 -84t-191 -30q-298 0 -487 221l183 166q131 -155 304 -155
q45 0 87.5 10t75.5 29.5t53.5 47.5t20.5 63q0 17 -8.5 32.5t-22 27.5t-30 19.5t-32.5 7.5q-21 0 -47 -5t-53 -10.5t-53 -10.5t-47 -5q-79 0 -140.5 20.5t-103.5 59t-64 93.5t-22 124q0 61 21 112.5t59 89.5t90 59.5t114 21.5h275v92h-687v235h1246v-235zM1253 627l-156 -153
l-158 153l158 158zM668 -270l-156 -153l-158 153l158 158zM890 -710l-130 -173l-564 253l131 168z" />
    <glyph glyph-name="glyph242" horiz-adv-x="1122" 
d="M1192 1085h-1192v235h1192v-235zM1148 408q-50 -53 -106 -95t-115.5 -71.5t-120 -45.5t-117.5 -16q-92 0 -169 25.5t-133 71t-87.5 107.5t-31.5 135q0 46 13.5 91.5t42.5 92.5h-224v235h700v-235h-180q-53 -46 -80.5 -88t-27.5 -79q0 -131 181 -131q42 0 90.5 14.5
t104.5 51t120.5 99.5t139.5 160v-322zM797 -135l-156 -153l-158 153l158 158z" />
    <glyph glyph-name="glyph243" horiz-adv-x="1388" 
d="M1458 1085h-1458v235h1458v-235zM1338 691q0 -286 -176 -488q-185 -212 -474 -212q-104 0 -193.5 25.5t-155 72t-102.5 110.5t-37 141q0 67 38 127q-32 21 -57 50t-42 62t-26.5 69t-9.5 72q0 144 107 227q91 70 224 70q28 0 64.5 -9t81.5 -29v-262q-99 76 -138 76
q-95 0 -95 -73q0 -29 15 -46.5t42 -23.5q19 14 44 28.5t60 33.5l97 -183q-82 -50 -121 -88t-39 -77q0 -32 19 -57t51.5 -42t74.5 -26t88 -9q61 0 120.5 22t111 61t91.5 92t63 115q-11 -1 -24 -1.5t-24 -0.5q-60 0 -109.5 19t-84.5 53.5t-54.5 83t-19.5 107.5q0 56 20.5 103
t57.5 81t88 53t111 19q313 0 313 -346zM1099 775q0 25 -17.5 41t-49.5 16q-26 0 -46 -16t-20 -41q0 -22 17 -39q21 -19 49 -19q26 0 46.5 16t20.5 42zM840 -320l-156 -153l-158 153l158 158z" />
    <glyph glyph-name="glyph244" horiz-adv-x="1282" 
d="M1352 1085h-1352v235h1352v-235zM1295 604h-349q33 -78 33 -178q0 -363 -425 -363q-343 0 -514 535l226 72q123 -386 300 -386q178 0 178 149q0 54 -25.5 101t-64.5 70h-210v236h851v-236zM700 -203l-156 -153l-158 153l158 158z" />
    <glyph glyph-name="glyph245" horiz-adv-x="1388" 
d="M1393 432h-398q5 -17 7.5 -35t2.5 -37q0 -76 -32 -142t-87 -116t-129.5 -82t-158.5 -40l173 -250l-220 -136l-255 411q-69 17 -137.5 68t-122.5 131l171 154q118 -141 302 -141q49 0 93.5 9.5t78 28t53 45t19.5 60.5q0 19 -9 34.5t-23.5 27t-32.5 17.5t-36 6
q-16 0 -50 -4.5t-72.5 -10.5t-76 -10.5t-61.5 -4.5q-72 0 -133 21.5t-105.5 61t-69 95t-24.5 122.5q0 280 307 280h258v90h-625v235h1458v-235h-579v-324h-536q-20 0 -32 -15t-12 -35q0 -32 22 -47t53 -15q18 0 51 5t70 10.5t71 10.5t52 5q34 0 66.5 -2.5t63.5 -9.5h645
v-236zM299 -310l-156 -153l-158 153l158 158z" />
    <glyph glyph-name="glyph246" horiz-adv-x="1122" 
d="M1192 1086h-1192v235h1192v-235zM1148 506h-324q-9 -72 -44.5 -133t-91 -106t-126.5 -70.5t-149 -25.5q-200 0 -339 190l186 132q84 -94 153 -94q34 0 64.5 12.5t53.5 35t37 54t14 69.5q0 75 -45 115.5t-117 40.5q-35 0 -71.5 -18.5t-78.5 -57.5l-134 201q46 36 81.5 59
t67.5 36t64 18t71 5q132 0 232 -58q56 -30 94.5 -73.5t59.5 -96.5h342v-235zM711 -170l-156 -153l-158 153l158 158z" />
    <glyph glyph-name="glyph247" 
d="M1246 1085h-394v-366h-209q-303 0 -303 -211q0 -57 21 -104t58 -80t87 -51.5t109 -18.5q138 0 308 154l178 -177q-218 -224 -493 -224q-106 0 -200.5 38.5t-166 104.5t-113.5 153.5t-42 185.5q0 114 36 201.5t102.5 147.5t160 90.5t213.5 30.5v126h-598v235h1246v-235z
M780 -270l-156 -153l-158 153l158 158zM946 -710l-130 -173l-564 253l131 168z" />
    <glyph glyph-name="glyph248" horiz-adv-x="1282" 
d="M1352 1085h-491v-180q76 -27 138.5 -71.5t106.5 -100.5t68 -122t24 -137q0 -101 -44 -187.5t-119 -150.5t-175 -100t-213 -36q-210 0 -369 124q-179 137 -179 351q0 90 39.5 171.5t108.5 144.5t161.5 102.5t198.5 47.5v144h-607v235h1352v-235zM942 472q0 49 -23.5 93.5
t-64 77.5t-93.5 52.5t-111 19.5t-111 -19t-93.5 -51.5t-65 -77t-24.5 -95.5q0 -52 24 -96.5t64.5 -77t93.5 -51t112 -18.5t112 19t93 52t63.5 77t23.5 95zM803 -270l-156 -153l-158 153l158 158zM986 -710l-130 -173l-564 253l131 168z" />
    <glyph glyph-name="glyph249" horiz-adv-x="1122" 
d="M1192 1085h-251v-324h-536q-22 0 -36.5 -15t-14.5 -38q0 -27 23 -40q29 -18 65 -18q20 0 42.5 3.5t48.5 8.5q68 17 115 17q76 0 140.5 -22t112 -61.5t74.5 -95.5t27 -123q0 -89 -35.5 -162.5t-100 -126t-154.5 -81.5t-199 -29q-290 0 -486 216l173 156q125 -138 313 -138
q50 0 95 10t79.5 28.5t55 46t20.5 63.5q0 19 -9 35.5t-24 29t-34 19.5t-39 7q-21 0 -46 -4.5t-50 -10.5t-49 -10.5t-45 -4.5q-348 0 -348 285q0 61 22 113.5t60.5 90t90 59t111.5 21.5h284v95h-687v235h1192v-235zM650 -270l-156 -153l-158 153l158 158zM822 -710l-130 -173
l-564 253l131 168z" />
    <glyph glyph-name="glyph250" 
d="M1246 1085h-398v-378h-227q-296 0 -296 -224q0 -105 53.5 -164.5t157.5 -79.5q-10 23 -16 50.5t-6 53.5q0 124 84 202q77 76 198 76q63 0 113.5 -21.5t86.5 -60t55.5 -90t19.5 -111.5q0 -78 -31 -141t-91 -106.5t-147 -67t-199 -23.5q-120 0 -218 36t-168 102
t-108.5 158.5t-38.5 205.5q0 99 35.5 180.5t99 139.5t151.5 90t193 32h45v141h-594v235h1246v-235zM856 330q0 31 -18.5 53.5t-43.5 22.5q-26 0 -44.5 -22.5t-18.5 -53.5q0 -30 17.5 -53t45.5 -23q26 0 44 23t18 53zM743 -270l-156 -153l-158 153l158 158zM908 -710
l-130 -173l-564 253l131 168z" />
    <glyph glyph-name="glyph251" horiz-adv-x="1068" 
d="M1138 1085h-229v-408q0 -87 -29 -156.5t-82 -118t-127 -75t-165 -26.5q-79 0 -149.5 30.5t-124 82t-85 119.5t-31.5 144v408h-116v235h1138v-235zM656 1085h-286v-408q0 -25 13 -47.5t33 -39t45 -26t48 -9.5q55 0 103 35q44 35 44 87v408zM659 -113l-156 -153l-158 153
l158 158z" />
    <glyph glyph-name="glyph252" horiz-adv-x="900" 
d="M970 1085h-970v235h970v-235zM943 591h-484q-69 0 -108 -38t-39 -105q0 -102 84 -199q10 -11 64.5 -61.5t154.5 -139.5l-197 -168q-360 324 -360 557q0 88 26 160t74.5 123t118 79t157.5 28h509v-236zM899 -285l-156 -153l-158 153l158 158z" />
    <glyph glyph-name="glyph253" horiz-adv-x="1122" 
d="M1135 476q-18 -38 -55 -71.5t-77 -61t-85.5 -48.5t-92 -35.5t-92 -22t-84.5 -7.5q-82 0 -170.5 30t-169.5 84.5t-148 130t-107 166.5l100 150q48 -34 99 -34q70 0 125.5 33.5t89.5 90.5q-48 -21 -108 -21q-69 0 -121.5 21t-88.5 57t-54.5 84.5t-18.5 103.5q0 58 24 109
t65.5 88t97.5 58.5t121 21.5q80 0 146.5 -27.5t114.5 -77t74.5 -118.5t26.5 -151q0 -78 -24.5 -153t-67.5 -138.5t-103 -111t-130 -69.5q24 -18 47 -34t54 -29t67 -20.5t59 -7.5q58 0 144.5 25t166.5 79t175 152v-246zM1192 1085h-375v235h375v-235zM361 1060q26 0 61 17
t61 57q-19 23 -41.5 36.5t-47.5 13.5q-78 0 -78 -64q0 -30 15.5 -45t29.5 -15zM424 -81l-156 -153l-158 153l158 158z" />
    <glyph glyph-name="glyph254" 
d="M1246 1085h-385v-379h-247q-90 0 -150 -11.5t-96 -38.5t-51 -72.5t-15 -113.5q0 -41 14 -75.5t38 -60t56.5 -40t69.5 -14.5q29 0 64 10t65.5 25.5t51 34t20.5 36.5q-3 23 -27 109l249 58l175 -668l-247 -64l-80 298q-50 -42 -117.5 -61t-156.5 -19q-95 0 -174.5 33.5
t-137 92t-90 138.5t-32.5 174q0 111 35 199.5t101.5 150.5t164.5 95t224 33h39v130h-607v235h1246v-235zM618 -270l-156 -153l-158 153l158 158zM1356 -581l-130 -173l-564 253l131 168z" />
    <glyph glyph-name="glyph255" horiz-adv-x="1122" 
d="M1192 1085h-406v235h406v-235zM1145 380q-26 -25 -68.5 -57.5t-102.5 -62t-140 -50t-181 -20.5q-50 0 -104.5 5.5t-107.5 19t-101 37.5t-84.5 61.5t-58 90t-21.5 123.5q0 42 14 87t40 87q-186 109 -186 335q0 87 27 160.5t76.5 126.5t117.5 82.5t151 29.5q48 0 95 -19.5
t84 -54.5t60 -83.5t23 -105.5q0 -59 -22 -103t-57.5 -73.5t-80.5 -44.5t-91 -15q-33 0 -63 5.5t-56 18.5q18 -34 49 -59.5t70 -36.5q38 17 90 34.5t122 35.5l74 -229q-40 -8 -89 -21.5t-91.5 -32.5t-71.5 -43.5t-29 -54.5q0 -58 60.5 -85.5t172.5 -27.5q55 0 107.5 14.5
t101 37t91 50.5t77.5 55t61.5 50t41.5 37v-304zM429 1144q16 0 29 9t13 23q0 27 -13.5 40.5t-40.5 13.5q-42 0 -74 -23q16 -26 36.5 -44.5t49.5 -18.5zM780 -143l-156 -153l-158 153l158 158z" />
    <glyph glyph-name="glyph256" horiz-adv-x="1068" 
d="M1138 1085h-1138v235h1138v-235zM1098 588h-504q8 -20 13.5 -46.5t5.5 -54.5q0 -326 -284 -326q-68 0 -123 24.5t-95 68t-61.5 102.5t-21.5 128q0 339 370 339h700v-235zM269 477q0 -83 60 -83q51 0 51 93q0 29 -10 57t-32 44q-37 -13 -53 -41t-16 -70zM783 -158
l-156 -153l-158 153l158 158z" />
    <glyph glyph-name="glyph257" horiz-adv-x="908" 
d="M936 554q-63 -83 -157.5 -134.5t-219.5 -51.5q-80 0 -159 27.5t-142 79t-102.5 124t-39.5 162.5v324h-116v235h978v-235h-609v-283q0 -43 16.5 -77.5t44.5 -59t65.5 -37.5t80.5 -13q194 0 360 231v-292zM711 -23l-156 -153l-158 153l158 158z" />
    <glyph glyph-name="glyph258" horiz-adv-x="1282" 
d="M1295 646q-133 0 -227.5 -19t-157.5 -61v-566h-254v410q-105 -66 -225 -66q-68 0 -125.5 27t-99.5 76.5t-66 119t-24 154.5v364h-116v235h1352v-235h-442v-262q136 59 385 59v-236zM656 1085h-286v-364q0 -30 9 -53.5t23 -40.5t31 -26t34 -9q77 0 189 100v393zM416 -53
l-156 -153l-158 153l158 158z" />
    <glyph glyph-name="glyph259" horiz-adv-x="908" 
d="M978 1085h-978v235h978v-235zM936 411q-57 -62 -118.5 -106.5t-122.5 -73.5t-119 -42.5t-107 -13.5q-84 0 -159 32t-131.5 87t-89 129t-32.5 158q0 87 35.5 159t97 124t144.5 80.5t178 28.5q47 0 96.5 -9.5t93.5 -23.5t78 -29.5t51 -27.5v-219q-20 10 -56 25t-81.5 28.5
t-97.5 23t-106 9.5h-10l219 -248q26 19 53.5 38.5t57.5 46t61.5 64t64.5 91.5v-331zM305 633q-9 -26 -9 -60q0 -36 15 -67t41 -54t60 -36t72 -13h11.5t11.5 1zM626 -143l-156 -153l-158 153l158 158z" />
    <glyph glyph-name="glyph260" 
d="M1204 506h-478v-89q0 -72 -23.5 -129t-67.5 -96t-107.5 -60t-143.5 -21q-63 0 -118.5 24t-96 65t-64 97t-23.5 120q0 324 353 324h37v88q-23 -5 -43 -7.5t-43 -2.5q-64 0 -116.5 20.5t-89.5 57.5t-57 88.5t-20 112.5q0 71 23 128.5t64 98.5t97 63.5t122 22.5
q84 0 144 -22.5t98.5 -73.5t56.5 -134t18 -204v-236h478v-235zM1246 1085h-433v235h433v-235zM472 506h-34q-37 0 -61.5 -5.5t-39.5 -17.5t-21.5 -30.5t-6.5 -43.5q0 -19 5.5 -36t14.5 -30t22 -21t28 -8q93 0 93 123v69zM384 1034q29 0 48 6t40 20q-4 118 -63 118
q-38 0 -59.5 -17.5t-21.5 -53.5q0 -73 56 -73zM878 -190l-156 -153l-158 153l158 158z" />
    <glyph glyph-name="glyph261" 
d="M1246 1085h-617v-344h567v-235h-567q-1 -89 -22 -154t-60 -107.5t-94.5 -63t-125.5 -20.5q-63 0 -112 23.5t-83.5 64t-52.5 95t-18 115.5q0 49 18 99t56.5 90.5t97.5 66.5t142 26v344h-375v235h1246v-235zM375 506q-36 0 -55.5 -17t-19.5 -41q0 -26 9 -39.5t25 -13.5
q13 0 21 9t12.5 22t6 31.5t1.5 36.5v12zM840 -161l-156 -153l-158 153l158 158z" />
    <glyph glyph-name="glyph262" horiz-adv-x="1068" 
d="M1098 421q-109 -101 -226.5 -144t-245.5 -43q-312 0 -556 402l105 153q39 -15 67.5 -22t48.5 -7q75 0 117.5 39.5t42.5 111.5q0 20 -10.5 50t-26 57.5t-33 47t-32.5 19.5h-349v235h1138v-235h-469q20 -36 29.5 -83.5t9.5 -92.5q0 -59 -20 -117t-56.5 -107t-87.5 -84
t-112 -49q45 -34 98.5 -50.5t97.5 -16.5q65 0 131 17.5t128 49t116 76t95 99.5v-306zM437 -76l-156 -153l-158 153l158 158z" />
    <glyph glyph-name="glyph263" horiz-adv-x="960" 
d="M1030 1085h-366v-244q0 -93 -9.5 -159.5t-28.5 -112.5t-48 -73.5t-68 -43.5l350 -411l-194 -163l-648 757l195 162l124 -146q73 1 73 145v289h-410v235h1030v-235zM336 -113l-156 -153l-158 153l158 158zM1101 -500l-130 -173l-564 253l131 168z" />
    <glyph glyph-name="glyph264" 
d="M1246 1085h-1246v235h1246v-235zM1198 602l-537 -297l-121 202l132 77q-25 37 -61 54t-84 17q-140 0 -140 -137q0 -74 72.5 -188.5t218.5 -273.5l-227 -100q-78 85 -133.5 149t-84.5 109q-52 78 -81.5 155t-29.5 142q0 185 120 293q111 102 285 102q54 0 106.5 -15.5
t98.5 -42.5t83.5 -64.5t61.5 -81.5l321 173v-273zM344 -203l-156 -153l-158 153l158 158z" />
    <glyph glyph-name="glyph265" horiz-adv-x="1390" 
d="M1460 1085h-1460v235h1460v-235zM1353 587q0 -86 -32 -162.5t-88 -133.5t-131.5 -90t-162.5 -33q-161 0 -276 108q-22 -21 -50 -40t-58 -33q-38 -18 -77.5 -26.5t-79.5 -8.5q-71 0 -134 33t-110 88.5t-74 126.5t-27 148q0 178 118 295q118 121 289 121q79 0 146 -24.5
t124 -76.5q23 21 54 39.5t64.5 32t67.5 21.5t64 8q84 0 153 -30.5t117.5 -83.5t75.5 -125t27 -154zM1095 587q0 140 -132 140q-44 0 -93 -81q-12 -24 -21.5 -43.5t-24.5 -50t-36 -76.5q58 -55 157 -55q30 0 57.5 12t48 34t32.5 52.5t12 67.5zM536 504q46 90 81 165
q-71 58 -162 58q-31 0 -57 -12t-45.5 -33.5t-30.5 -51.5t-11 -66q0 -29 7 -55t20.5 -45.5t32.5 -31t43 -11.5q66 0 122 83zM819 -178l-156 -153l-158 153l158 158z" />
    <glyph glyph-name="glyph266" horiz-adv-x="908" 
d="M936 413q-83 -114 -198 -175t-272 -61q-83 0 -155.5 33.5t-127.5 89.5t-86.5 129.5t-31.5 154.5q0 82 32 154t91.5 125.5t143 84t185.5 30.5q37 0 70.5 -2.5t67.5 -9t71.5 -16.5t84.5 -25v-247q-45 21 -82.5 35t-73 22.5t-72.5 12t-80 3.5q-46 0 -82 -14t-61 -37.5
t-38.5 -54.5t-13.5 -64q0 -36 13.5 -67.5t37 -55t55 -36.5t66.5 -13q58 0 120.5 20.5t122.5 59.5t114.5 95.5t98.5 128.5v-300zM978 1085h-978v235h978v-235zM626 -143l-156 -153l-158 153l158 158z" />
    <glyph glyph-name="glyph267" horiz-adv-x="960" 
d="M832 895q0 -81 -16.5 -156.5t-51 -140t-87.5 -115t-127 -81.5l278 -306l-186 -172l-602 654l187 174l138 -151q38 2 72.5 18.5t62 46t47.5 69.5t29 88q-43 -31 -95.5 -48t-110.5 -17q-76 0 -132.5 22t-94.5 60.5t-57 89t-19 107.5q0 68 27 125.5t73.5 99.5t109.5 65.5
t134 23.5q97 0 175 -32.5t132.5 -92.5t84 -144t29.5 -187zM389 989q14 0 29 3t30 11t30 23t30 38q-22 22 -46.5 35t-50.5 13q-44 0 -71 -20t-27 -55q0 -21 23 -34.5t53 -13.5zM356 -123l-156 -153l-158 153l158 158z" />
    <glyph glyph-name="glyph268" horiz-adv-x="908" 
d="M936 584q-63 -103 -165 -159.5t-227 -56.5q-80 0 -159.5 27.5t-142.5 78.5t-102 124t-39 163v324h-101v235h978v-235h-424l240 -364q44 31 72 59t70 86v-282zM354 966v-164q0 -36 16 -70.5t43 -61t62 -42.5t73 -16q14 0 26.5 1t24.5 3zM690 -23l-156 -153l-158 153
l158 158z" />
    <glyph glyph-name="glyph269" 
d="M1198 506h-603q-16 -30 -40.5 -56t-54.5 -41l311 -368l-194 -163l-598 707l195 164l120 -145q76 9 76 247v234h-410v235h1246v-235h-582v-234q0 -31 -0.5 -59t-2.5 -51h537v-235zM346 -203l-156 -153l-158 153l158 158z" />
    <glyph glyph-name="glyph270" horiz-adv-x="1122" 
d="M1192 1085h-382v-328h-463q-15 0 -25.5 -11t-10.5 -28q0 -25 16 -38.5t48 -13.5h552v-233h-395q-66 0 -109 -12.5t-68 -35.5t-35 -55t-10 -71q0 -70 36.5 -118.5t97 -78.5t139 -43.5t161.5 -13.5l-38 -229q-145 0 -262.5 33.5t-200 95.5t-127 151.5t-44.5 202.5
q0 79 23.5 134t72.5 107q-21 15 -38.5 39.5t-30 55.5t-19.5 67t-7 74q0 56 17.5 103t49.5 81t78 53t102 19h236v93h-556v235h1192v-235zM246 -442l-156 -153l-158 153l158 158z" />
    <glyph glyph-name="glyph271" horiz-adv-x="1024" 
d="M128 0v1320h768v-1320h-768zM256 128h512v1064h-512v-1064z" />
    <glyph glyph-name="glyph272" horiz-adv-x="1024" 
d="M128 0v1320h768v-1320h-768zM256 128h512v1064h-512v-1064z" />
    <glyph glyph-name="glyph273" horiz-adv-x="1602" 
d="M1672 1320v-235h-763v-274q50 32 98.5 46t106.5 14q78 0 141 -26t107.5 -73t68 -113.5t23.5 -148.5q0 -52 -15.5 -107.5t-42 -110.5t-61.5 -106t-74 -93l-157 195q20 21 40 50.5t35.5 60.5t25.5 61t10 53q0 35 -11.5 59t-29 39t-36.5 21.5t-34 6.5q-28 0 -52.5 -8.5
t-47.5 -24t-46.5 -37t-48.5 -46.5v-523h-254v353q-48 -26 -109 -47.5t-123 -21.5q-102 0 -172.5 32t-113.5 81.5t-62 109.5t-19 117q0 74 28 135.5t78 106t120 69.5t154 25q70 0 124.5 -14.5t94.5 -31.5v171h-655v235h1672zM655 658q-17 9 -39.5 20.5t-50 21.5t-60 17
t-69.5 7q-129 0 -129 -89q0 -57 32 -85.5t84 -28.5q28 0 59.5 11.5t62.5 28t59.5 36t50.5 36.5v25zM758 271l-505 -385l-132 167l506 383z" />
    <glyph glyph-name="glyph274" horiz-adv-x="1708" 
d="M1392 426l-97.5 -72.5t-128 -95.5t-147.5 -110t-157 -118l-132 168l192 140q-57 16 -102.5 46.5t-78 74.5t-49.5 99.5t-17 121.5q0 64 25 120t67 97.5t98.5 65.5t119.5 24q31 0 66.5 -8t76.5 -25v-239q-88 32 -114 32q-91 0 -91 -86q0 -25 11.5 -46.5t31.5 -37
t46.5 -24.5t56.5 -9q187 0 323 164v-282zM1458 1085h-824v-196q0 -324 -190 -401l293 -407l-211 -148l-541 759l207 149l95 -129q45 8 69 45t24 103v225h-380v235h1458v-235zM1778 1085h-260v-1085h-254v1085h-17v235h531v-235z" />
    <glyph glyph-name="glyph275" horiz-adv-x="1428" 
d="M1498 1085h-310v-1085h-254v1085h-222v-458q0 -187 -77.5 -281t-249.5 -94q-64 0 -116.5 21.5t-89.5 61t-57.5 95t-20.5 124.5q0 58 23 108t63 87t94 58.5t116 21.5q17 0 31.5 -1t29.5 -3v260h-458v235h1498v-235zM386 495q35 0 53.5 22.5t18.5 84.5q-27 9 -60 9
q-26 0 -45 -17t-19 -40q0 -26 16 -42.5t36 -16.5zM1119 300l-505 -385l-132 167l506 383z" />
    <glyph glyph-name="glyph276" horiz-adv-x="1388" 
d="M1458 1085h-303v-1085h-254v240q-143 -74 -302 -74q-97 0 -178.5 27t-141 75.5t-93 115t-33.5 145.5q0 53 20 104.5t59 93.5q-114 67 -114 222q0 30 7 69t22 67h-147v235h1458v-235zM901 1085h-473q-13 -12 -23 -27.5t-17.5 -32t-11.5 -33t-4 -30.5q0 -93 148 -93h189
v-222h-189q-23 0 -43 -8.5t-35 -24t-24 -37t-9 -48.5q0 -29 15.5 -52.5t42 -40t60.5 -25.5t72 -9q143 0 302 107v576zM1029 281l-505 -385l-132 167l506 383z" />
    <glyph glyph-name="glyph277" 
d="M1246 1085h-305v-324h-527q-54 0 -54 -51q0 -12 6 -23t15 -19.5t19 -13.5t18 -5q24 0 54 5t60.5 11.5t60 11.5t52.5 5q75 0 140 -23.5t113 -65t76 -97t28 -119.5q0 -87 -38 -160.5t-104 -127.5t-155 -84t-191 -30q-298 0 -487 221l183 166q131 -155 304 -155
q45 0 87.5 10t75.5 29.5t53.5 47.5t20.5 63q0 17 -8.5 32.5t-22 27.5t-30 19.5t-32.5 7.5q-21 0 -47 -5t-53 -10.5t-53 -10.5t-47 -5q-79 0 -140.5 20.5t-103.5 59t-64 93.5t-22 124q0 61 21 112.5t59 89.5t90 59.5t114 21.5h275v92h-687v235h1246v-235zM1253 627l-156 -153
l-158 153l158 158zM951 -348l-123 -150l-312 193l-312 -193l-121 150l433 259z" />
    <glyph glyph-name="glyph278" horiz-adv-x="1442" 
d="M1512 1085h-309v-1085h-254v251q-63 -37 -127.5 -54t-133.5 -17q-90 0 -167.5 25.5t-133.5 71t-88 107.5t-32 135q0 93 56 184h-223v235h700v-235h-181q-107 -93 -107 -167q0 -131 180 -131q25 0 59.5 8.5t70 23t69 33.5t58.5 40v575h-949v235h1512v-235zM1074 291
l-505 -385l-132 167l506 383z" />
    <glyph glyph-name="glyph279" horiz-adv-x="1602" 
d="M1672 1085h-532v-54q47 -18 81 -45.5t56 -72t33 -109t12 -155.5q181 -67 181 -237q0 -138 -123 -301l-143 124q67 117 67 164q0 7 -5 17t-15 17q-32 -101 -90 -182.5t-135 -139t-171.5 -89t-199.5 -31.5q-108 0 -198 24.5t-154.5 70t-100.5 110t-36 144.5q0 67 38 127
q-31 21 -56 49.5t-42.5 61t-27 68.5t-9.5 74q0 61 27 115t73 94.5t105.5 64t125.5 23.5q36 0 73 -6.5t73 -18.5v-252q-94 53 -146 53q-35 0 -60 -19.5t-27 -54.5q4 -25 20 -43t44 -26q32 17 70 31t86 25l61 -200q-85 -29 -134 -64.5t-49 -77.5q0 -32 19 -57t51.5 -42
t74.5 -26t88 -9q153 0 259 82q92 70 127 178q-74 15 -133.5 44.5t-101.5 70.5t-65 92.5t-23 110.5q0 84 52 148q40 52 94 74v55h-886v235h1672v-235zM1102 767q0 19 -7 35t-18.5 28t-26 19t-29.5 7q-23 0 -44 -13.5t-21 -34.5q0 -20 11.5 -38t31.5 -33.5t46 -27t56 -17.5
q1 17 1 33v42zM1131 -348l-123 -150l-312 193l-312 -193l-121 150l433 259z" />
    <glyph glyph-name="glyph280" horiz-adv-x="1602" 
d="M1672 1085h-321v-1085h-254v604h-152q33 -78 33 -178q0 -83 -30 -150.5t-84.5 -114.5t-131 -72.5t-170.5 -25.5q-352 0 -523 535l227 72q31 -103 66.5 -176.5t74.5 -120t81 -68t86 -21.5q37 0 68 10t53.5 29.5t35.5 47t13 62.5q0 53 -25.5 100.5t-64.5 70.5h-210v236h653
v245h-1097v235h1672v-235zM1277 141l-505 -385l-132 167l506 383z" />
    <glyph glyph-name="glyph281" horiz-adv-x="1824" 
d="M1532 460l-371 -456l-159 147l225 281h-242q2 -13 4 -27t2 -28q0 -81 -27.5 -149.5t-78.5 -119.5t-124.5 -83t-165.5 -42l174 -254l-218 -135l-260 416q-35 8 -72 27t-72 44.5t-65 56t-49 60.5l177 164q124 -145 298 -145q52 0 96.5 10t77.5 28.5t51.5 45t18.5 59.5
q0 17 -9 32.5t-23.5 27t-32.5 18.5t-36 7q-3 0 -17 -1.5t-34 -3.5t-43.5 -5t-45.5 -6q-46 -5 -87.5 -9.5t-59.5 -4.5q-71 0 -126.5 20t-94 58.5t-59 94.5t-20.5 127q0 66 21.5 118t61.5 88t96.5 55t126.5 19h254v90h-624v235h1574v-235h-696v-324h-536q-19 0 -31 -15
t-12 -35q0 -62 65 -62q6 0 18.5 1.5t28.5 3.5t35 4.5t38 5.5q39 5 74 10.5t60 5.5q29 0 57 -3.5t53 -9.5h804v-207zM1894 1085h-260v-1085h-254v1085h-17v235h531v-235z" />
    <glyph glyph-name="glyph282" horiz-adv-x="1442" 
d="M1512 1085h-309v-1085h-254v506h-126q-9 -72 -44.5 -133.5t-91 -106t-126 -70t-149.5 -25.5q-198 0 -339 190l187 132q82 -94 152 -94q34 0 65 13t54 35.5t37 54t14 68.5q0 38 -12 67t-33.5 49t-51.5 30t-65 10q-89 0 -166 -77l-101 223l115 61q75 36 152 36
q67 0 128 -16.5t111.5 -46.5t88 -72t57.5 -93h144v344h-949v235h1512v-235zM1112 200l-505 -385l-132 167l506 383z" />
    <glyph glyph-name="glyph283" 
d="M1246 1085h-394v-366h-209q-303 0 -303 -211q0 -57 21 -104t58 -80t87 -51.5t109 -18.5q138 0 308 154l178 -177q-218 -224 -493 -224q-106 0 -200.5 38.5t-166 104.5t-113.5 153.5t-42 185.5q0 114 36 201.5t102.5 147.5t160 90.5t213.5 30.5v126h-598v235h1246v-235z
M1031 -348l-123 -150l-312 193l-312 -193l-121 150l433 259z" />
    <glyph glyph-name="glyph284" horiz-adv-x="1282" 
d="M1352 1085h-491v-180q76 -27 138.5 -71.5t106.5 -100.5t68 -122t24 -137q0 -101 -44 -187.5t-119 -150.5t-175 -100t-213 -36q-210 0 -369 124q-179 137 -179 351q0 90 39.5 171.5t108.5 144.5t161.5 102.5t198.5 47.5v144h-607v235h1352v-235zM942 472q0 49 -23.5 93.5
t-64 77.5t-93.5 52.5t-111 19.5t-111 -19t-93.5 -51.5t-65 -77t-24.5 -95.5q0 -52 24 -96.5t64.5 -77t93.5 -51t112 -18.5t112 19t93 52t63.5 77t23.5 95zM1079 -348l-123 -150l-312 193l-312 -193l-121 150l433 259z" />
    <glyph glyph-name="glyph285" horiz-adv-x="1122" 
d="M1192 1085h-251v-324h-536q-22 0 -36.5 -15t-14.5 -38q0 -27 23 -40q29 -18 65 -18q20 0 42.5 3.5t48.5 8.5q68 17 115 17q76 0 140.5 -22t112 -61.5t74.5 -95.5t27 -123q0 -89 -35.5 -162.5t-100 -126t-154.5 -81.5t-199 -29q-290 0 -486 216l173 156q125 -138 313 -138
q50 0 95 10t79.5 28.5t55 46t20.5 63.5q0 19 -9 35.5t-24 29t-34 19.5t-39 7q-21 0 -46 -4.5t-50 -10.5t-49 -10.5t-45 -4.5q-348 0 -348 285q0 61 22 113.5t60.5 90t90 59t111.5 21.5h284v95h-687v235h1192v-235zM949 -348l-123 -150l-312 193l-312 -193l-121 150l433 259z
" />
    <glyph glyph-name="glyph286" 
d="M1246 1085h-398v-378h-227q-296 0 -296 -224q0 -105 53.5 -164.5t157.5 -79.5q-10 23 -16 50.5t-6 53.5q0 124 84 202q77 76 198 76q63 0 113.5 -21.5t86.5 -60t55.5 -90t19.5 -111.5q0 -78 -31 -141t-91 -106.5t-147 -67t-199 -23.5q-120 0 -218 36t-168 102
t-108.5 158.5t-38.5 205.5q0 99 35.5 180.5t99 139.5t151.5 90t193 32h45v141h-594v235h1246v-235zM856 330q0 31 -18.5 53.5t-43.5 22.5q-26 0 -44.5 -22.5t-18.5 -53.5q0 -30 17.5 -53t45.5 -23q26 0 44 23t18 53zM1021 -348l-123 -150l-312 193l-312 -193l-121 150
l433 259z" />
    <glyph glyph-name="glyph287" horiz-adv-x="1640" 
d="M1710 1085h-325v-1085h-253v1085h-223v-408q0 -86 -29 -155.5t-82 -118.5t-127.5 -75.5t-165.5 -26.5q-79 0 -149.5 30.5t-124 82t-85 119.5t-31.5 144v408h-115v235h1710v-235zM655 1085h-286v-408q0 -26 13.5 -48t34 -38.5t45 -26t47.5 -9.5q55 0 102 35q44 35 44 87
v408zM1302 300l-505 -385l-132 167l506 383z" />
    <glyph glyph-name="glyph288" horiz-adv-x="1174" 
d="M924 1085h-924v235h924v-235zM871 415l-603 -261l-90 218l445 183q-108 111 -237 111q-84 0 -181 -119l-96 248q141 114 286 114q124 0 286 -117q131 -98 190 -186v-191zM1244 1085h-260v-1085h-254v1085h-17v235h531v-235z" />
    <glyph glyph-name="glyph289" horiz-adv-x="1442" 
d="M1512 1085h-324v-1085h-254v296q-69 -32 -143.5 -49t-135.5 -17q-82 0 -170 30t-169 84.5t-148.5 130t-106.5 166.5l100 150q70 -34 98 -34q70 0 125.5 33.5t89.5 90.5q-48 -21 -107 -21q-69 0 -122 21t-89 57t-54.5 84.5t-18.5 103.5q0 58 24 109t65.5 88t98 58.5
t121.5 21.5q79 0 144 -27.5t111 -77t71 -118.5t25 -151q0 -78 -23 -153t-64 -138.5t-99.5 -111t-128.5 -69.5q24 -18 53.5 -34t60.5 -29t60.5 -20.5t52.5 -7.5q69 0 143 28t136 72v519h-156v235h734v-235zM361 1060q26 0 61 17t61 57q-19 23 -41.5 36.5t-47.5 13.5
q-78 0 -78 -64q0 -30 15.5 -45t29.5 -15zM1080 261l-505 -385l-132 167l506 383z" />
    <glyph glyph-name="glyph290" 
d="M1246 1085h-385v-368h-238q-87 0 -147 -12.5t-97 -39.5t-53 -69t-16 -100q0 -41 13.5 -76.5t37.5 -61.5t58 -41t75 -15q31 0 65.5 7.5t63 20.5t51.5 31.5t24 36.5l-35 145l242 61l173 -719l-223 -63l-92 332q-33 -25 -75.5 -44t-89.5 -30l-323 -305l-148 157l185 163
q-59 22 -106.5 61.5t-82 92t-53 115.5t-18.5 132q0 105 35.5 190t100.5 144.5t157 92t205 32.5h57v130h-607v235h1246v-235z" />
    <glyph glyph-name="glyph291" horiz-adv-x="1442" 
d="M699 705q-40 -8 -89 -21.5t-91.5 -32.5t-71 -43.5t-28.5 -54.5q0 -58 60 -85.5t172 -27.5q44 0 86.5 9.5t80 24t67.5 31.5t48 32v548h-168v235h747v-235h-325v-1085h-254v253q-53 -23 -128 -43t-166 -20q-49 0 -104 5.5t-108 19t-101 37.5t-84.5 61.5t-58 90t-21.5 123.5
q0 42 14 87t40 87q-186 109 -186 335q0 88 26 159.5t73.5 122.5t114 84t147.5 33q60 0 106.5 -19.5t83.5 -54.5t60 -83.5t23 -105.5q0 -59 -22 -103t-57.5 -73.5t-80 -44.5t-90.5 -15q-66 0 -120 24q18 -34 49 -59.5t70 -36.5q38 17 90.5 34.5t121.5 35.5zM409 1144
q16 0 29 9t13 26q0 20 -13.5 35.5t-40.5 15.5q-42 0 -74 -23q16 -26 36.5 -44.5t49.5 -18.5zM1097 301l-505 -385l-132 167l506 383z" />
    <glyph glyph-name="glyph292" horiz-adv-x="1388" 
d="M1458 1085h-305v-1085h-254v588h-306q8 -20 13.5 -46.5t5.5 -54.5q0 -326 -284 -326q-68 0 -123.5 24.5t-95.5 68t-61.5 102.5t-21.5 128q0 339 371 339h502v262h-899v235h1458v-235zM267 477q0 -83 61 -83q50 0 50 93q0 33 -10.5 59t-30.5 42q-40 -15 -55 -40t-15 -71z
M1112 280l-505 -385l-132 167l506 383z" />
    <glyph glyph-name="glyph293" horiz-adv-x="1228" 
d="M1298 1085h-291v-1085h-254v407q-90 -39 -194 -39q-176 0 -301 105q-142 114 -142 288v324h-116v235h1298v-235zM753 1085h-383v-283q0 -92 63 -143q59 -44 144 -44q95 0 176 64v406zM882 380l-505 -385l-132 167l506 383z" />
    <glyph glyph-name="glyph294" horiz-adv-x="1602" 
d="M1672 1085h-763v-163q32 13 61.5 17.5t64.5 4.5q91 0 168 -28.5t133 -80.5t87.5 -125.5t31.5 -163.5q0 -56 -13.5 -113.5t-42.5 -113.5t-74.5 -109.5t-110.5 -101.5l-140 194q125 113 125 244q0 77 -44.5 119.5t-119.5 42.5q-86 0 -126 -57v-651h-254v389
q-91 -44 -193 -44q-74 0 -137.5 33.5t-110.5 89.5t-74 129.5t-27 154.5v333h-113v235h1672v-235zM655 1085h-288v-339q0 -35 8 -65.5t22.5 -53t35.5 -36t48 -13.5q51 0 95 24t79 66v417zM752 380l-505 -385l-132 167l506 383z" />
    <glyph glyph-name="glyph295" horiz-adv-x="1228" 
d="M1298 1085h-291v-1085h-254v251q-64 -38 -132 -57t-137 -19q-84 0 -158.5 32t-131 87t-89 129t-32.5 158q0 87 35 159t96.5 124t144.5 80.5t178 28.5q71 0 127 -13t99 -30v155h-753v235h1298v-235zM753 688q-23 11 -50.5 22t-56.5 20t-58 14.5t-55 5.5h-17.5t-17.5 -1
q55 -61 107 -120t112 -126l36 29v156zM322 630q-5 -13 -8 -28t-3 -29q0 -36 15 -67t41 -54t60.5 -36t72.5 -13h11.5t11.5 1zM862 251l-505 -385l-132 167l506 383z" />
    <glyph glyph-name="glyph296" horiz-adv-x="1496" 
d="M1566 1085h-327v-1085h-254v506h-281v-89q0 -72 -23.5 -129t-67.5 -96t-107.5 -60t-143.5 -21q-63 0 -118 24t-95.5 65t-64 97t-23.5 120q0 324 353 324h30v88q-17 -5 -37 -7.5t-43 -2.5q-64 0 -116 20.5t-89 57.5t-57 88.5t-20 112.5q0 71 23 128.5t64 98.5t96.5 63.5
t121.5 22.5q84 0 144 -22.5t98.5 -73.5t56.5 -134t18 -204v-236h281v344h-201v235h782v-235zM444 506h-34q-37 0 -61.5 -5.5t-39.5 -17.5t-21.5 -30.5t-6.5 -43.5q0 -19 5.5 -36t14.5 -30t22 -21t28 -8q93 0 93 123v69zM355 1034q29 0 48 6t41 20q0 108 -64 118
q-38 0 -59.5 -17.5t-21.5 -53.5q0 -73 56 -73zM1204 430l-368 -351l-127 159l368 351z" />
    <glyph glyph-name="glyph297" horiz-adv-x="1496" 
d="M1566 1085h-314v-1085h-254v506h-368q-1 -89 -22 -154t-60 -107.5t-94.5 -63t-125.5 -20.5q-63 0 -112.5 23.5t-84 64t-52.5 95t-18 115.5q0 49 18.5 99t56.5 90.5t97.5 66.5t142.5 26v344h-376v235h1566v-235zM998 741v344h-368v-344h368zM376 506q-53 0 -72 -16.5
t-19 -47.5q0 -22 8.5 -38.5t31.5 -16.5q16 0 26 10.5t15.5 23.5t7.5 32t2 40v13zM1211 432l-368 -351l-127 159l368 351z" />
    <glyph glyph-name="glyph298" horiz-adv-x="1388" 
d="M1458 1085h-303v-1085h-254v296q-63 -29 -133 -45.5t-141 -16.5q-313 0 -557 402l105 153q77 -29 116 -29q75 0 117.5 39t42.5 112q0 24 -9.5 54t-24.5 56.5t-33 45t-34 18.5h-350v235h1458v-235zM901 1085h-232q21 -36 30.5 -83.5t9.5 -92.5q0 -59 -20 -117
t-56.5 -106.5t-87.5 -84t-112 -49.5q21 -17 46.5 -29.5t51.5 -21t51 -12.5t47 -4q142 0 272 94v506zM1005 281l-505 -385l-132 167l506 383z" />
    <glyph glyph-name="glyph299" horiz-adv-x="1024" 
d="M128 0v1320h768v-1320h-768zM256 128h512v1064h-512v-1064z" />
    <glyph glyph-name="glyph300" horiz-adv-x="1496" 
d="M1566 1085h-313v-1085h-254v487l-334 -184l-126 204l133 77q-25 37 -61 54t-84 17q-140 0 -140 -137q0 -145 290 -462l-227 -100q-78 85 -133 149t-85 109q-53 78 -82 155.5t-29 141.5q0 185 120 293q111 102 286 102q54 0 106 -15.5t98 -42.5t83.5 -64.5t62.5 -81.5
l122 66v317h-999v235h1566v-235zM1211 295l-368 -351l-127 159l368 351z" />
    <glyph glyph-name="glyph301" horiz-adv-x="1602" 
d="M1672 1085h-469v-185q58 -11 112 -50t94.5 -96t65 -127.5t24.5 -144.5q0 -107 -33 -195.5t-93.5 -152.5t-146 -99t-189.5 -35q-175 0 -295 109q-32 -33 -58.5 -54t-57.5 -33.5t-69 -17t-92 -4.5q-96 0 -171 31.5t-126.5 91t-79 143.5t-27.5 189q0 92 34 175t93.5 145.5
t140.5 99t175 36.5q186 0 309 -102q32 29 66.5 49t69.5 30v197h-949v235h1672v-235zM1240 482q0 40 -11.5 73t-32.5 55.5t-49.5 35t-62.5 12.5q-86 0 -144 -125l-19 -57t-17.5 -53.5t-17.5 -53.5t-19 -58q14 -12 31.5 -22t40.5 -17q54 -19 104 -19q94 0 145.5 61.5
t51.5 167.5zM696 597q-76 61 -192 61q-41 0 -74.5 -16t-58 -43.5t-38 -64.5t-13.5 -79q0 -97 38 -149.5t107 -52.5q66 0 111.5 51.5t78.5 157.5l14 46t13 46zM1481 -339l-123 -150l-312 193l-312 -193l-121 150l433 259z" />
    <glyph glyph-name="glyph302" horiz-adv-x="1228" 
d="M1298 1085h-291v-1085h-254v236q-66 -35 -133 -48t-136 -13q-84 0 -157.5 32t-128 87t-85.5 129t-31 158q0 87 33.5 159t93 124t141 80.5t177.5 28.5q71 0 127 -13t99 -30v155h-753v235h1298v-235zM753 688q-23 11 -50.5 22t-56.5 20t-58 14.5t-55 5.5q-49 0 -84 -9
t-58.5 -24t-37.5 -34.5t-21.5 -39t-9.5 -38t-2 -32.5q0 -36 14 -67t38 -54t57 -36t71 -13q46 0 86.5 12t73 28.5t56 35t37.5 31.5v178zM864 271l-505 -385l-132 167l506 383z" />
    <glyph glyph-name="glyph303" horiz-adv-x="1442" 
d="M1192 1085h-303v235h303v-235zM1149 472l-116 52l-487 -376l-159 177l376 297l-240 100l-418 -326l-152 202l318 250q-41 45 -63 100t-22 116q0 59 26 112.5t69.5 94.5t99 65.5t115.5 24.5q67 0 124.5 -21.5t99 -60t65 -92t23.5 -116.5q0 -96 -50 -178l391 -155v-266z
M552 1051q0 25 -17.5 42.5t-40.5 17.5t-41 -17.5t-18 -42.5q0 -26 17.5 -44t41.5 -18t41 18t17 44zM1512 1085h-260v-1085h-254v1085h-17v235h531v-235z" />
    <glyph glyph-name="glyph304" horiz-adv-x="1228" 
d="M1298 1085h-291v-1085h-254v406q-83 -38 -194 -38q-176 0 -301 105q-142 114 -142 288v324h-116v235h1298v-235zM753 825v260h-207zM370 929v-127q0 -73 60 -132q61 -58 133 -58q34 0 62 7zM835 390l-505 -385l-132 167l506 383z" />
    <glyph glyph-name="glyph305" horiz-adv-x="1496" 
d="M1566 1085h-313v-1085h-254v506h-404q-17 -30 -41.5 -56t-53.5 -41l311 -368l-194 -163l-599 707l195 164l120 -145q77 9 77 247v234h-410v235h1566v-235zM999 741v344h-335v-234q0 -31 -0.5 -59t-2.5 -51h338zM1227 448l-368 -351l-127 159l368 351z" />
    <glyph glyph-name="glyph306" 
d="M1246 1085h-395v-324h-463q-30 0 -51.5 -21.5t-21.5 -50.5q0 -17 4 -31.5t15 -25.5q51 23 111 36t137 13q89 0 159 -17t123.5 -46t91 -67.5t61 -82t34.5 -89t11 -87.5q0 -51 -18 -96t-43.5 -83.5t-53.5 -68.5t-48 -49l-169 164q10 11 20 21q8 8 23 25t30.5 37t15.5 48
q0 6 -2 16t-10 24l-269 -243l-157 165l204 184q-66 0 -112 -15.5t-76 -40.5t-44.5 -56.5t-14.5 -63.5q0 -71 29 -122t75 -89t101.5 -66t108.5 -51l82 -35l-122 -202q-59 17 -120.5 43t-120 62t-109.5 82.5t-89.5 103.5t-61 125.5t-22.5 149.5q0 44 15 102t52 115
q-44 44 -67 97.5t-23 113.5q0 61 22 116t61.5 96.5t93.5 66t118 24.5h236v93h-597v235h1246v-235z" />
    <glyph glyph-name="glyph307" horiz-adv-x="1618" 
d="M1298 1085h-452v235h452v-235zM1234 653h-793q-47 -36 -76.5 -61.5t-46.5 -47t-23 -42.5t-6 -47q0 -15 4.5 -34t16 -34.5t27 -27.5t48.5 -12q43 0 65.5 24t24.5 69l-35 103l237 86l231 -634l-240 -86l-100 278q-80 -84 -211 -84q-67 0 -125 28.5t-101 77t-68 112.5
t-25 134q0 91 42 167.5t138 148.5q-27 19 -48.5 46.5t-36.5 60t-23.5 68.5t-8.5 72q0 69 27 129.5t73.5 105.5t108.5 70.5t131 25.5q74 0 134 -25t102 -69.5t65 -105t23 -131.5q0 -70 -33 -130h502v-235zM521 1018q0 17 -7 33t-18.5 28.5t-25.5 20t-29 7.5q-41 0 -64.5 -25
t-23.5 -64q0 -43 22.5 -74t65.5 -51q41 23 60.5 54.5t19.5 70.5zM1690 1085h-260v-1085h-254v1085h-17v235h531v-235zM1344 467l-368 -351l-127 159l368 351z" />
    <glyph glyph-name="glyph308" horiz-adv-x="1640" 
d="M1352 1085h-1352v235h1352v-235zM1293 693h-375q10 -29 13.5 -59t3.5 -65q0 -74 -25.5 -130.5t-63.5 -98.5t-82 -71t-82 -46l107 -114l-166 -167l-461 470l172 166l158 -160q31 3 65.5 12.5t63 29t47 50.5t18.5 76q0 30 -9.5 59t-41.5 48h-192v236h850v-236zM1710 1085
h-260v-1085h-254v1085h-17v235h531v-235zM1374 357l-368 -351l-127 159l368 351z" />
    <glyph glyph-name="glyph309" horiz-adv-x="1602" 
d="M1672 1320v-235h-763v-274q50 32 98.5 46t106.5 14q78 0 141 -26t107.5 -73t68 -113.5t23.5 -148.5q0 -52 -15.5 -107.5t-42 -110.5t-61.5 -106t-74 -93l-157 195q20 21 40 50.5t35.5 60.5t25.5 61t10 53q0 35 -11.5 59t-29 39t-36.5 21.5t-34 6.5q-28 0 -52.5 -8.5
t-47.5 -24t-46.5 -37t-48.5 -46.5v-523h-254v353q-48 -26 -109 -47.5t-123 -21.5q-102 0 -172.5 32t-113.5 81.5t-62 109.5t-19 117q0 74 28 135.5t78 106t120 69.5t154 25q70 0 124.5 -14.5t94.5 -31.5v171h-655v235h1672zM655 658q-17 9 -39.5 20.5t-50 21.5t-60 17
t-69.5 7q-129 0 -129 -89q0 -57 32 -85.5t84 -28.5q28 0 59.5 11.5t62.5 28t59.5 36t50.5 36.5v25zM762 340l-505 -385l-132 167l506 383zM663 -203l-156 -153l-158 153l158 158z" />
    <glyph glyph-name="glyph310" horiz-adv-x="1708" 
d="M1392 426l-97.5 -72.5t-128 -95.5t-147.5 -110t-157 -118l-132 168l192 140q-57 16 -102.5 46.5t-78 74.5t-49.5 99.5t-17 121.5q0 64 25 120t67 97.5t98.5 65.5t119.5 24q31 0 66.5 -8t76.5 -25v-239q-88 32 -114 32q-91 0 -91 -86q0 -25 11.5 -46.5t31.5 -37
t46.5 -24.5t56.5 -9q187 0 323 164v-282zM1458 1085h-824v-196q0 -324 -190 -401l293 -407l-211 -148l-541 759l207 149l95 -129q45 8 69 45t24 103v225h-380v235h1458v-235zM1778 1085h-260v-1085h-254v1085h-17v235h531v-235zM316 -123l-156 -153l-158 153l158 158z" />
    <glyph glyph-name="glyph311" horiz-adv-x="1428" 
d="M1498 1085h-310v-1085h-254v1085h-222v-458q0 -187 -77.5 -281t-249.5 -94q-64 0 -116.5 21.5t-89.5 61t-57.5 95t-20.5 124.5q0 58 23 108t63 87t94 58.5t116 21.5q17 0 31.5 -1t29.5 -3v260h-458v235h1498v-235zM386 495q35 0 53.5 22.5t18.5 84.5q-27 9 -60 9
q-26 0 -45 -17t-19 -40q0 -26 16 -42.5t36 -16.5zM1162 320l-505 -385l-132 167l506 383zM970 -292l-156 -153l-158 153l158 158z" />
    <glyph glyph-name="glyph312" horiz-adv-x="1388" 
d="M1458 1085h-303v-1085h-254v240q-143 -74 -302 -74q-97 0 -178.5 27t-141 75.5t-93 115t-33.5 145.5q0 53 20 104.5t59 93.5q-114 67 -114 222q0 30 7 69t22 67h-147v235h1458v-235zM901 1085h-473q-13 -12 -23 -27.5t-17.5 -32t-11.5 -33t-4 -30.5q0 -93 148 -93h189
v-222h-189q-23 0 -43 -8.5t-35 -24t-24 -37t-9 -48.5q0 -29 15.5 -52.5t42 -40t60.5 -25.5t72 -9q143 0 302 107v576zM1029 281l-505 -385l-132 167l506 383zM920 -283l-156 -153l-158 153l158 158z" />
    <glyph glyph-name="glyph313" 
d="M1246 1085h-305v-324h-527q-54 0 -54 -51q0 -12 6 -23t15 -19.5t19 -13.5t18 -5q24 0 54 5t60.5 11.5t60 11.5t52.5 5q75 0 140 -23.5t113 -65t76 -97t28 -119.5q0 -87 -38 -160.5t-104 -127.5t-155 -84t-191 -30q-298 0 -487 221l183 166q131 -155 304 -155
q45 0 87.5 10t75.5 29.5t53.5 47.5t20.5 63q0 17 -8.5 32.5t-22 27.5t-30 19.5t-32.5 7.5q-21 0 -47 -5t-53 -10.5t-53 -10.5t-47 -5q-79 0 -140.5 20.5t-103.5 59t-64 93.5t-22 124q0 61 21 112.5t59 89.5t90 59.5t114 21.5h275v92h-687v235h1246v-235zM1253 627l-156 -153
l-158 153l158 158zM662 -240l-156 -153l-158 153l158 158zM941 -693l-123 -150l-312 193l-312 -193l-121 150l433 259z" />
    <glyph glyph-name="glyph314" horiz-adv-x="1442" 
d="M1512 1085h-309v-1085h-254v251q-63 -37 -127.5 -54t-133.5 -17q-90 0 -167.5 25.5t-133.5 71t-88 107.5t-32 135q0 93 56 184h-223v235h700v-235h-181q-107 -93 -107 -167q0 -131 180 -131q25 0 59.5 8.5t70 23t69 33.5t58.5 40v575h-949v235h1512v-235zM1074 291
l-505 -385l-132 167l506 383zM981 -263l-156 -153l-158 153l158 158z" />
    <glyph glyph-name="glyph315" horiz-adv-x="1602" 
d="M1672 1085h-532v-54q47 -18 81 -45.5t56 -72t33 -109t12 -155.5q181 -67 181 -237q0 -138 -123 -301l-143 124q67 117 67 164q0 7 -5 17t-15 17q-32 -101 -90 -182.5t-135 -139t-171.5 -89t-199.5 -31.5q-108 0 -198 24.5t-154.5 70t-100.5 110t-36 144.5q0 67 38 127
q-31 21 -56 49.5t-42.5 61t-27 68.5t-9.5 74q0 61 27 115t73 94.5t105.5 64t125.5 23.5q36 0 73 -6.5t73 -18.5v-252q-94 53 -146 53q-35 0 -60 -19.5t-27 -54.5q4 -25 20 -43t44 -26q32 17 70 31t86 25l61 -200q-85 -29 -134 -64.5t-49 -77.5q0 -32 19 -57t51.5 -42
t74.5 -26t88 -9q153 0 259 82q92 70 127 178q-74 15 -133.5 44.5t-101.5 70.5t-65 92.5t-23 110.5q0 84 52 148q40 52 94 74v55h-886v235h1672v-235zM1102 767q0 19 -7 35t-18.5 28t-26 19t-29.5 7q-23 0 -44 -13.5t-21 -34.5q0 -20 11.5 -38t31.5 -33.5t46 -27t56 -17.5
q1 17 1 33v42zM872 -240l-156 -153l-158 153l158 158zM1151 -693l-123 -150l-312 193l-312 -193l-121 150l433 259z" />
    <glyph glyph-name="glyph316" horiz-adv-x="1602" 
d="M1672 1085h-321v-1085h-254v604h-152q33 -78 33 -178q0 -83 -30 -150.5t-84.5 -114.5t-131 -72.5t-170.5 -25.5q-352 0 -523 535l227 72q31 -103 66.5 -176.5t74.5 -120t81 -68t86 -21.5q37 0 68 10t53.5 29.5t35.5 47t13 62.5q0 53 -25.5 100.5t-64.5 70.5h-210v236h653
v245h-1097v235h1672v-235zM1317 174l-505 -385l-132 167l506 383zM516 -223l-156 -153l-158 153l158 158z" />
    <glyph glyph-name="glyph317" horiz-adv-x="1824" 
d="M1532 460l-371 -456l-159 147l225 281h-242q2 -13 4 -27t2 -28q0 -81 -27.5 -149.5t-78.5 -119.5t-124.5 -83t-165.5 -42l174 -254l-218 -135l-260 416q-35 8 -72 27t-72 44.5t-65 56t-49 60.5l177 164q124 -145 298 -145q52 0 96.5 10t77.5 28.5t51.5 45t18.5 59.5
q0 17 -9 32.5t-23.5 27t-32.5 18.5t-36 7q-3 0 -17 -1.5t-34 -3.5t-43.5 -5t-45.5 -6q-46 -5 -87.5 -9.5t-59.5 -4.5q-71 0 -126.5 20t-94 58.5t-59 94.5t-20.5 127q0 66 21.5 118t61.5 88t96.5 55t126.5 19h254v90h-624v235h1574v-235h-696v-324h-536q-19 0 -31 -15
t-12 -35q0 -62 65 -62q6 0 18.5 1.5t28.5 3.5t35 4.5t38 5.5q39 5 74 10.5t60 5.5q29 0 57 -3.5t53 -9.5h804v-207zM1894 1085h-260v-1085h-254v1085h-17v235h531v-235zM276 -292l-156 -153l-158 153l158 158z" />
    <glyph glyph-name="glyph318" horiz-adv-x="1442" 
d="M1512 1085h-309v-1085h-254v506h-126q-9 -72 -44.5 -133.5t-91 -106t-126 -70t-149.5 -25.5q-198 0 -339 190l187 132q82 -94 152 -94q34 0 65 13t54 35.5t37 54t14 68.5q0 38 -12 67t-33.5 49t-51.5 30t-65 10q-89 0 -166 -77l-101 223l115 61q75 36 152 36
q67 0 128 -16.5t111.5 -46.5t88 -72t57.5 -93h144v344h-949v235h1512v-235zM1176 281l-505 -385l-132 167l506 383zM499 -243l-156 -153l-158 153l158 158z" />
    <glyph glyph-name="glyph319" 
d="M1246 1085h-394v-366h-209q-303 0 -303 -211q0 -57 21 -104t58 -80t87 -51.5t109 -18.5q138 0 308 154l178 -177q-218 -224 -493 -224q-106 0 -200.5 38.5t-166 104.5t-113.5 153.5t-42 185.5q0 114 36 201.5t102.5 147.5t160 90.5t213.5 30.5v126h-598v235h1246v-235z
M753 -240l-156 -153l-158 153l158 158zM1031 -693l-123 -150l-312 193l-312 -193l-121 150l433 259z" />
    <glyph glyph-name="glyph320" horiz-adv-x="1282" 
d="M1352 1085h-491v-180q76 -27 138.5 -71.5t106.5 -100.5t68 -122t24 -137q0 -101 -44 -187.5t-119 -150.5t-175 -100t-213 -36q-210 0 -369 124q-179 137 -179 351q0 90 39.5 171.5t108.5 144.5t161.5 102.5t198.5 47.5v144h-607v235h1352v-235zM942 472q0 49 -23.5 93.5
t-64 77.5t-93.5 52.5t-111 19.5t-111 -19t-93.5 -51.5t-65 -77t-24.5 -95.5q0 -52 24 -96.5t64.5 -77t93.5 -51t112 -18.5t112 19t93 52t63.5 77t23.5 95zM809 -240l-156 -153l-158 153l158 158zM1091 -693l-123 -150l-312 193l-312 -193l-121 150l433 259z" />
    <glyph glyph-name="glyph321" horiz-adv-x="1122" 
d="M1192 1085h-251v-324h-536q-22 0 -36.5 -15t-14.5 -38q0 -27 23 -40q29 -18 65 -18q20 0 42.5 3.5t48.5 8.5q68 17 115 17q76 0 140.5 -22t112 -61.5t74.5 -95.5t27 -123q0 -89 -35.5 -162.5t-100 -126t-154.5 -81.5t-199 -29q-290 0 -486 216l173 156q125 -138 313 -138
q50 0 95 10t79.5 28.5t55 46t20.5 63.5q0 19 -9 35.5t-24 29t-34 19.5t-39 7q-21 0 -46 -4.5t-50 -10.5t-49 -10.5t-45 -4.5q-348 0 -348 285q0 61 22 113.5t60.5 90t90 59t111.5 21.5h284v95h-687v235h1192v-235zM666 -240l-156 -153l-158 153l158 158zM949 -693l-123 -150
l-312 193l-312 -193l-121 150l433 259z" />
    <glyph glyph-name="glyph322" 
d="M1246 1085h-398v-378h-227q-296 0 -296 -224q0 -105 53.5 -164.5t157.5 -79.5q-10 23 -16 50.5t-6 53.5q0 124 84 202q77 76 198 76q63 0 113.5 -21.5t86.5 -60t55.5 -90t19.5 -111.5q0 -78 -31 -141t-91 -106.5t-147 -67t-199 -23.5q-120 0 -218 36t-168 102
t-108.5 158.5t-38.5 205.5q0 99 35.5 180.5t99 139.5t151.5 90t193 32h45v141h-594v235h1246v-235zM856 330q0 31 -18.5 53.5t-43.5 22.5q-26 0 -44.5 -22.5t-18.5 -53.5q0 -30 17.5 -53t45.5 -23q26 0 44 23t18 53zM775 -240l-156 -153l-158 153l158 158zM1059 -693
l-123 -150l-312 193l-312 -193l-121 150l433 259z" />
    <glyph glyph-name="glyph323" horiz-adv-x="1640" 
d="M1710 1085h-325v-1085h-253v1085h-223v-408q0 -86 -29 -155.5t-82 -118.5t-127.5 -75.5t-165.5 -26.5q-79 0 -149.5 30.5t-124 82t-85 119.5t-31.5 144v408h-115v235h1710v-235zM655 1085h-286v-408q0 -26 13.5 -48t34 -38.5t45 -26t47.5 -9.5q55 0 102 35q44 35 44 87
v408zM1302 340l-505 -385l-132 167l506 383zM596 -3l-156 -153l-158 153l158 158z" />
    <glyph glyph-name="glyph324" horiz-adv-x="1174" 
d="M924 1085h-924v235h924v-235zM871 415l-603 -261l-90 218l445 183q-108 111 -237 111q-84 0 -181 -119l-96 248q141 114 286 114q124 0 286 -117q131 -98 190 -186v-191zM1244 1085h-260v-1085h-254v1085h-17v235h531v-235zM606 -155l-156 -153l-158 153l158 158z" />
    <glyph glyph-name="glyph325" horiz-adv-x="1442" 
d="M1512 1085h-324v-1085h-254v296q-69 -32 -143.5 -49t-135.5 -17q-82 0 -170 30t-169 84.5t-148.5 130t-106.5 166.5l100 150q70 -34 98 -34q70 0 125.5 33.5t89.5 90.5q-48 -21 -107 -21q-69 0 -122 21t-89 57t-54.5 84.5t-18.5 103.5q0 58 24 109t65.5 88t98 58.5
t121.5 21.5q79 0 144 -27.5t111 -77t71 -118.5t25 -151q0 -78 -23 -153t-64 -138.5t-99.5 -111t-128.5 -69.5q24 -18 53.5 -34t60.5 -29t60.5 -20.5t52.5 -7.5q69 0 143 28t136 72v519h-156v235h734v-235zM361 1060q26 0 61 17t61 57q-19 23 -41.5 36.5t-47.5 13.5
q-78 0 -78 -64q0 -30 15.5 -45t29.5 -15zM1080 340l-505 -385l-132 167l506 383zM316 -3l-156 -153l-158 153l158 158z" />
    <glyph glyph-name="glyph326" 
d="M1246 1085h-385v-368h-238q-87 0 -147 -12.5t-97 -39.5t-53 -69t-16 -100q0 -41 13.5 -76.5t37.5 -61.5t58 -41t75 -15q31 0 65.5 7.5t63 20.5t51.5 31.5t24 36.5l-35 145l242 61l173 -719l-223 -63l-92 332q-33 -25 -75.5 -44t-89.5 -30l-323 -305l-148 157l185 163
q-59 22 -106.5 61.5t-82 92t-53 115.5t-18.5 132q0 105 35.5 190t100.5 144.5t157 92t205 32.5h57v130h-607v235h1246v-235zM776 -223l-156 -153l-158 153l158 158z" />
    <glyph glyph-name="glyph327" horiz-adv-x="1442" 
d="M699 705q-40 -8 -89 -21.5t-91.5 -32.5t-71 -43.5t-28.5 -54.5q0 -58 60 -85.5t172 -27.5q44 0 86.5 9.5t80 24t67.5 31.5t48 32v548h-168v235h747v-235h-325v-1085h-254v253q-53 -23 -128 -43t-166 -20q-49 0 -104 5.5t-108 19t-101 37.5t-84.5 61.5t-58 90t-21.5 123.5
q0 42 14 87t40 87q-186 109 -186 335q0 88 26 159.5t73.5 122.5t114 84t147.5 33q60 0 106.5 -19.5t83.5 -54.5t60 -83.5t23 -105.5q0 -59 -22 -103t-57.5 -73.5t-80 -44.5t-90.5 -15q-66 0 -120 24q18 -34 49 -59.5t70 -36.5q38 17 90.5 34.5t121.5 35.5zM409 1144
q16 0 29 9t13 26q0 20 -13.5 35.5t-40.5 15.5q-42 0 -74 -23q16 -26 36.5 -44.5t49.5 -18.5zM1097 301l-505 -385l-132 167l506 383zM974 -263l-156 -153l-158 153l158 158z" />
    <glyph glyph-name="glyph328" horiz-adv-x="1388" 
d="M1458 1085h-305v-1085h-254v588h-306q8 -20 13.5 -46.5t5.5 -54.5q0 -326 -284 -326q-68 0 -123.5 24.5t-95.5 68t-61.5 102.5t-21.5 128q0 339 371 339h502v262h-899v235h1458v-235zM267 477q0 -83 61 -83q50 0 50 93q0 33 -10.5 59t-30.5 42q-40 -15 -55 -40t-15 -71z
M1112 340l-505 -385l-132 167l506 383zM916 -243l-156 -153l-158 153l158 158z" />
    <glyph glyph-name="glyph329" horiz-adv-x="1228" 
d="M1298 1085h-291v-1085h-254v407q-90 -39 -194 -39q-176 0 -301 105q-142 114 -142 288v324h-116v235h1298v-235zM753 1085h-383v-283q0 -92 63 -143q59 -44 144 -44q95 0 176 64v406zM895 360l-505 -385l-132 167l506 383zM803 -243l-156 -153l-158 153l158 158z" />
    <glyph glyph-name="glyph330" horiz-adv-x="1602" 
d="M1672 1085h-763v-163q32 13 61.5 17.5t64.5 4.5q91 0 168 -28.5t133 -80.5t87.5 -125.5t31.5 -163.5q0 -56 -13.5 -113.5t-42.5 -113.5t-74.5 -109.5t-110.5 -101.5l-140 194q125 113 125 244q0 77 -44.5 119.5t-119.5 42.5q-86 0 -126 -57v-651h-254v389
q-91 -44 -193 -44q-74 0 -137.5 33.5t-110.5 89.5t-74 129.5t-27 154.5v333h-113v235h1672v-235zM655 1085h-288v-339q0 -35 8 -65.5t22.5 -53t35.5 -36t48 -13.5q51 0 95 24t79 66v417zM732 400l-505 -385l-132 167l506 383zM636 -203l-156 -153l-158 153l158 158z" />
    <glyph glyph-name="glyph331" horiz-adv-x="1228" 
d="M1298 1085h-291v-1085h-254v251q-64 -38 -132 -57t-137 -19q-84 0 -158.5 32t-131 87t-89 129t-32.5 158q0 87 35 159t96.5 124t144.5 80.5t178 28.5q71 0 127 -13t99 -30v155h-753v235h1298v-235zM753 688q-23 11 -50.5 22t-56.5 20t-58 14.5t-55 5.5h-17.5t-17.5 -1
q55 -61 107 -120t112 -126l36 29v156zM322 630q-5 -13 -8 -28t-3 -29q0 -36 15 -67t41 -54t60.5 -36t72.5 -13h11.5t11.5 1zM832 271l-505 -385l-132 167l506 383zM776 -243l-156 -153l-158 153l158 158z" />
    <glyph glyph-name="glyph332" horiz-adv-x="1496" 
d="M1566 1085h-327v-1085h-254v506h-281v-89q0 -72 -23.5 -129t-67.5 -96t-107.5 -60t-143.5 -21q-63 0 -118 24t-95.5 65t-64 97t-23.5 120q0 324 353 324h30v88q-17 -5 -37 -7.5t-43 -2.5q-64 0 -116 20.5t-89 57.5t-57 88.5t-20 112.5q0 71 23 128.5t64 98.5t96.5 63.5
t121.5 22.5q84 0 144 -22.5t98.5 -73.5t56.5 -134t18 -204v-236h281v344h-201v235h782v-235zM444 506h-34q-37 0 -61.5 -5.5t-39.5 -17.5t-21.5 -30.5t-6.5 -43.5q0 -19 5.5 -36t14.5 -30t22 -21t28 -8q93 0 93 123v69zM355 1034q29 0 48 6t41 20q0 108 -64 118
q-38 0 -59.5 -17.5t-21.5 -53.5q0 -73 56 -73zM1209 430l-368 -351l-127 159l368 351zM563 -194l-156 -153l-158 153l158 158z" />
    <glyph glyph-name="glyph333" horiz-adv-x="1496" 
d="M1566 1085h-314v-1085h-254v506h-368q-1 -89 -22 -154t-60 -107.5t-94.5 -63t-125.5 -20.5q-63 0 -112.5 23.5t-84 64t-52.5 95t-18 115.5q0 49 18.5 99t56.5 90.5t97.5 66.5t142.5 26v344h-376v235h1566v-235zM998 741v344h-368v-344h368zM376 506q-53 0 -72 -16.5
t-19 -47.5q0 -22 8.5 -38.5t31.5 -16.5q16 0 26 10.5t15.5 23.5t7.5 32t2 40v13zM1211 432l-368 -351l-127 159l368 351zM562 -194l-156 -153l-158 153l158 158z" />
    <glyph glyph-name="glyph334" horiz-adv-x="1388" 
d="M1458 1085h-303v-1085h-254v296q-63 -29 -133 -45.5t-141 -16.5q-313 0 -557 402l105 153q77 -29 116 -29q75 0 117.5 39t42.5 112q0 24 -9.5 54t-24.5 56.5t-33 45t-34 18.5h-350v235h1458v-235zM901 1085h-232q21 -36 30.5 -83.5t9.5 -92.5q0 -59 -20 -117
t-56.5 -106.5t-87.5 -84t-112 -49.5q21 -17 46.5 -29.5t51.5 -21t51 -12.5t47 -4q142 0 272 94v506zM985 301l-505 -385l-132 167l506 383zM236 -83l-156 -153l-158 153l158 158z" />
    <glyph glyph-name="glyph335" horiz-adv-x="1024" 
d="M128 0v1320h768v-1320h-768zM256 128h512v1064h-512v-1064z" />
    <glyph glyph-name="glyph336" horiz-adv-x="1496" 
d="M1566 1085h-313v-1085h-254v487l-334 -184l-126 204l133 77q-25 37 -61 54t-84 17q-140 0 -140 -137q0 -145 290 -462l-227 -100q-78 85 -133 149t-85 109q-53 78 -82 155.5t-29 141.5q0 185 120 293q111 102 286 102q54 0 106 -15.5t98 -42.5t83.5 -64.5t62.5 -81.5
l122 66v317h-999v235h1566v-235zM1211 295l-368 -351l-127 159l368 351zM266 -143l-156 -153l-158 153l158 158z" />
    <glyph glyph-name="glyph337" horiz-adv-x="1602" 
d="M1672 1085h-469v-185q58 -11 112 -50t94.5 -96t65 -127.5t24.5 -144.5q0 -107 -33 -195.5t-93.5 -152.5t-146 -99t-189.5 -35q-175 0 -295 109q-32 -33 -58.5 -54t-57.5 -33.5t-69 -17t-92 -4.5q-96 0 -171 31.5t-126.5 91t-79 143.5t-27.5 189q0 92 34 175t93.5 145.5
t140.5 99t175 36.5q186 0 309 -102q32 29 66.5 49t69.5 30v197h-949v235h1672v-235zM1240 482q0 40 -11.5 73t-32.5 55.5t-49.5 35t-62.5 12.5q-86 0 -144 -125l-19 -57t-17.5 -53.5t-17.5 -53.5t-19 -58q14 -12 31.5 -22t40.5 -17q54 -19 104 -19q94 0 145.5 61.5
t51.5 167.5zM696 597q-76 61 -192 61q-41 0 -74.5 -16t-58 -43.5t-38 -64.5t-13.5 -79q0 -97 38 -149.5t107 -52.5q66 0 111.5 51.5t78.5 157.5l14 46t13 46zM910 -240l-156 -153l-158 153l158 158zM1186 -693l-123 -150l-312 193l-312 -193l-121 150l433 259z" />
    <glyph glyph-name="glyph338" horiz-adv-x="1228" 
d="M1298 1085h-291v-1085h-254v236q-66 -35 -133 -48t-136 -13q-84 0 -157.5 32t-128 87t-85.5 129t-31 158q0 87 33.5 159t93 124t141 80.5t177.5 28.5q71 0 127 -13t99 -30v155h-753v235h1298v-235zM753 688q-23 11 -50.5 22t-56.5 20t-58 14.5t-55 5.5q-49 0 -84 -9
t-58.5 -24t-37.5 -34.5t-21.5 -39t-9.5 -38t-2 -32.5q0 -36 14 -67t38 -54t57 -36t71 -13q46 0 86.5 12t73 28.5t56 35t37.5 31.5v178zM864 271l-505 -385l-132 167l506 383zM796 -266l-156 -153l-158 153l158 158z" />
    <glyph glyph-name="glyph339" horiz-adv-x="1442" 
d="M1192 1085h-303v235h303v-235zM1149 472l-116 52l-487 -376l-159 177l376 297l-240 100l-418 -326l-152 202l318 250q-41 45 -63 100t-22 116q0 59 26 112.5t69.5 94.5t99 65.5t115.5 24.5q67 0 124.5 -21.5t99 -60t65 -92t23.5 -116.5q0 -96 -50 -178l391 -155v-266z
M552 1051q0 25 -17.5 42.5t-40.5 17.5t-41 -17.5t-18 -42.5q0 -26 17.5 -44t41.5 -18t41 18t17 44zM1512 1085h-260v-1085h-254v1085h-17v235h531v-235zM316 -13l-156 -153l-158 153l158 158z" />
    <glyph glyph-name="glyph340" horiz-adv-x="1228" 
d="M1298 1085h-291v-1085h-254v406q-83 -38 -194 -38q-176 0 -301 105q-142 114 -142 288v324h-116v235h1298v-235zM753 825v260h-207zM370 929v-127q0 -73 60 -132q61 -58 133 -58q34 0 62 7zM867 301l-505 -385l-132 167l506 383zM816 -223l-156 -153l-158 153l158 158z
" />
    <glyph glyph-name="glyph341" horiz-adv-x="1496" 
d="M1566 1085h-313v-1085h-254v506h-404q-17 -30 -41.5 -56t-53.5 -41l311 -368l-194 -163l-599 707l195 164l120 -145q77 9 77 247v234h-410v235h1566v-235zM999 741v344h-335v-234q0 -31 -0.5 -59t-2.5 -51h338zM1227 448l-368 -351l-127 159l368 351zM296 -103l-156 -153
l-158 153l158 158z" />
    <glyph glyph-name="glyph342" 
d="M1246 1085h-395v-324h-463q-30 0 -51.5 -21.5t-21.5 -50.5q0 -17 4 -31.5t15 -25.5q51 23 111 36t137 13q89 0 159 -17t123.5 -46t91 -67.5t61 -82t34.5 -89t11 -87.5q0 -51 -18 -96t-43.5 -83.5t-53.5 -68.5t-48 -49l-169 164q10 11 20 21q8 8 23 25t30.5 37t15.5 48
q0 6 -2 16t-10 24l-269 -243l-157 165l204 184q-66 0 -112 -15.5t-76 -40.5t-44.5 -56.5t-14.5 -63.5q0 -71 29 -122t75 -89t101.5 -66t108.5 -51l82 -35l-122 -202q-59 17 -120.5 43t-120 62t-109.5 82.5t-89.5 103.5t-61 125.5t-22.5 149.5q0 44 15 102t52 115
q-44 44 -67 97.5t-23 113.5q0 61 22 116t61.5 96.5t93.5 66t118 24.5h236v93h-597v235h1246v-235zM226 -392l-156 -153l-158 153l158 158z" />
    <glyph glyph-name="glyph343" horiz-adv-x="1024" 
d="M128 0v1320h768v-1320h-768zM256 128h512v1064h-512v-1064z" />
    <glyph glyph-name="glyph344" horiz-adv-x="1024" 
d="M128 0v1320h768v-1320h-768zM256 128h512v1064h-512v-1064z" />
    <glyph glyph-name="glyph345" horiz-adv-x="1282" 
d="M1352 1320v-235h-442v-274q50 32 98.5 46t106.5 14q91 0 192 -51l-48 -279q-19 21 -41.5 39t-44 31t-40 20.5t-28.5 7.5q-28 0 -52.5 -8.5t-47.5 -24t-46.5 -37t-48.5 -46.5v-523h-254v353q-48 -26 -109 -47.5t-124 -21.5q-102 0 -172.5 32t-113.5 81.5t-62 109.5
t-19 117q0 74 28 135.5t78.5 106t120 69.5t153.5 25q71 0 125.5 -14.5t94.5 -31.5v171h-656v235h1352zM656 658q-17 9 -39.5 20.5t-50 21.5t-60.5 17t-70 7q-129 0 -129 -89q0 -57 32 -85.5t84 -28.5q28 0 59.5 11.5t63 28t60 36t50.5 36.5v25zM762 340l-505 -385l-132 167
l506 383z" />
    <glyph glyph-name="glyph346" horiz-adv-x="1388" 
d="M1392 426l-97.5 -72.5t-128 -95.5t-147.5 -110t-157 -118l-132 168l192 140q-57 16 -102.5 46.5t-78 74.5t-49.5 99.5t-17 121.5q0 64 25 120t67 97.5t98.5 65.5t119.5 24q31 0 66.5 -8t76.5 -25v-239q-88 32 -114 32q-91 0 -91 -86q0 -25 11.5 -46.5t31.5 -37
t46.5 -24.5t56.5 -9q187 0 323 164v-282zM1458 1085h-824v-196q0 -324 -190 -401l293 -407l-211 -148l-541 759l207 149l95 -129q45 8 69 45t24 103v225h-380v235h1458v-235z" />
    <glyph glyph-name="glyph347" horiz-adv-x="960" 
d="M1030 1085h-319v-458q0 -187 -77.5 -281t-248.5 -94q-64 0 -116.5 21.5t-89.5 61t-57.5 95t-20.5 124.5q0 58 23 108t63 87t94 58.5t116 21.5q16 0 30.5 -1t30.5 -3v260h-458v235h1030v-235zM385 495q35 0 54 24.5t19 82.5q-30 9 -61 9q-26 0 -45 -17t-19 -40
q0 -26 15.5 -42.5t36.5 -16.5zM1072 260l-505 -385l-132 167l506 383z" />
    <glyph glyph-name="glyph348" horiz-adv-x="1068" 
d="M1098 395q-205 -229 -499 -229q-98 0 -179.5 27.5t-141 76t-92.5 115t-33 144.5q0 54 19.5 104.5t59.5 93.5q-114 67 -114 222q0 30 7 69t21 67h-146v235h1138v-235h-710q-13 -12 -23 -27.5t-17.5 -32t-11.5 -33t-4 -30.5q0 -93 148 -93h189v-222h-189q-47 0 -79.5 -32.5
t-32.5 -85.5q0 -29 15.5 -52.5t42 -40t61 -25.5t72.5 -9q50 0 101 11t110 41t129 84t159 141v-284zM907 250l-505 -385l-132 167l506 383z" />
    <glyph glyph-name="glyph349" 
d="M1188 861l-131 -128l-132 128l132 132zM1246 1085h-392v-191h-378q-20 0 -30 -8t-10 -19q0 -24 41 -24q19 0 48 2t69 6q42 5 73.5 7t55.5 2q54 0 99 -15.5t77.5 -43t50.5 -65.5t19 -83q0 -63 -26 -117.5t-72.5 -94t-111.5 -62t-142 -22.5q-83 0 -208 40t-295 119l73 185
l234 -101q50 -20 96 -30t90 -10q73 0 108.5 20.5t35.5 55.5q0 13 -9 22t-29 9q-9 0 -39 -3t-65.5 -7t-68.5 -7t-47 -3q-109 0 -181 54q-45 32 -67.5 74t-22.5 99q0 193 199 211h-421v235h1246v-235zM1043 21l-123 -150l-312 193l-312 -193l-121 150l433 259zM1108 -421
l-130 -173l-564 253l131 168z" />
    <glyph glyph-name="glyph350" horiz-adv-x="1122" 
d="M1192 1085h-1192v235h1192v-235zM1148 408q-50 -53 -106 -95t-115.5 -71.5t-120 -45.5t-117.5 -16q-92 0 -169 25.5t-133 71t-87.5 107.5t-31.5 135q0 46 13.5 91.5t42.5 92.5h-224v235h700v-235h-180q-53 -46 -80.5 -88t-27.5 -79q0 -131 181 -131q42 0 90.5 14.5
t104.5 51t120.5 99.5t139.5 160v-322zM998 290l-505 -385l-132 167l506 383z" />
    <glyph glyph-name="glyph351" horiz-adv-x="1388" 
d="M1458 1085h-1458v235h1458v-235zM1338 691q0 -286 -176 -488q-185 -212 -474 -212q-104 0 -193.5 25.5t-155 72t-102.5 110.5t-37 141q0 67 38 127q-32 21 -57 50t-42 62t-26.5 69t-9.5 72q0 144 107 227q91 70 224 70q28 0 64.5 -9t81.5 -29v-262q-99 76 -138 76
q-95 0 -95 -73q0 -29 15 -46.5t42 -23.5q19 14 44 28.5t60 33.5l97 -183q-82 -50 -121 -88t-39 -77q0 -32 19 -57t51.5 -42t74.5 -26t88 -9q61 0 120.5 22t111 61t91.5 92t63 115q-11 -1 -24 -1.5t-24 -0.5q-60 0 -109.5 19t-84.5 53.5t-54.5 83t-19.5 107.5q0 56 20.5 103
t57.5 81t88 53t111 19q313 0 313 -346zM1099 775q0 25 -17.5 41t-49.5 16q-26 0 -46 -16t-20 -41q0 -22 17 -39q21 -19 49 -19q26 0 46.5 16t20.5 42zM1121 -348l-123 -150l-312 193l-312 -193l-121 150l433 259z" />
    <glyph glyph-name="glyph352" horiz-adv-x="1282" 
d="M1352 1085h-1352v235h1352v-235zM1295 604h-349q33 -78 33 -178q0 -363 -425 -363q-343 0 -514 535l226 72q123 -386 300 -386q178 0 178 149q0 54 -25.5 101t-64.5 70h-210v236h851v-236zM1372 140l-505 -385l-132 167l506 383z" />
    <glyph glyph-name="glyph353" horiz-adv-x="1504" 
d="M1532 460l-371 -456l-159 147l225 281h-242q2 -13 4 -27t2 -28q0 -81 -27.5 -149.5t-78.5 -119.5t-124.5 -83t-165.5 -42l174 -254l-218 -135l-260 416q-35 8 -72 27t-72 44.5t-65 56t-49 60.5l177 164q124 -145 298 -145q52 0 96.5 10t77.5 28.5t51.5 45t18.5 59.5
q0 17 -9 32.5t-23.5 27t-32.5 18.5t-36 7q-3 0 -17 -1.5t-34 -3.5t-43.5 -5t-45.5 -6q-46 -5 -87.5 -9.5t-59.5 -4.5q-71 0 -126.5 20t-94 58.5t-59 94.5t-20.5 127q0 66 21.5 118t61.5 88t96.5 55t126.5 19h254v90h-624v235h1574v-235h-696v-324h-536q-19 0 -31 -15
t-12 -35q0 -62 65 -62q6 0 18.5 1.5t28.5 3.5t35 4.5t38 5.5q39 5 74 10.5t60 5.5q29 0 57 -3.5t53 -9.5h804v-207z" />
    <glyph glyph-name="glyph354" horiz-adv-x="1122" 
d="M1192 1086h-1192v235h1192v-235zM1148 506h-324q-9 -72 -44.5 -133t-91 -106t-126.5 -70.5t-149 -25.5q-200 0 -339 190l186 132q84 -94 153 -94q34 0 64.5 12.5t53.5 35t37 54t14 69.5q0 75 -45 115.5t-117 40.5q-35 0 -71.5 -18.5t-78.5 -57.5l-134 201q46 36 81.5 59
t67.5 36t64 18t71 5q132 0 232 -58q56 -30 94.5 -73.5t59.5 -96.5h342v-235zM1202 250l-505 -385l-132 167l506 383z" />
    <glyph glyph-name="glyph355" 
d="M1246 1085h-392v-269h-394q-104 0 -104 -81q0 -40 48 -66q48 -24 115 -24q183 0 293 83l167 -156q-199 -157 -456 -157q-81 0 -154 25.5t-127.5 69t-87 102t-32.5 124.5q0 65 24 120.5t66 95.5t99 62.5t122 22.5h182v48h-615v235h1246v-235zM959 61l-123 -150l-312 193
l-312 -193l-121 150l433 259zM1054 -361l-130 -173l-564 253l131 168z" />
    <glyph glyph-name="glyph356" 
d="M1246 1085h-392v-82q146 -74 146 -252q0 -160 -149 -255q-124 -77 -279 -77q-90 0 -164.5 23t-127 65t-81.5 101t-29 131q0 70 30.5 127.5t87.5 98t139.5 62.5t187.5 22v36h-615v235h1246v-235zM763 736q0 39 -39 62t-105 23q-216 0 -216 -86q0 -45 44 -71
q46 -27 116 -27q39 0 75 6.5t64 19t44.5 31t16.5 42.5zM1003 61l-123 -150l-312 193l-312 -193l-121 150l433 259zM1108 -361l-130 -173l-564 253l131 168z" />
    <glyph glyph-name="glyph357" 
d="M1246 1085h-392v-196h-378q-40 0 -40 -22q0 -24 41 -24q19 0 48 2t69 6q42 5 73.5 7t55.5 2q54 0 99 -15.5t77.5 -43t50.5 -65.5t19 -83q0 -63 -26 -117.5t-72.5 -94t-111.5 -62t-142 -22.5q-83 0 -208 40t-295 119l68 190l239 -99q50 -20 96 -30t90 -10q144 0 144 69
q0 26 -38 26q-9 0 -39 -3t-65.5 -7t-68.5 -7t-47 -3q-109 0 -181 54q-90 64 -90 178q0 193 199 211h-421v235h1246v-235zM1003 61l-123 -150l-312 193l-312 -193l-121 150l433 259zM1108 -361l-130 -173l-564 253l131 168z" />
    <glyph glyph-name="glyph358" 
d="M1246 1085h-392v-267h-343q-79 0 -118.5 -19.5t-39.5 -77.5q0 -38 22 -61.5t54 -36.5t69 -18t67 -5q17 0 31 1t27 4v15q0 63 39 99.5t107 36.5q30 0 57 -8.5t47.5 -26t33 -43t12.5 -58.5q0 -54 -28.5 -98.5t-80.5 -76.5t-125 -50t-161 -18q-80 0 -153 27t-129 74
t-89.5 109.5t-33.5 133.5t27.5 130t76 101.5t114.5 66t142 23.5h136v43h-615v235h1246v-235zM959 61l-123 -150l-312 193l-312 -193l-121 150l433 259zM1064 -361l-130 -173l-564 253l131 168z" />
    <glyph glyph-name="glyph359" horiz-adv-x="1068" 
d="M1138 1085h-229v-408q0 -87 -29 -156.5t-82 -118t-127 -75t-165 -26.5q-79 0 -149.5 30.5t-124 82t-85 119.5t-31.5 144v408h-116v235h1138v-235zM656 1085h-286v-408q0 -25 13 -47.5t33 -39t45 -26t48 -9.5q55 0 103 35q44 35 44 87v408zM1152 240l-505 -385l-132 167
l506 383z" />
    <glyph glyph-name="glyph360" horiz-adv-x="854" 
d="M924 1085h-924v235h924v-235zM871 415l-603 -261l-90 218l445 183q-108 111 -237 111q-84 0 -181 -119l-96 248q141 114 286 114q124 0 286 -117q131 -98 190 -186v-191z" />
    <glyph glyph-name="glyph361" horiz-adv-x="1122" 
d="M1135 476q-18 -38 -55 -71.5t-77 -61t-85.5 -48.5t-92 -35.5t-92 -22t-84.5 -7.5q-82 0 -170.5 30t-169.5 84.5t-148 130t-107 166.5l100 150q48 -34 99 -34q70 0 125.5 33.5t89.5 90.5q-48 -21 -108 -21q-69 0 -121.5 21t-88.5 57t-54.5 84.5t-18.5 103.5q0 58 24 109
t65.5 88t97.5 58.5t121 21.5q80 0 146.5 -27.5t114.5 -77t74.5 -118.5t26.5 -151q0 -78 -24.5 -153t-67.5 -138.5t-103 -111t-130 -69.5q24 -18 47 -34t54 -29t67 -20.5t59 -7.5q58 0 144.5 25t166.5 79t175 152v-246zM1192 1085h-375v235h375v-235zM361 1060q26 0 61 17
t61 57q-19 23 -41.5 36.5t-47.5 13.5q-78 0 -78 -64q0 -30 15.5 -45t29.5 -15zM960 330l-505 -385l-132 167l506 383z" />
    <glyph glyph-name="glyph362" 
d="M1246 1085h-385v-368h-238q-87 0 -147 -12.5t-97 -39.5t-53 -69t-16 -100q0 -41 13.5 -76.5t37.5 -61.5t58 -41t75 -15q31 0 65.5 7.5t63 20.5t51.5 31.5t24 36.5l-35 145l242 61l173 -719l-223 -63l-92 332q-33 -25 -75.5 -44t-89.5 -30l-323 -305l-148 157l185 163
q-59 22 -106.5 61.5t-82 92t-53 115.5t-18.5 132q0 105 35.5 190t100.5 144.5t157 92t205 32.5h57v130h-607v235h1246v-235zM1296 -532l-130 -173l-564 253l131 168z" />
    <glyph glyph-name="glyph363" horiz-adv-x="1122" 
d="M1192 1085h-406v235h406v-235zM1145 380q-26 -25 -68.5 -57.5t-102.5 -62t-140 -50t-181 -20.5q-50 0 -104.5 5.5t-107.5 19t-101 37.5t-84.5 61.5t-58 90t-21.5 123.5q0 42 14 87t40 87q-186 109 -186 335q0 87 27 160.5t76.5 126.5t117.5 82.5t151 29.5q48 0 95 -19.5
t84 -54.5t60 -83.5t23 -105.5q0 -59 -22 -103t-57.5 -73.5t-80.5 -44.5t-91 -15q-33 0 -63 5.5t-56 18.5q18 -34 49 -59.5t70 -36.5q38 17 90 34.5t122 35.5l74 -229q-40 -8 -89 -21.5t-91.5 -32.5t-71.5 -43.5t-29 -54.5q0 -58 60.5 -85.5t172.5 -27.5q55 0 107.5 14.5
t101 37t91 50.5t77.5 55t61.5 50t41.5 37v-304zM429 1144q16 0 29 9t13 23q0 27 -13.5 40.5t-40.5 13.5q-42 0 -74 -23q16 -26 36.5 -44.5t49.5 -18.5zM1032 290l-505 -385l-132 167l506 383z" />
    <glyph glyph-name="glyph364" horiz-adv-x="1068" 
d="M1138 1085h-1138v235h1138v-235zM1098 588h-504q8 -20 13.5 -46.5t5.5 -54.5q0 -326 -284 -326q-68 0 -123 24.5t-95 68t-61.5 102.5t-21.5 128q0 339 370 339h700v-235zM269 477q0 -83 60 -83q51 0 51 93q0 29 -10 57t-32 44q-37 -13 -53 -41t-16 -70zM1130 300
l-505 -385l-132 167l506 383z" />
    <glyph glyph-name="glyph365" horiz-adv-x="908" 
d="M936 554q-63 -83 -157.5 -134.5t-219.5 -51.5q-80 0 -159 27.5t-142 79t-102.5 124t-39.5 162.5v324h-116v235h978v-235h-609v-283q0 -43 16.5 -77.5t44.5 -59t65.5 -37.5t80.5 -13q194 0 360 231v-292zM792 440l-505 -385l-132 167l506 383z" />
    <glyph glyph-name="glyph366" horiz-adv-x="1282" 
d="M1295 646q-133 0 -227.5 -19t-157.5 -61v-566h-254v410q-105 -66 -225 -66q-68 0 -125.5 27t-99.5 76.5t-66 119t-24 154.5v364h-116v235h1352v-235h-442v-262q136 59 385 59v-236zM656 1085h-286v-364q0 -30 9 -53.5t23 -40.5t31 -26t34 -9q77 0 189 100v393zM647 420
l-505 -385l-132 167l506 383z" />
    <glyph glyph-name="glyph367" horiz-adv-x="908" 
d="M978 1085h-978v235h978v-235zM936 411q-57 -62 -118.5 -106.5t-122.5 -73.5t-119 -42.5t-107 -13.5q-84 0 -159 32t-131.5 87t-89 129t-32.5 158q0 87 35.5 159t97 124t144.5 80.5t178 28.5q47 0 96.5 -9.5t93.5 -23.5t78 -29.5t51 -27.5v-219q-20 10 -56 25t-81.5 28.5
t-97.5 23t-106 9.5h-10l219 -248q26 19 53.5 38.5t57.5 46t61.5 64t64.5 91.5v-331zM305 633q-9 -26 -9 -60q0 -36 15 -67t41 -54t60 -36t72 -13h11.5t11.5 1zM779 290l-505 -385l-132 167l506 383z" />
    <glyph glyph-name="glyph368" 
d="M1204 506h-478v-89q0 -72 -23.5 -129t-67.5 -96t-107.5 -60t-143.5 -21q-63 0 -118.5 24t-96 65t-64 97t-23.5 120q0 324 353 324h37v88q-23 -5 -43 -7.5t-43 -2.5q-64 0 -116.5 20.5t-89.5 57.5t-57 88.5t-20 112.5q0 71 23 128.5t64 98.5t97 63.5t122 22.5
q84 0 144 -22.5t98.5 -73.5t56.5 -134t18 -204v-236h478v-235zM1246 1085h-433v235h433v-235zM472 506h-34q-37 0 -61.5 -5.5t-39.5 -17.5t-21.5 -30.5t-6.5 -43.5q0 -19 5.5 -36t14.5 -30t22 -21t28 -8q93 0 93 123v69zM384 1034q29 0 48 6t40 20q-4 118 -63 118
q-38 0 -59.5 -17.5t-21.5 -53.5q0 -73 56 -73zM1292 260l-505 -385l-132 167l506 383z" />
    <glyph glyph-name="glyph369" 
d="M1246 1085h-617v-344h567v-235h-567q-1 -89 -22 -154t-60 -107.5t-94.5 -63t-125.5 -20.5q-63 0 -112 23.5t-83.5 64t-52.5 95t-18 115.5q0 49 18 99t56.5 90.5t97.5 66.5t142 26v344h-375v235h1246v-235zM375 506q-36 0 -55.5 -17t-19.5 -41q0 -26 9 -39.5t25 -13.5
q13 0 21 9t12.5 22t6 31.5t1.5 36.5v12zM1254 280l-505 -385l-132 167l506 383z" />
    <glyph glyph-name="glyph370" horiz-adv-x="1068" 
d="M1098 421q-109 -101 -226.5 -144t-245.5 -43q-312 0 -556 402l105 153q39 -15 67.5 -22t48.5 -7q75 0 117.5 39.5t42.5 111.5q0 20 -10.5 50t-26 57.5t-33 47t-32.5 19.5h-349v235h1138v-235h-469q20 -36 29.5 -83.5t9.5 -92.5q0 -59 -20 -117t-56.5 -107t-87.5 -84
t-112 -49q45 -34 98.5 -50.5t97.5 -16.5q65 0 131 17.5t128 49t116 76t95 99.5v-306zM912 310l-505 -385l-132 167l506 383z" />
    <glyph glyph-name="glyph371" horiz-adv-x="1024" 
d="M128 0v1320h768v-1320h-768zM256 128h512v1064h-512v-1064z" />
    <glyph glyph-name="glyph372" 
d="M1246 1085h-1246v235h1246v-235zM1198 602l-537 -297l-121 202l132 77q-25 37 -61 54t-84 17q-140 0 -140 -137q0 -74 72.5 -188.5t218.5 -273.5l-227 -100q-78 85 -133.5 149t-84.5 109q-52 78 -81.5 155t-29.5 142q0 185 120 293q111 102 285 102q54 0 106.5 -15.5
t98.5 -42.5t83.5 -64.5t61.5 -81.5l321 173v-273zM1309 357l-368 -351l-127 159l368 351z" />
    <glyph glyph-name="glyph373" horiz-adv-x="1390" 
d="M1460 1085h-1460v235h1460v-235zM1353 587q0 -86 -32 -162.5t-88 -133.5t-131.5 -90t-162.5 -33q-161 0 -276 108q-22 -21 -50 -40t-58 -33q-38 -18 -77.5 -26.5t-79.5 -8.5q-71 0 -134 33t-110 88.5t-74 126.5t-27 148q0 178 118 295q118 121 289 121q79 0 146 -24.5
t124 -76.5q23 21 54 39.5t64.5 32t67.5 21.5t64 8q84 0 153 -30.5t117.5 -83.5t75.5 -125t27 -154zM1095 587q0 140 -132 140q-44 0 -93 -81q-12 -24 -21.5 -43.5t-24.5 -50t-36 -76.5q58 -55 157 -55q30 0 57.5 12t48 34t32.5 52.5t12 67.5zM536 504q46 90 81 165
q-71 58 -162 58q-31 0 -57 -12t-45.5 -33.5t-30.5 -51.5t-11 -66q0 -29 7 -55t20.5 -45.5t32.5 -31t43 -11.5q66 0 122 83zM1111 -199l-123 -150l-312 193l-312 -193l-121 150l433 259z" />
    <glyph glyph-name="glyph374" horiz-adv-x="908" 
d="M936 413q-83 -114 -198 -175t-272 -61q-83 0 -155.5 33.5t-127.5 89.5t-86.5 129.5t-31.5 154.5q0 82 32 154t91.5 125.5t143 84t185.5 30.5q37 0 70.5 -2.5t67.5 -9t71.5 -16.5t84.5 -25v-247q-45 21 -82.5 35t-73 22.5t-72.5 12t-80 3.5q-46 0 -82 -14t-61 -37.5
t-38.5 -54.5t-13.5 -64q0 -36 13.5 -67.5t37 -55t55 -36.5t66.5 -13q58 0 120.5 20.5t122.5 59.5t114.5 95.5t98.5 128.5v-300zM978 1085h-978v235h978v-235zM764 260l-505 -385l-132 167l506 383z" />
    <glyph glyph-name="glyph375" horiz-adv-x="1122" 
d="M1192 1085h-303v235h303v-235zM1149 472l-116 52l-487 -376l-159 177l376 297l-240 100l-418 -326l-152 202l318 250q-41 45 -63 100t-22 116q0 59 26 112.5t69.5 94.5t99 65.5t115.5 24.5q67 0 124.5 -21.5t99 -60t65 -92t23.5 -116.5q0 -96 -50 -178l391 -155v-266z
M552 1051q0 25 -17.5 42.5t-40.5 17.5t-41 -17.5t-18 -42.5q0 -26 17.5 -44t41.5 -18t41 18t17 44z" />
    <glyph glyph-name="glyph376" horiz-adv-x="908" 
d="M936 584q-63 -103 -165 -159.5t-227 -56.5q-80 0 -159.5 27.5t-142.5 78.5t-102 124t-39 163v324h-101v235h978v-235h-424l240 -364q44 31 72 59t70 86v-282zM354 966v-164q0 -36 16 -70.5t43 -61t62 -42.5t73 -16q14 0 26.5 1t24.5 3zM802 454l-505 -385l-132 167
l506 383z" />
    <glyph glyph-name="glyph377" 
d="M1198 506h-603q-16 -30 -40.5 -56t-54.5 -41l311 -368l-194 -163l-598 707l195 164l120 -145q76 9 76 247v234h-410v235h1246v-235h-582v-234q0 -31 -0.5 -59t-2.5 -51h537v-235zM1293 331l-368 -351l-127 159l368 351z" />
    <glyph glyph-name="glyph378" 
d="M1246 1085h-395v-324h-463q-30 0 -51.5 -21.5t-21.5 -50.5q0 -17 4 -31.5t15 -25.5q51 23 111 36t137 13q89 0 159 -17t123.5 -46t91 -67.5t61 -82t34.5 -89t11 -87.5q0 -51 -18 -96t-43.5 -83.5t-53.5 -68.5t-48 -49l-169 164q10 11 20 21q8 8 23 25t30.5 37t15.5 48
q0 6 -2 16t-10 24l-269 -243l-157 165l204 184q-66 0 -112 -15.5t-76 -40.5t-44.5 -56.5t-14.5 -63.5q0 -71 29 -122t75 -89t101.5 -66t108.5 -51l82 -35l-122 -202q-59 17 -120.5 43t-120 62t-109.5 82.5t-89.5 103.5t-61 125.5t-22.5 149.5q0 44 15 102t52 115
q-44 44 -67 97.5t-23 113.5q0 61 22 116t61.5 96.5t93.5 66t118 24.5h236v93h-597v235h1246v-235zM1440 -431l-130 -173l-564 253l131 168z" />
    <glyph glyph-name="glyph379" horiz-adv-x="1228" 
d="M1298 1085h-452v235h452v-235zM1234 653h-793q-47 -36 -76.5 -61.5t-46.5 -47t-23 -42.5t-6 -47q0 -15 4.5 -34t16 -34.5t27 -27.5t48.5 -12q43 0 65.5 24t24.5 69l-35 103l237 86l231 -634l-240 -86l-100 278q-80 -84 -211 -84q-67 0 -125 28.5t-101 77t-68 112.5
t-25 134q0 91 42 167.5t138 148.5q-27 19 -48.5 46.5t-36.5 60t-23.5 68.5t-8.5 72q0 69 27 129.5t73.5 105.5t108.5 70.5t131 25.5q74 0 134 -25t102 -69.5t65 -105t23 -131.5q0 -70 -33 -130h502v-235zM521 1018q0 17 -7 33t-18.5 28.5t-25.5 20t-29 7.5q-41 0 -64.5 -25
t-23.5 -64q0 -43 22.5 -74t65.5 -51q41 23 60.5 54.5t19.5 70.5zM1343 453l-368 -351l-127 159l368 351z" />
    <glyph glyph-name="glyph380" horiz-adv-x="1282" 
d="M1352 1085h-1352v235h1352v-235zM1293 693h-375q10 -29 13.5 -59t3.5 -65q0 -74 -25.5 -130.5t-63.5 -98.5t-82 -71t-82 -46l107 -114l-166 -167l-461 470l172 166l158 -160q31 3 65.5 12.5t63 29t47 50.5t18.5 76q0 30 -9.5 59t-41.5 48h-192v236h850v-236zM1414 467
l-368 -351l-127 159l368 351z" />
    <glyph glyph-name="glyph381" horiz-adv-x="1282" 
d="M1352 1320v-235h-442v-274q50 32 98.5 46t106.5 14q91 0 192 -51l-48 -279q-19 21 -41.5 39t-44 31t-40 20.5t-28.5 7.5q-28 0 -52.5 -8.5t-47.5 -24t-46.5 -37t-48.5 -46.5v-523h-254v353q-48 -26 -109 -47.5t-124 -21.5q-102 0 -172.5 32t-113.5 81.5t-62 109.5
t-19 117q0 74 28 135.5t78.5 106t120 69.5t153.5 25q71 0 125.5 -14.5t94.5 -31.5v171h-656v235h1352zM656 658q-17 9 -39.5 20.5t-50 21.5t-60.5 17t-70 7q-129 0 -129 -89q0 -57 32 -85.5t84 -28.5q28 0 59.5 11.5t63 28t60 36t50.5 36.5v25zM762 340l-505 -385l-132 167
l506 383zM660 -243l-156 -153l-158 153l158 158z" />
    <glyph glyph-name="glyph382" horiz-adv-x="1388" 
d="M1392 426l-97.5 -72.5t-128 -95.5t-147.5 -110t-157 -118l-132 168l192 140q-57 16 -102.5 46.5t-78 74.5t-49.5 99.5t-17 121.5q0 64 25 120t67 97.5t98.5 65.5t119.5 24q31 0 66.5 -8t76.5 -25v-239q-88 32 -114 32q-91 0 -91 -86q0 -25 11.5 -46.5t31.5 -37
t46.5 -24.5t56.5 -9q187 0 323 164v-282zM1458 1085h-824v-196q0 -324 -190 -401l293 -407l-211 -148l-541 759l207 149l95 -129q45 8 69 45t24 103v225h-380v235h1458v-235zM256 -63l-156 -153l-158 153l158 158z" />
    <glyph glyph-name="glyph383" horiz-adv-x="960" 
d="M1030 1085h-319v-458q0 -187 -77.5 -281t-248.5 -94q-64 0 -116.5 21.5t-89.5 61t-57.5 95t-20.5 124.5q0 58 23 108t63 87t94 58.5t116 21.5q16 0 30.5 -1t30.5 -3v260h-458v235h1030v-235zM385 495q35 0 54 24.5t19 82.5q-30 9 -61 9q-26 0 -45 -17t-19 -40
q0 -26 15.5 -42.5t36.5 -16.5zM1162 300l-505 -385l-132 167l506 383zM433 -223l-156 -153l-158 153l158 158z" />
    <glyph glyph-name="glyph384" horiz-adv-x="1068" 
d="M1098 395q-205 -229 -499 -229q-98 0 -179.5 27.5t-141 76t-92.5 115t-33 144.5q0 54 19.5 104.5t59.5 93.5q-114 67 -114 222q0 30 7 69t21 67h-146v235h1138v-235h-710q-13 -12 -23 -27.5t-17.5 -32t-11.5 -33t-4 -30.5q0 -93 148 -93h189v-222h-189q-47 0 -79.5 -32.5
t-32.5 -85.5q0 -29 15.5 -52.5t42 -40t61 -25.5t72.5 -9q50 0 101 11t110 41t129 84t159 141v-284zM907 250l-505 -385l-132 167l506 383zM876 -267l-156 -153l-158 153l158 158z" />
    <glyph glyph-name="glyph385" 
d="M1188 861l-131 -128l-132 128l132 132zM1246 1085h-392v-191h-378q-20 0 -30 -8t-10 -19q0 -24 41 -24q19 0 48 2t69 6q42 5 73.5 7t55.5 2q54 0 99 -15.5t77.5 -43t50.5 -65.5t19 -83q0 -63 -26 -117.5t-72.5 -94t-111.5 -62t-142 -22.5q-83 0 -208 40t-295 119l73 185
l234 -101q50 -20 96 -30t90 -10q73 0 108.5 20.5t35.5 55.5q0 13 -9 22t-29 9q-9 0 -39 -3t-65.5 -7t-68.5 -7t-47 -3q-109 0 -181 54q-45 32 -67.5 74t-22.5 99q0 193 199 211h-421v235h1246v-235zM726 140l-156 -153l-158 153l158 158zM1003 -339l-123 -150l-312 193
l-312 -193l-121 150l433 259zM1108 -716l-130 -173l-564 253l131 168z" />
    <glyph glyph-name="glyph386" horiz-adv-x="1122" 
d="M1192 1085h-1192v235h1192v-235zM1148 408q-50 -53 -106 -95t-115.5 -71.5t-120 -45.5t-117.5 -16q-92 0 -169 25.5t-133 71t-87.5 107.5t-31.5 135q0 46 13.5 91.5t42.5 92.5h-224v235h700v-235h-180q-53 -46 -80.5 -88t-27.5 -79q0 -131 181 -131q42 0 90.5 14.5
t104.5 51t120.5 99.5t139.5 160v-322zM998 290l-505 -385l-132 167l506 383zM936 -243l-156 -153l-158 153l158 158z" />
    <glyph glyph-name="glyph387" horiz-adv-x="1388" 
d="M1458 1085h-1458v235h1458v-235zM1338 691q0 -286 -176 -488q-185 -212 -474 -212q-104 0 -193.5 25.5t-155 72t-102.5 110.5t-37 141q0 67 38 127q-32 21 -57 50t-42 62t-26.5 69t-9.5 72q0 144 107 227q91 70 224 70q28 0 64.5 -9t81.5 -29v-262q-99 76 -138 76
q-95 0 -95 -73q0 -29 15 -46.5t42 -23.5q19 14 44 28.5t60 33.5l97 -183q-82 -50 -121 -88t-39 -77q0 -32 19 -57t51.5 -42t74.5 -26t88 -9q61 0 120.5 22t111 61t91.5 92t63 115q-11 -1 -24 -1.5t-24 -0.5q-60 0 -109.5 19t-84.5 53.5t-54.5 83t-19.5 107.5q0 56 20.5 103
t57.5 81t88 53t111 19q313 0 313 -346zM1099 775q0 25 -17.5 41t-49.5 16q-26 0 -46 -16t-20 -41q0 -22 17 -39q21 -19 49 -19q26 0 46.5 16t20.5 42zM862 -203l-156 -153l-158 153l158 158zM1141 -653l-123 -150l-312 193l-312 -193l-121 150l433 259z" />
    <glyph glyph-name="glyph388" horiz-adv-x="1282" 
d="M1352 1085h-1352v235h1352v-235zM1295 604h-349q33 -78 33 -178q0 -363 -425 -363q-343 0 -514 535l226 72q123 -386 300 -386q178 0 178 149q0 54 -25.5 101t-64.5 70h-210v236h851v-236zM1372 140l-505 -385l-132 167l506 383zM286 -143l-156 -153l-158 153l158 158z
" />
    <glyph glyph-name="glyph389" horiz-adv-x="1504" 
d="M1532 460l-371 -456l-159 147l225 281h-242q2 -13 4 -27t2 -28q0 -81 -27.5 -149.5t-78.5 -119.5t-124.5 -83t-165.5 -42l174 -254l-218 -135l-260 416q-35 8 -72 27t-72 44.5t-65 56t-49 60.5l177 164q124 -145 298 -145q52 0 96.5 10t77.5 28.5t51.5 45t18.5 59.5
q0 17 -9 32.5t-23.5 27t-32.5 18.5t-36 7q-3 0 -17 -1.5t-34 -3.5t-43.5 -5t-45.5 -6q-46 -5 -87.5 -9.5t-59.5 -4.5q-71 0 -126.5 20t-94 58.5t-59 94.5t-20.5 127q0 66 21.5 118t61.5 88t96.5 55t126.5 19h254v90h-624v235h1574v-235h-696v-324h-536q-19 0 -31 -15
t-12 -35q0 -62 65 -62q6 0 18.5 1.5t28.5 3.5t35 4.5t38 5.5q39 5 74 10.5t60 5.5q29 0 57 -3.5t53 -9.5h804v-207zM276 -303l-156 -153l-158 153l158 158z" />
    <glyph glyph-name="glyph390" horiz-adv-x="1122" 
d="M1192 1086h-1192v235h1192v-235zM1148 506h-324q-9 -72 -44.5 -133t-91 -106t-126.5 -70.5t-149 -25.5q-200 0 -339 190l186 132q84 -94 153 -94q34 0 64.5 12.5t53.5 35t37 54t14 69.5q0 75 -45 115.5t-117 40.5q-35 0 -71.5 -18.5t-78.5 -57.5l-134 201q46 36 81.5 59
t67.5 36t64 18t71 5q132 0 232 -58q56 -30 94.5 -73.5t59.5 -96.5h342v-235zM1202 250l-505 -385l-132 167l506 383zM296 -103l-156 -153l-158 153l158 158z" />
    <glyph glyph-name="glyph391" 
d="M1246 1085h-392v-269h-394q-104 0 -104 -81q0 -40 48 -66q48 -24 115 -24q183 0 293 83l167 -156q-199 -157 -456 -157q-81 0 -154 25.5t-127.5 69t-87 102t-32.5 124.5q0 65 24 120.5t66 95.5t99 62.5t122 22.5h182v48h-615v235h1246v-235zM704 207l-156 -153l-158 153
l158 158zM979 -249l-123 -150l-312 193l-312 -193l-121 150l433 259zM1084 -660l-130 -173l-564 253l131 168z" />
    <glyph glyph-name="glyph392" 
d="M1246 1085h-392v-82q146 -74 146 -252q0 -160 -149 -255q-124 -77 -279 -77q-90 0 -164.5 23t-127 65t-81.5 101t-29 131q0 70 30.5 127.5t87.5 98t139.5 62.5t187.5 22v36h-615v235h1246v-235zM763 736q0 39 -39 62t-105 23q-216 0 -216 -86q0 -45 44 -71
q46 -27 116 -27q39 0 75 6.5t64 19t44.5 31t16.5 42.5zM726 207l-156 -153l-158 153l158 158zM1003 -249l-123 -150l-312 193l-312 -193l-121 150l433 259zM1108 -660l-130 -173l-564 253l131 168z" />
    <glyph glyph-name="glyph393" 
d="M1246 1085h-392v-196h-378q-40 0 -40 -22q0 -24 41 -24q19 0 48 2t69 6q42 5 73.5 7t55.5 2q54 0 99 -15.5t77.5 -43t50.5 -65.5t19 -83q0 -63 -26 -117.5t-72.5 -94t-111.5 -62t-142 -22.5q-83 0 -208 40t-295 119l68 190l239 -99q50 -20 96 -30t90 -10q144 0 144 69
q0 26 -38 26q-9 0 -39 -3t-65.5 -7t-68.5 -7t-47 -3q-109 0 -181 54q-90 64 -90 178q0 193 199 211h-421v235h1246v-235zM713 140l-156 -153l-158 153l158 158zM1003 -339l-123 -150l-312 193l-312 -193l-121 150l433 259zM1108 -716l-130 -173l-564 253l131 168z" />
    <glyph glyph-name="glyph394" 
d="M1246 1085h-392v-267h-343q-79 0 -118.5 -19.5t-39.5 -77.5q0 -38 22 -61.5t54 -36.5t69 -18t67 -5q17 0 31 1t27 4v15q0 63 39 99.5t107 36.5q30 0 57 -8.5t47.5 -26t33 -43t12.5 -58.5q0 -54 -28.5 -98.5t-80.5 -76.5t-125 -50t-161 -18q-80 0 -153 27t-129 74
t-89.5 109.5t-33.5 133.5t27.5 130t76 101.5t114.5 66t142 23.5h136v43h-615v235h1246v-235zM676 187l-156 -153l-158 153l158 158zM959 -279l-123 -150l-312 193l-312 -193l-121 150l433 259zM1064 -660l-130 -173l-564 253l131 168z" />
    <glyph glyph-name="glyph395" horiz-adv-x="1068" 
d="M1138 1085h-229v-408q0 -87 -29 -156.5t-82 -118t-127 -75t-165 -26.5q-79 0 -149.5 30.5t-124 82t-85 119.5t-31.5 144v408h-116v235h1138v-235zM656 1085h-286v-408q0 -25 13 -47.5t33 -39t45 -26t48 -9.5q55 0 103 35q44 35 44 87v408zM676 47l-156 -153l-158 153
l158 158zM1152 -52l-505 -385l-132 167l506 383z" />
    <glyph glyph-name="glyph396" horiz-adv-x="854" 
d="M924 1085h-924v235h924v-235zM871 415l-603 -261l-90 218l445 183q-108 111 -237 111q-84 0 -181 -119l-96 248q141 114 286 114q124 0 286 -117q131 -98 190 -186v-191zM613 -103l-156 -153l-158 153l158 158z" />
    <glyph glyph-name="glyph397" horiz-adv-x="1122" 
d="M1135 476q-18 -38 -55 -71.5t-77 -61t-85.5 -48.5t-92 -35.5t-92 -22t-84.5 -7.5q-82 0 -170.5 30t-169.5 84.5t-148 130t-107 166.5l100 150q48 -34 99 -34q70 0 125.5 33.5t89.5 90.5q-48 -21 -108 -21q-69 0 -121.5 21t-88.5 57t-54.5 84.5t-18.5 103.5q0 58 24 109
t65.5 88t97.5 58.5t121 21.5q80 0 146.5 -27.5t114.5 -77t74.5 -118.5t26.5 -151q0 -78 -24.5 -153t-67.5 -138.5t-103 -111t-130 -69.5q24 -18 47 -34t54 -29t67 -20.5t59 -7.5q58 0 144.5 25t166.5 79t175 152v-246zM1192 1085h-375v235h375v-235zM361 1060q26 0 61 17
t61 57q-19 23 -41.5 36.5t-47.5 13.5q-78 0 -78 -64q0 -30 15.5 -45t29.5 -15zM960 330l-505 -385l-132 167l506 383zM256 -3l-156 -153l-158 153l158 158z" />
    <glyph glyph-name="glyph398" 
d="M1246 1085h-385v-368h-238q-87 0 -147 -12.5t-97 -39.5t-53 -69t-16 -100q0 -41 13.5 -76.5t37.5 -61.5t58 -41t75 -15q31 0 65.5 7.5t63 20.5t51.5 31.5t24 36.5l-35 145l242 61l173 -719l-223 -63l-92 332q-33 -25 -75.5 -44t-89.5 -30l-323 -305l-148 157l185 163
q-59 22 -106.5 61.5t-82 92t-53 115.5t-18.5 132q0 105 35.5 190t100.5 144.5t157 92t205 32.5h57v130h-607v235h1246v-235zM776 -223l-156 -153l-158 153l158 158zM1416 -604l-130 -173l-564 253l131 168z" />
    <glyph glyph-name="glyph399" horiz-adv-x="1122" 
d="M1192 1085h-406v235h406v-235zM1145 380q-26 -25 -68.5 -57.5t-102.5 -62t-140 -50t-181 -20.5q-50 0 -104.5 5.5t-107.5 19t-101 37.5t-84.5 61.5t-58 90t-21.5 123.5q0 42 14 87t40 87q-186 109 -186 335q0 87 27 160.5t76.5 126.5t117.5 82.5t151 29.5q48 0 95 -19.5
t84 -54.5t60 -83.5t23 -105.5q0 -59 -22 -103t-57.5 -73.5t-80.5 -44.5t-91 -15q-33 0 -63 5.5t-56 18.5q18 -34 49 -59.5t70 -36.5q38 17 90 34.5t122 35.5l74 -229q-40 -8 -89 -21.5t-91.5 -32.5t-71.5 -43.5t-29 -54.5q0 -58 60.5 -85.5t172.5 -27.5q55 0 107.5 14.5
t101 37t91 50.5t77.5 55t61.5 50t41.5 37v-304zM429 1144q16 0 29 9t13 23q0 27 -13.5 40.5t-40.5 13.5q-42 0 -74 -23q16 -26 36.5 -44.5t49.5 -18.5zM1032 290l-505 -385l-132 167l506 383zM996 -203l-156 -153l-158 153l158 158z" />
    <glyph glyph-name="glyph400" horiz-adv-x="1068" 
d="M1138 1085h-1138v235h1138v-235zM1098 588h-504q8 -20 13.5 -46.5t5.5 -54.5q0 -326 -284 -326q-68 0 -123 24.5t-95 68t-61.5 102.5t-21.5 128q0 339 370 339h700v-235zM269 477q0 -83 60 -83q51 0 51 93q0 29 -10 57t-32 44q-37 -13 -53 -41t-16 -70zM1130 300
l-505 -385l-132 167l506 383zM1016 -283l-156 -153l-158 153l158 158z" />
    <glyph glyph-name="glyph401" horiz-adv-x="908" 
d="M936 554q-63 -83 -157.5 -134.5t-219.5 -51.5q-80 0 -159 27.5t-142 79t-102.5 124t-39.5 162.5v324h-116v235h978v-235h-609v-283q0 -43 16.5 -77.5t44.5 -59t65.5 -37.5t80.5 -13q194 0 360 231v-292zM792 440l-505 -385l-132 167l506 383zM776 -83l-156 -153l-158 153
l158 158z" />
    <glyph glyph-name="glyph402" horiz-adv-x="1282" 
d="M1295 646q-133 0 -227.5 -19t-157.5 -61v-566h-254v410q-105 -66 -225 -66q-68 0 -125.5 27t-99.5 76.5t-66 119t-24 154.5v364h-116v235h1352v-235h-442v-262q136 59 385 59v-236zM656 1085h-286v-364q0 -30 9 -53.5t23 -40.5t31 -26t34 -9q77 0 189 100v393zM647 420
l-505 -385l-132 167l506 383zM616 -193l-156 -153l-158 153l158 158z" />
    <glyph glyph-name="glyph403" horiz-adv-x="908" 
d="M978 1085h-978v235h978v-235zM936 411q-57 -62 -118.5 -106.5t-122.5 -73.5t-119 -42.5t-107 -13.5q-84 0 -159 32t-131.5 87t-89 129t-32.5 158q0 87 35.5 159t97 124t144.5 80.5t178 28.5q47 0 96.5 -9.5t93.5 -23.5t78 -29.5t51 -27.5v-219q-20 10 -56 25t-81.5 28.5
t-97.5 23t-106 9.5h-10l219 -248q26 19 53.5 38.5t57.5 46t61.5 64t64.5 91.5v-331zM305 633q-9 -26 -9 -60q0 -36 15 -67t41 -54t60 -36t72 -13h11.5t11.5 1zM779 290l-505 -385l-132 167l506 383zM796 -203l-156 -153l-158 153l158 158z" />
    <glyph glyph-name="glyph404" 
d="M1204 506h-478v-89q0 -72 -23.5 -129t-67.5 -96t-107.5 -60t-143.5 -21q-63 0 -118.5 24t-96 65t-64 97t-23.5 120q0 324 353 324h37v88q-23 -5 -43 -7.5t-43 -2.5q-64 0 -116.5 20.5t-89.5 57.5t-57 88.5t-20 112.5q0 71 23 128.5t64 98.5t97 63.5t122 22.5
q84 0 144 -22.5t98.5 -73.5t56.5 -134t18 -204v-236h478v-235zM1246 1085h-433v235h433v-235zM472 506h-34q-37 0 -61.5 -5.5t-39.5 -17.5t-21.5 -30.5t-6.5 -43.5q0 -19 5.5 -36t14.5 -30t22 -21t28 -8q93 0 93 123v69zM384 1034q29 0 48 6t40 20q-4 118 -63 118
q-38 0 -59.5 -17.5t-21.5 -53.5q0 -73 56 -73zM1292 260l-505 -385l-132 167l506 383zM646 -253l-156 -153l-158 153l158 158z" />
    <glyph glyph-name="glyph405" 
d="M1246 1085h-617v-344h567v-235h-567q-1 -89 -22 -154t-60 -107.5t-94.5 -63t-125.5 -20.5q-63 0 -112 23.5t-83.5 64t-52.5 95t-18 115.5q0 49 18 99t56.5 90.5t97.5 66.5t142 26v344h-375v235h1246v-235zM375 506q-36 0 -55.5 -17t-19.5 -41q0 -26 9 -39.5t25 -13.5
q13 0 21 9t12.5 22t6 31.5t1.5 36.5v12zM1254 280l-505 -385l-132 167l506 383zM586 -243l-156 -153l-158 153l158 158z" />
    <glyph glyph-name="glyph406" horiz-adv-x="1068" 
d="M1098 421q-109 -101 -226.5 -144t-245.5 -43q-312 0 -556 402l105 153q39 -15 67.5 -22t48.5 -7q75 0 117.5 39.5t42.5 111.5q0 20 -10.5 50t-26 57.5t-33 47t-32.5 19.5h-349v235h1138v-235h-469q20 -36 29.5 -83.5t9.5 -92.5q0 -59 -20 -117t-56.5 -107t-87.5 -84
t-112 -49q45 -34 98.5 -50.5t97.5 -16.5q65 0 131 17.5t128 49t116 76t95 99.5v-306zM912 310l-505 -385l-132 167l506 383zM236 177l-156 -153l-158 153l158 158z" />
    <glyph glyph-name="glyph407" horiz-adv-x="1024" 
d="M128 0v1320h768v-1320h-768zM256 128h512v1064h-512v-1064z" />
    <glyph glyph-name="glyph408" 
d="M1246 1085h-1246v235h1246v-235zM1198 602l-537 -297l-121 202l132 77q-25 37 -61 54t-84 17q-140 0 -140 -137q0 -74 72.5 -188.5t218.5 -273.5l-227 -100q-78 85 -133.5 149t-84.5 109q-52 78 -81.5 155t-29.5 142q0 185 120 293q111 102 285 102q54 0 106.5 -15.5
t98.5 -42.5t83.5 -64.5t61.5 -81.5l321 173v-273zM1309 357l-368 -351l-127 159l368 351zM316 -163l-156 -153l-158 153l158 158z" />
    <glyph glyph-name="glyph409" horiz-adv-x="1390" 
d="M1460 1085h-1460v235h1460v-235zM1353 587q0 -86 -32 -162.5t-88 -133.5t-131.5 -90t-162.5 -33q-161 0 -276 108q-22 -21 -50 -40t-58 -33q-38 -18 -77.5 -26.5t-79.5 -8.5q-71 0 -134 33t-110 88.5t-74 126.5t-27 148q0 178 118 295q118 121 289 121q79 0 146 -24.5
t124 -76.5q23 21 54 39.5t64.5 32t67.5 21.5t64 8q84 0 153 -30.5t117.5 -83.5t75.5 -125t27 -154zM1095 587q0 140 -132 140q-44 0 -93 -81q-12 -24 -21.5 -43.5t-24.5 -50t-36 -76.5q58 -55 157 -55q30 0 57.5 12t48 34t32.5 52.5t12 67.5zM536 504q46 90 81 165
q-71 58 -162 58q-31 0 -57 -12t-45.5 -33.5t-30.5 -51.5t-11 -66q0 -29 7 -55t20.5 -45.5t32.5 -31t43 -11.5q66 0 122 83zM827 -33l-156 -153l-158 153l158 158zM1106 -468l-123 -150l-312 193l-312 -193l-121 150l433 259z" />
    <glyph glyph-name="glyph410" horiz-adv-x="908" 
d="M936 413q-83 -114 -198 -175t-272 -61q-83 0 -155.5 33.5t-127.5 89.5t-86.5 129.5t-31.5 154.5q0 82 32 154t91.5 125.5t143 84t185.5 30.5q37 0 70.5 -2.5t67.5 -9t71.5 -16.5t84.5 -25v-247q-45 21 -82.5 35t-73 22.5t-72.5 12t-80 3.5q-46 0 -82 -14t-61 -37.5
t-38.5 -54.5t-13.5 -64q0 -36 13.5 -67.5t37 -55t55 -36.5t66.5 -13q58 0 120.5 20.5t122.5 59.5t114.5 95.5t98.5 128.5v-300zM978 1085h-978v235h978v-235zM764 260l-505 -385l-132 167l506 383zM776 -203l-156 -153l-158 153l158 158z" />
    <glyph glyph-name="glyph411" horiz-adv-x="1122" 
d="M1192 1085h-303v235h303v-235zM1149 472l-116 52l-487 -376l-159 177l376 297l-240 100l-418 -326l-152 202l318 250q-41 45 -63 100t-22 116q0 59 26 112.5t69.5 94.5t99 65.5t115.5 24.5q67 0 124.5 -21.5t99 -60t65 -92t23.5 -116.5q0 -96 -50 -178l391 -155v-266z
M552 1051q0 25 -17.5 42.5t-40.5 17.5t-41 -17.5t-18 -42.5q0 -26 17.5 -44t41.5 -18t41 18t17 44zM296 -3l-156 -153l-158 153l158 158z" />
    <glyph glyph-name="glyph412" horiz-adv-x="908" 
d="M936 584q-63 -103 -165 -159.5t-227 -56.5q-80 0 -159.5 27.5t-142.5 78.5t-102 124t-39 163v324h-101v235h978v-235h-424l240 -364q44 31 72 59t70 86v-282zM354 966v-164q0 -36 16 -70.5t43 -61t62 -42.5t73 -16q14 0 26.5 1t24.5 3zM802 454l-505 -385l-132 167
l506 383zM756 -103l-156 -153l-158 153l158 158z" />
    <glyph glyph-name="glyph413" 
d="M1198 506h-603q-16 -30 -40.5 -56t-54.5 -41l311 -368l-194 -163l-598 707l195 164l120 -145q76 9 76 247v234h-410v235h1246v-235h-582v-234q0 -31 -0.5 -59t-2.5 -51h537v-235zM1293 331l-368 -351l-127 159l368 351zM256 -83l-156 -153l-158 153l158 158z" />
    <glyph glyph-name="glyph414" 
d="M1246 1085h-395v-324h-463q-30 0 -51.5 -21.5t-21.5 -50.5q0 -17 4 -31.5t15 -25.5q51 23 111 36t137 13q89 0 159 -17t123.5 -46t91 -67.5t61 -82t34.5 -89t11 -87.5q0 -51 -18 -96t-43.5 -83.5t-53.5 -68.5t-48 -49l-169 164q10 11 20 21q8 8 23 25t30.5 37t15.5 48
q0 6 -2 16t-10 24l-269 -243l-157 165l204 184q-66 0 -112 -15.5t-76 -40.5t-44.5 -56.5t-14.5 -63.5q0 -71 29 -122t75 -89t101.5 -66t108.5 -51l82 -35l-122 -202q-59 17 -120.5 43t-120 62t-109.5 82.5t-89.5 103.5t-61 125.5t-22.5 149.5q0 44 15 102t52 115
q-44 44 -67 97.5t-23 113.5q0 61 22 116t61.5 96.5t93.5 66t118 24.5h236v93h-597v235h1246v-235zM1440 -431l-130 -173l-564 253l131 168zM276 -403l-156 -153l-158 153l158 158z" />
    <glyph glyph-name="glyph415" horiz-adv-x="1228" 
d="M1298 1085h-452v235h452v-235zM1234 653h-793q-47 -36 -76.5 -61.5t-46.5 -47t-23 -42.5t-6 -47q0 -15 4.5 -34t16 -34.5t27 -27.5t48.5 -12q43 0 65.5 24t24.5 69l-35 103l237 86l231 -634l-240 -86l-100 278q-80 -84 -211 -84q-67 0 -125 28.5t-101 77t-68 112.5
t-25 134q0 91 42 167.5t138 148.5q-27 19 -48.5 46.5t-36.5 60t-23.5 68.5t-8.5 72q0 69 27 129.5t73.5 105.5t108.5 70.5t131 25.5q74 0 134 -25t102 -69.5t65 -105t23 -131.5q0 -70 -33 -130h502v-235zM521 1018q0 17 -7 33t-18.5 28.5t-25.5 20t-29 7.5q-41 0 -64.5 -25
t-23.5 -64q0 -43 22.5 -74t65.5 -51q41 23 60.5 54.5t19.5 70.5zM1343 453l-368 -351l-127 159l368 351zM556 -203l-156 -153l-158 153l158 158z" />
    <glyph glyph-name="glyph416" horiz-adv-x="1282" 
d="M1352 1085h-1352v235h1352v-235zM1293 693h-375q10 -29 13.5 -59t3.5 -65q0 -74 -25.5 -130.5t-63.5 -98.5t-82 -71t-82 -46l107 -114l-166 -167l-461 470l172 166l158 -160q31 3 65.5 12.5t63 29t47 50.5t18.5 76q0 30 -9.5 59t-41.5 48h-192v236h850v-236zM1414 467
l-368 -351l-127 159l368 351zM286 -43l-156 -153l-158 153l158 158z" />
    <glyph glyph-name="glyph417" horiz-adv-x="1656" 
d="M1726 1085h-767v-169q30 11 65 17.5t70 6.5q96 0 170.5 -27t126 -78t78.5 -125t27 -168q0 -57 -17 -116.5t-48 -116.5t-76 -110t-100 -97l-141 195q125 113 125 245q0 75 -41.5 118t-112.5 43q-39 0 -69.5 -14t-56.5 -49v-640h-254v653h-156q-92 -44 -135 -93.5
t-43 -106.5q0 -119 202 -212l-79 -218q-72 23 -140.5 68.5t-121.5 103t-85 121.5t-32 125q0 112 79 212h-144v235h655v197h-705v235h1726v-235z" />
    <glyph glyph-name="glyph418" horiz-adv-x="1708" 
d="M1402 499l-327 -292q12 -18 17.5 -32.5t5.5 -34.5q0 -29 -12 -54t-33 -44t-49.5 -29.5t-61.5 -10.5t-61.5 10.5t-49.5 29t-33 44t-12 54.5q0 31 15 56t41 50l121 119q-57 11 -106.5 39.5t-86 70t-57 94t-20.5 111.5q0 56 23.5 111t64 99t95.5 71.5t117 27.5
q46 0 81.5 -11t63.5 -25v-214q-30 13 -49 19t-44.5 8t-35.5 2q-15 0 -28.5 -6.5t-24 -17t-17 -24t-6.5 -28.5q0 -24 9.5 -43.5t26 -33.5t38 -21.5t46.5 -7.5q39 0 87 7.5t93 24t83 44t86 62.5v-225zM1458 1085h-824v-218q0 -69 -13.5 -128t-39 -106t-62.5 -80t-83 -51
l301 -421l-211 -148l-541 759l207 149l96 -130q27 2 44.5 11.5t28 27t15 44.5t4.5 65v226h-380v235h1458v-235zM1778 1085h-260v-1085h-254v1085h-17v235h531v-235z" />
    <glyph glyph-name="glyph419" horiz-adv-x="1922" 
d="M1992 1085h-326v-1085h-254v435l-101 -47q3 -17 4.5 -32.5t1.5 -26.5q0 -30 -13.5 -56t-37 -45.5t-56 -31t-69.5 -11.5q-174 0 -174 147q0 22 1.5 47.5t9 49.5t22 45.5t40.5 37.5q-20 30 -65 30q-57 0 -77 -44q25 -54 25 -132q0 -154 -151 -264q-133 -100 -285 -100
q-121 0 -234 60t-208 192l168 138q27 -40 59 -69t67.5 -48.5t72.5 -29t73 -9.5t71.5 12t64 33t46.5 49t18 61q0 78 -59 78q-14 0 -43.5 -7.5t-64 -17t-68.5 -17t-55 -7.5q-151 0 -233 95q-77 84 -77 215q0 56 21 104.5t57.5 84t85.5 55.5t106 20h215v91h-570v235h1992v-235z
M1412 682v403h-588v-324h-469q-42 0 -42 -48q0 -65 71 -65q10 0 40.5 8t67 17t71.5 17t55 8q38 0 80.5 -13t74.5 -33q38 46 86 62.5t120 16.5q78 0 146 -30t114 -95zM1173 912l-139 -138l-139 138l139 139z" />
    <glyph glyph-name="glyph420" horiz-adv-x="1284" 
d="M978 1085h-978v235h978v-235zM936 652h-378q-39 0 -77 -16t-68 -41.5t-48.5 -57.5t-18.5 -65q0 -66 77 -140q20 -17 46 -38.5t53.5 -43.5t53.5 -43.5t46 -37.5l-173 -189q-109 100 -168.5 156.5t-71.5 70.5q-110 125 -110 265q0 79 41 153l18 27h-108v235h886v-235z
M1354 1085h-260v-1085h-254v1085h-17v235h531v-235z" />
    <glyph glyph-name="glyph421" horiz-adv-x="1484" 
d="M1192 1085h-1192v235h1192v-235zM1148 402l-369 -202q6 -21 6 -40q0 -30 -11.5 -57.5t-31 -48.5t-45.5 -33.5t-56 -12.5q-146 0 -146 152q0 52 27.5 93t79.5 71l546 302v-224zM1148 641h-582q-68 0 -115 -13t-76 -40.5t-42 -70.5t-13 -103q0 -48 7.5 -98.5t28 -99.5
t55.5 -96.5t90 -89.5l-144 -173q-293 218 -293 586q0 103 30.5 183.5t91 136t152 84.5t213.5 29h597v-235zM1554 1085h-260v-1085h-254v1085h-17v235h531v-235z" />
    <glyph glyph-name="glyph422" 
d="M1246 1085h-385v-344h-297q-39 0 -72.5 -11.5t-58 -33.5t-39 -54t-14.5 -72q0 -41 13.5 -74t37.5 -57t56 -37t68 -13q42 0 76 17l-29 144l228 50l168 -763l-229 -52l-91 395q-26 -9 -61 -15.5t-70 -4.5q13 -59 13 -120q0 -242 -209 -242q-35 0 -63.5 11.5t-49 32.5
t-32 50t-11.5 63q0 28 10.5 53t29.5 45t44.5 33t55.5 16q-2 26 -8 61t-19 79q-85 58 -126 139.5t-41 189.5q0 83 32.5 157t88 129.5t129 88t156.5 32.5h60v107h-607v235h1246v-235z" />
    <glyph glyph-name="glyph423" horiz-adv-x="1388" 
d="M314 486q-23 -3 -35.5 -11.5t-18.5 -19.5t-7.5 -21.5t-1.5 -17.5q0 -20 11.5 -29t31.5 -9q8 0 18 2t20 6t16.5 7t12.5 7l78 -130q-35 -22 -47.5 -45.5t-12.5 -44.5q0 -23 17 -41t46 -31t67 -19.5t79 -5.5q103 3 176.5 27t111.5 71l-48 -1q-105 -2 -182.5 33.5
t-128.5 92.5t-76.5 126t-25.5 134q0 91 28.5 167t79.5 130.5t121 84.5t153 30h60v107h-857v235h1458v-235h-347v-344h-297q-39 0 -70.5 -13t-54 -36.5t-35 -56.5t-12.5 -73q0 -82 45.5 -127.5t117.5 -45.5q43 0 77 17l-31 143l250 57l164 -764l-250 -57l-46 215
q-72 -45 -168.5 -76.5t-208.5 -31.5q-69 0 -142.5 15t-134 48t-99 86t-38.5 128q0 25 6 46q-32 12 -58.5 34t-46 49.5t-30.5 58.5t-11 60q0 39 12.5 77t36.5 70.5t58.5 55t78.5 29.5z" />
    <glyph glyph-name="glyph424" 
d="M1246 1085h-393v-324h-504q-42 0 -42 -45q0 -24 13.5 -41.5t35.5 -29t49.5 -17.5t56.5 -6q92 0 170 60l171 -121q-116 -138 -278 -156q-27 -29 -42 -63t-15 -70q0 -25 11 -45t29.5 -34t43 -21.5t51.5 -7.5q19 0 39.5 5.5t40.5 16t38 24t30 30.5l-44 159l228 61l168 -617
l-229 -59l-59 215q-51 -32 -107.5 -49.5t-116.5 -17.5q-73 0 -137.5 26.5t-113 72.5t-77 108.5t-28.5 134.5q0 42 11 83t34 83q-203 73 -203 272q0 60 22.5 111.5t61 89.5t90 59.5t109.5 21.5h256v91h-616v235h1246v-235z" />
    <glyph glyph-name="glyph425" horiz-adv-x="1388" 
d="M1458 1085h-347v-344h-297q-39 0 -70.5 -13t-54 -36.5t-35 -56.5t-12.5 -73q0 -82 45.5 -127.5t117.5 -45.5q43 0 77 17l-31 143l250 57l164 -764l-250 -57l-46 215q-72 -45 -168.5 -76.5t-208.5 -31.5q-69 0 -142.5 15t-134 48t-99 86t-38.5 128q0 13 2.5 29.5
t12.5 40.5q-48 25 -77.5 59.5t-46.5 71.5t-23 73.5t-6 65.5q0 100 40.5 149t101.5 49q42 0 69 -15t42.5 -37t21.5 -47.5t6 -45.5q0 -39 -10 -60t-25.5 -33.5t-53.5 -25.5q0 -22 6 -35t15 -19.5t20 -8.5t21 -2q9 0 17 2t17.5 5.5t18 7.5t14.5 7l78 -130q-35 -22 -47.5 -45.5
t-12.5 -44.5q0 -23 17 -41t46 -31t67 -19.5t79 -5.5q103 3 176.5 27t111.5 71l-48 -1q-105 -2 -182.5 33.5t-128.5 92.5t-76.5 126t-25.5 134q0 91 28.5 167t79.5 130.5t121 84.5t153 30h60v107h-857v235h1458v-235z" />
    <glyph glyph-name="glyph426" 
d="M1246 1085h-385v-368h-238q-89 0 -148.5 -11t-96.5 -37t-52.5 -68.5t-15.5 -104.5q0 -42 13.5 -77.5t38 -61.5t58 -40.5t74.5 -14.5q27 0 59.5 7t61.5 18.5t51.5 26.5t29.5 32l-36 157l246 61l168 -724l-245 -58l-76 315q-65 -46 -162 -64l-37 -37t-31.5 -32t-32 -32
t-37.5 -37q13 -26 13 -58q0 -29 -12 -55t-32.5 -45.5t-48.5 -30.5t-59 -11q-57 0 -102 41q-51 42 -51 109q0 43 47 105q30 35 110 108q-61 26 -110 67.5t-84 94.5t-54 115t-19 128q0 94 36 175t97.5 140.5t143.5 93.5t175 34h104v139h-607v235h1246v-235z" />
    <glyph glyph-name="glyph427" 
d="M1246 1085h-385v-343h-242q-272 0 -272 -194q0 -33 13.5 -63t35.5 -53t51 -37t61 -14q18 0 39.5 3.5t42 10.5t35 16t21.5 20l-25 120l227 52l166 -762l-242 -56l-33 144q-54 -41 -121 -68t-139 -27q-67 0 -128.5 19t-108.5 56.5t-75 94.5t-28 132q0 40 19.5 80.5
t51.5 66.5q-64 57 -93 122.5t-29 146.5q0 423 519 427v106h-607v235h1246v-235zM686 192q-18 -8 -41 -14.5t-43 -10.5l46 -92q35 14 56 35zM362 120q0 -44 30 -69.5t104 -25.5l-73 134l-26 10q-35 -13 -35 -49z" />
    <glyph glyph-name="glyph428" horiz-adv-x="1442" 
d="M1512 1085h-401v-344h-297q-39 0 -70.5 -13t-54 -36.5t-35 -56.5t-12.5 -73q0 -82 45.5 -127.5t117.5 -45.5q43 0 77 17l-31 143l250 57l164 -764l-250 -57l-92 410l-30 -5l-198 -195q16 -22 24 -43.5t8 -47.5q0 -36 -12.5 -64t-34.5 -47.5t-52 -29.5t-65 -10
q-32 0 -60.5 10.5t-51.5 31.5q-50 44 -50 102q0 27 13 54.5t39 56.5l-45 64q-32 -35 -73.5 -50t-95.5 -15q-45 0 -85.5 17t-71 46t-48 68t-17.5 83q0 43 16 82t43 68.5t64 47t79 17.5q48 0 90.5 -19.5t78.5 -63.5l193 -230l66 74q-26 11 -49 25q-46 29 -80 70t-57 87.5
t-34.5 95t-11.5 91.5q0 91 28.5 167t79.5 130.5t121 84.5t153 30h60v107h-857v235h1512v-235zM229 165q44 0 70 30l-8 9q-15 19 -25.5 30t-18.5 17t-14 7.5t-12 1.5q-39 0 -39 -50q0 -16 13.5 -30.5t33.5 -14.5z" />
    <glyph glyph-name="glyph429" horiz-adv-x="1438" 
d="M1144 221h-444q-8 -97 -51 -139t-133 -42q-41 0 -73.5 12t-56 34.5t-36 55t-12.5 72.5q0 155 133 178v43q-102 4 -180.5 26t-132.5 59t-81.5 87t-27.5 112q0 305 366 305h31v61h-446v235h1188v-235h-488v-281h-259q-155 0 -155 -81q0 -85 283 -85h56.5t74.5 1v-183h444
v-235zM1508 1085h-260v-1085h-254v1085h-17v235h531v-235z" />
    <glyph glyph-name="glyph430" horiz-adv-x="1352" 
d="M1422 1085h-300v-1085h-254v207q-121 -71 -260 -71q-73 0 -132 23t-100.5 61.5t-64 89.5t-22.5 111q-53 15 -96.5 47t-75.5 75t-49.5 93.5t-17.5 101.5q0 250 248 250h55v97h-353v235h1422v-235zM868 1085h-261v-320h-262q-54 0 -54 -37q0 -20 8 -37.5t21.5 -31
t31.5 -21.5t37 -8q59 0 110 98l181 -105q-56 -135 -177 -190q1 -13 11 -23.5t25 -18t34 -12t37 -4.5q27 0 61 10t69.5 26.5t69 38.5t58.5 46v589z" />
    <glyph glyph-name="glyph431" 
d="M1246 1085h-385v-343h-233q-141 0 -204 -34q-77 -41 -77 -149q0 -33 13.5 -65t36 -57t51.5 -40.5t60 -15.5q94 0 118 48l-25 121l247 53l166 -762l-245 -56l-33 144q-29 -23 -61 -40.5t-65.5 -29.5t-67 -18.5t-63.5 -6.5q-79 0 -142 21.5t-107 60.5t-67.5 95t-23.5 125
q0 42 19.5 80.5t52.5 66.5q-123 113 -123 280q0 205 128 309.5t391 106.5v106h-607v235h1246v-235zM680 178q-35 -17 -70.5 -24t-79.5 -7q-74 0 -134 22q-34 -9 -34 -53q0 -19 12 -33t31.5 -23t44 -13.5t50.5 -4.5q99 0 186 111z" />
    <glyph glyph-name="glyph432" horiz-adv-x="1334" 
d="M990 600q-60 -74 -148 -113.5t-187 -39.5q-17 0 -46 5t-58 11t-53 11t-31 5q-33 0 -62 -12.5t-50.5 -33.5t-34.5 -49.5t-13 -61.5q0 -66 84 -154q20 -18 45.5 -41.5t51.5 -47.5t95 -90l-167 -184q-107 106 -166 165.5t-72 74.5q-120 145 -120 281q0 59 15.5 112.5
t44.5 98t71.5 78t95.5 52.5q-32 73 -32 199v219h-253v235h1032v-235h-525v-244q0 -74 41 -112.5t108 -38.5q36 0 83 10t91 28t78.5 40.5t81.5 61.5v-230zM1404 1085h-260v-1085h-254v1085h-17v235h531v-235z" />
    <glyph glyph-name="glyph433" horiz-adv-x="1534" 
d="M1244 1085h-321v235h321v-235zM1201 473l-137 43l-229 -161q31 -35 48 -76.5t17 -89.5q0 -51 -21 -95.5t-57 -77.5t-84.5 -51.5t-103.5 -18.5q-102 0 -175 77q-75 75 -75 167q0 127 114 211l301 224l-234 98l-422 -327l-152 202l318 250q-48 48 -69 100t-21 116
q0 60 25 113.5t68 94.5t100.5 65t121.5 24t119 -22.5t95.5 -61.5t63.5 -91t23 -112q0 -93 -47 -171l413 -162v-268zM600 1052q0 13 -6 26t-15.5 23t-22 16t-25.5 6q-28 0 -48.5 -20.5t-20.5 -50.5q0 -31 20 -52.5t49 -21.5q27 0 48 20.5t21 53.5zM684 192q0 19 -12 31.5
t-29 12.5q-16 0 -27.5 -12.5t-11.5 -31.5q0 -17 11.5 -30t27.5 -13q17 0 29 13t12 30zM1604 1085h-260v-1085h-254v1085h-17v235h531v-235z" />
    <glyph glyph-name="glyph434" horiz-adv-x="1684" 
d="M1352 1085h-498v235h498v-235zM1310 306q-86 -144 -320 -144q-78 0 -142.5 22.5t-111 67t-72 110t-25.5 151.5h-225v236h302l-253 94l-343 -177l-111 207l187 100q-66 75 -66 173q0 60 24.5 113.5t66.5 93.5t98 63.5t119 23.5q68 0 126.5 -22.5t101.5 -62t67.5 -93.5
t24.5 -116q0 -76 -34 -143l196 -80l-90 -174h267v-236h-206q0 -36 10.5 -60.5t26.5 -38.5t36 -20t38 -6q44 0 88 8t83 24t67.5 38.5t69.5 76.5v-229zM508 1146q0 13 -6 26t-15.5 23t-22 16t-25.5 6q-28 0 -48.5 -20.5t-20.5 -50.5q0 -31 20 -52.5t49 -21.5q27 0 48 20.5
t21 53.5zM1754 1085h-260v-1085h-254v1085h-17v235h531v-235z" />
    <glyph glyph-name="glyph435" horiz-adv-x="1584" 
d="M1244 1085h-321v235h321v-235zM1202 625l-460 -385l-166 177l64 55q-4 13 -19 24t-35 16t-40 5q-27 0 -49.5 -6t-39 -18.5t-26 -33t-9.5 -49.5q0 -42 8 -73.5t24.5 -58t42 -51t60.5 -51t79 -57.5t99 -72l-127 -181q-431 251 -431 524q0 72 25.5 132t73 103t116 67
t154.5 24q48 0 89 -10.5t74 -27.5t57 -38t38 -41l183 146l-455 94l-415 -212l-104 208l280 142q-66 89 -66 191q0 58 24.5 110.5t67 92t99 62.5t120.5 23q58 0 114 -23t99.5 -64t70 -97t26.5 -122q0 -69 -38 -143l392 -89v-293zM606 1147q0 33 -21.5 54t-48.5 21t-48.5 -21
t-21.5 -54t22 -53.5t48 -20.5t48 20.5t22 53.5zM1654 1085h-260v-1085h-254v1085h-17v235h531v-235z" />
    <glyph glyph-name="glyph436" horiz-adv-x="1634" 
d="M1298 1085h-341v235h341v-235zM1256 302q-30 -36 -72.5 -65t-93 -49.5t-107 -31.5t-114.5 -11q-78 0 -142 26t-109.5 70t-70 103t-24.5 124q0 31 6.5 66t19.5 70t37 68.5t49 56.5l-84 45l-391 -321l-164 173l339 269q-102 88 -102 216q0 61 24 115t65.5 94t97.5 63.5
t119 23.5q66 0 123 -21.5t99 -60t66 -91.5t24 -116q0 -51 -20.5 -100.5t-43.5 -86.5l272 -125l-134 -211l-74 31q-34 -26 -55 -62t-21 -70q0 -21 10.5 -40.5t26.5 -34.5t35.5 -24t38.5 -9q51 0 100 16t95.5 42.5t90 60.5t84.5 70v-273zM601 1102q0 24 -18.5 42.5t-40.5 18.5
q-21 0 -39 -17t-18 -44t17 -44.5t40 -17.5q26 0 42.5 19.5t16.5 42.5zM1704 1085h-260v-1085h-254v1085h-17v235h531v-235z" />
    <glyph glyph-name="glyph437" horiz-adv-x="1228" 
d="M1298 1085h-286v-260q0 -125 -46 -195.5t-141 -101.5l-288 -93q-58 -19 -88 -37t-30 -44q0 -25 17 -46t41.5 -36.5t52.5 -24t50 -8.5q56 0 100.5 16.5t78 44.5t57.5 64.5t40 75.5l209 -71q-37 -97 -89.5 -166.5t-116.5 -114.5t-138.5 -66.5t-156.5 -21.5
q-86 0 -159.5 24.5t-127.5 70.5t-84.5 111t-30.5 145q0 132 139 228q-96 90 -96 200v306h-205v235h1298v-235zM758 909v176h-153zM459 959v-56q0 -196 148 -196q18 0 42.5 1t38.5 5z" />
    <glyph glyph-name="glyph438" horiz-adv-x="1228" 
d="M1298 1085h-306v-305q0 -33 -2.5 -59t-7.5 -46t-13.5 -36.5t-21.5 -30.5q91 -71 130.5 -138t39.5 -130q0 -340 -516 -340q-55 0 -115.5 8.5t-119 26.5t-111 45.5t-93 65.5t-64 86t-23.5 108q0 82 43.5 153.5t140.5 131.5q-37 58 -58 124t-21 135v201h-180v235h1298v-235z
M739 912v173h-147zM435 959v-74q0 -87 36 -127.5t114 -40.5q7 0 34.5 1t33.5 2zM874 340q0 22 -15 47t-36 49t-44.5 44t-40.5 33q-89 -10 -156 -20t-106 -23q-71 -23 -110 -57t-39 -73q0 -22 15 -38.5t39.5 -29t54.5 -20.5t60.5 -13.5t58 -7.5t46.5 -2q144 0 208.5 27.5
t64.5 83.5z" />
    <glyph glyph-name="glyph439" horiz-adv-x="1228" 
d="M1298 1085h-286v-260q0 -125 -46 -195.5t-141 -101.5l-288 -93q-58 -19 -88 -37t-30 -44q0 -25 17 -46t41.5 -36.5t52.5 -24t50 -8.5q56 0 100.5 16.5t78 44.5t57.5 64.5t40 75.5l209 -71q-37 -97 -89.5 -166.5t-116.5 -114.5t-138.5 -66.5t-156.5 -21.5
q-86 0 -159.5 24.5t-127.5 70.5t-84.5 111t-30.5 145q0 132 139 228q-96 90 -96 200v306h-205v235h1298v-235zM758 909v176h-153zM459 959v-56q0 -196 148 -196q18 0 42.5 1t38.5 5zM1011 -328l-123 -150l-312 193l-312 -193l-121 150l433 259z" />
    <glyph glyph-name="glyph440" horiz-adv-x="1228" 
d="M1298 1085h-306v-305q0 -33 -2.5 -59t-7.5 -46t-13.5 -36.5t-21.5 -30.5q91 -71 130.5 -138t39.5 -130q0 -340 -516 -340q-55 0 -115.5 8.5t-119 26.5t-111 45.5t-93 65.5t-64 86t-23.5 108q0 82 43.5 153.5t140.5 131.5q-37 58 -58 124t-21 135v201h-180v235h1298v-235z
M739 912v173h-147zM435 959v-74q0 -87 36 -127.5t114 -40.5q7 0 34.5 1t33.5 2zM874 340q0 22 -15 47t-36 49t-44.5 44t-40.5 33q-89 -10 -156 -20t-106 -23q-71 -23 -110 -57t-39 -73q0 -22 15 -38.5t39.5 -29t54.5 -20.5t60.5 -13.5t58 -7.5t46.5 -2q144 0 208.5 27.5
t64.5 83.5zM1051 -328l-123 -150l-312 193l-312 -193l-121 150l433 259z" />
    <glyph glyph-name="glyph441" horiz-adv-x="1868" 
d="M781 965q145 63 238 63q222 0 520 -226v-214l-228 122q-87 46 -158.5 75.5t-137.5 29.5q-26 0 -59.5 -4.5t-72.5 -22.5zM1539 329l-548 -262l-107 188l655 315v-241zM1618 1085h-955v-376h462v-213h-499q-7 -23 -17 -40t-22.5 -30.5t-27 -24.5t-31.5 -22l327 -328
l-179 -178l-652 652l177 180l142 -141q66 22 66 190v331h-409v235h1618v-235zM1938 1085h-260v-1085h-254v1085h-17v235h531v-235z" />
    <glyph glyph-name="glyph442" horiz-adv-x="1228" 
d="M1298 1085h-372v-324h-423q-28 0 -47 -17.5t-19 -42.5q0 -13 0.5 -23.5t2.5 -15.5q24 10 53.5 18t60.5 14t60.5 9.5t53.5 3.5q112 0 193.5 -28.5t133.5 -76.5t77 -110.5t25 -130.5v-361h-237v231h-66q-8 -65 -41.5 -92t-93.5 -27q-65 0 -102.5 41.5t-37.5 107.5
q0 149 175 149h153q-22 34 -71 53.5t-108 19.5q-75 0 -124.5 -24t-79 -61.5t-41 -83.5t-11.5 -89q0 -40 16 -86t52.5 -94.5t96 -98.5t147.5 -99l-94 -212q-123 57 -211.5 129t-145.5 151t-84 160t-27 156q0 33 6 70t16.5 73t26 69.5t35.5 59.5q-24 31 -40.5 75.5
t-16.5 108.5q0 307 373 307h110v91h-672v235h1298v-235z" />
    <glyph glyph-name="glyph443" horiz-adv-x="1496" 
d="M1566 1085h-314v-1085h-254v231h-142q-4 -38 -19 -62t-37.5 -37.5t-51.5 -18.5t-61 -5q-71 0 -112 40.5t-41 112.5q0 25 4.5 52t15.5 50t29.5 40.5t45.5 25.5v10q0 12 -8.5 22t-22.5 17.5t-32.5 11.5t-38.5 4q-27 0 -65 -6.5t-72 -24.5t-58 -50.5t-24 -84.5
q0 -31 17.5 -67.5t47.5 -75t68.5 -77t80 -73t83.5 -62.5t79 -46l-118 -206q-124 76 -216.5 156.5t-154 160t-92 154.5t-30.5 140q0 28 3.5 60t14 65.5t29 67.5t47.5 66q-18 28 -29.5 67t-11.5 87q0 69 21.5 120t61.5 84t97.5 49t128.5 16h80v71h-515v235h1566v-235zM998 435
v650h-230v-304h-355q-26 0 -39 -9.5t-13 -23.5q0 -18 4 -28.5t11 -19.5q20 6 39 9.5t40.5 5.5t44 3.5t43.5 1.5q69 0 127.5 -18t101.5 -52.5t67 -83.5t24 -111v-20h135z" />
    <glyph glyph-name="glyph444" horiz-adv-x="1496" 
d="M1566 1085h-314v-1085h-254v160q-46 -28 -98.5 -41t-112.5 -13q-56 0 -113 18.5t-109 52t-95 80t-70 102.5l89 144q35 -18 52 -22.5t27 -4.5q17 0 30 7t13 21t-10 24.5t-27 17t-40 10t-48 3.5q-58 0 -96.5 -19.5t-61 -47t-32 -57.5t-9.5 -50q0 -111 89.5 -200.5
t262.5 -167.5l-71 -183q-118 46 -211 109.5t-157.5 137t-98.5 153.5t-34 160q0 13 2 36t8 51t18 57t32 54q-13 19 -23 46t-17 56t-10.5 57t-3.5 48q0 61 27.5 106t71.5 74t97.5 43t106.5 14h139v49h-515v235h1566v-235zM998 1085h-230v-272h-418q-18 0 -33 -6t-23.5 -18
t-8.5 -30q0 -19 9 -44q29 16 77 26t104 10q90 0 156 -17t109.5 -47t65 -71.5t21.5 -91.5q0 -75 -30.5 -121t-93.5 -76q13 -13 26.5 -18t31.5 -8.5t39 -3.5q60 0 106.5 25t91.5 73v690z" />
    <glyph glyph-name="glyph445" horiz-adv-x="1228" 
d="M1298 1085h-372v-318h-443q-28 0 -47 -20.5t-19 -45.5q0 -24 3 -33q24 10 54 17t61.5 11.5t62 7t54.5 2.5q112 0 196 -28.5t139 -76t82.5 -110t27.5 -130.5v-361h-237v164q0 32 -2 52t-9 43q-8 -48 -30 -78t-51 -47.5t-63 -23.5t-65 -6q-56 0 -97 17.5t-69 47.5t-41.5 70
t-13.5 85v66q-18 -16 -28 -36t-14.5 -41t-5 -43t-0.5 -41q0 -40 20.5 -86.5t62.5 -96t106.5 -100.5t152.5 -100l-83 -211q-123 57 -211.5 129t-145.5 151t-84 160t-27 156q0 33 6 70t16.5 73t26 69.5t35.5 59.5q-24 31 -40.5 75.5t-16.5 108.5q0 155 93 228t280 73h110v97
h-672v235h1298v-235zM709 500q-13 8 -25 12t-39 4q-21 0 -37 -5t-26 -14v-209q7 -10 20.5 -16t38.5 -6q29 0 46.5 6t21.5 13v215z" />
    <glyph glyph-name="glyph446" horiz-adv-x="1228" 
d="M1298 1085h-418v-319h-463q-28 0 -47 -20t-19 -45q0 -6 2 -22t5 -32l46 20t53.5 18t72.5 13.5t102 5.5q140 0 235.5 -34.5t154.5 -89.5t85 -124t26 -137v-319h-237v211l-133 -100l-93 113l55 42q-18 16 -35.5 23t-34.5 7t-32 -7t-26 -18.5t-17.5 -26t-6.5 -29.5
q0 -25 11 -45t32 -43t51.5 -53t69.5 -74l-124 -101q-31 28 -65.5 60.5t-63.5 70.5t-48 81.5t-19 92.5q0 51 16 93.5t46 73t73 47.5t97 17q60 0 104 -18t81 -63q11 5 27.5 13.5t34.5 16.5q-9 20 -25.5 41.5t-44.5 39.5t-69.5 29.5t-99.5 11.5q-76 0 -137.5 -16.5t-105 -50.5
t-67 -85.5t-23.5 -121.5q0 -33 7 -77.5t36.5 -100.5t89.5 -122.5t166 -142.5l-147 -160q-122 87 -196.5 163.5t-115.5 149t-54.5 143.5t-13.5 146q0 33 7 67.5t20 68t29.5 65t36.5 57.5q-24 31 -45 82.5t-21 115.5q0 77 26.5 133.5t77 94t123.5 56t166 18.5h110v96h-626v235
h1298v-235z" />
    <glyph glyph-name="glyph447" horiz-adv-x="1228" 
d="M1298 1085h-418v-319h-463q-28 0 -47 -20t-19 -45q0 -6 2 -22t5 -32l46 20t53.5 18t72.5 13.5t102 5.5q140 0 235.5 -34.5t154.5 -89.5t85 -124t26 -137v-319h-237v72q-43 -27 -85 -39.5t-82 -12.5q-50 0 -93.5 14t-76 40.5t-51.5 64.5t-19 87q0 44 17 82.5t46 67.5
t69 45.5t87 16.5t97 -17l-39 -138q-22 8 -44 8q-77 0 -77 -71q0 -28 23 -39.5t51 -11.5q43 0 88 18t89 56q0 22 -1 50t-8 57t-22 57t-42 50t-67.5 35.5t-98.5 13.5q-76 0 -137.5 -16.5t-105 -50.5t-67 -85.5t-23.5 -121.5q0 -33 7 -77.5t36.5 -100.5t89.5 -122.5t166 -142.5
l-147 -160q-122 87 -196.5 163.5t-115.5 149t-54.5 143.5t-13.5 146q0 33 7 67.5t20 68t29.5 65t36.5 57.5q-24 31 -45 82.5t-21 115.5q0 77 26.5 133.5t77 94t123.5 56t166 18.5h110v96h-626v235h1298v-235z" />
    <glyph glyph-name="glyph448" horiz-adv-x="1024" 
d="M92 0v1302h799v-1302h-799zM302 206h379v890h-379v-890z" />
    </font>
</defs>
</svg>
